<svg id="_x32_4-open" enable-background="new 0 0 300 300" height="512" viewBox="0 0 300 300" width="512" xmlns="http://www.w3.org/2000/svg"><path d="m170 46c-11.008 0-21.718 1.729-32 5.059v-21.059c0-4.422-3.578-8-8-8-59.289 0-104 55.031-104 128 0 19.25 3.023 37.438 8.977 54.062 1.484 4.156 6.039 6.312 10.234 4.828 4.156-1.492 6.32-6.07 4.828-10.227-5.336-14.882-8.039-31.257-8.039-48.663 0-60.406 33.867-106.766 80-111.586v24.529.005 23.052h-15.031c-13.766 0-24.969 11.203-24.969 24.969v78.062c0 13.766 11.203 24.969 24.969 24.969h15.031v23.01c-.001.029 0 .057 0 .086v24.482c-24.109-2.57-45.883-16.703-60.609-39.664-2.391-3.727-7.344-4.812-11.055-2.414-3.719 2.391-4.797 7.336-2.414 11.055 19.344 30.148 49.266 47.445 82.078 47.445 4.422 0 8-3.578 8-8v-21.062c10.28 3.33 20.989 5.062 32 5.062 57.344 0 104-46.656 104-104s-46.656-104-104-104zm0 192c-11.104 0-21.821-2.144-32-6.135v-25.865c0-4.422-3.578-8-8-8h-23.031c-4.945 0-8.969-4.023-8.969-8.969v-78.062c0-4.945 4.023-8.969 8.969-8.969h23.031c4.422 0 8-3.578 8-8v-25.869c10.182-3.992 20.9-6.131 32-6.131 48.523 0 88 39.477 88 88s-39.477 88-88 88z"/><g fill="#18c2c6"><path d="m162 192h-42.289c-2.953 0-5.664-1.625-7.055-4.227s-1.242-5.758.398-8.211l1.922-2.883c10.172-15.25 23.555-26.852 34.078-35.258 4.047-3.242 5.766-8.281 4.578-13.477-1.062-4.664-4.914-8.516-9.578-9.578-4.094-.922-8.172-.062-11.383 2.492-3.148 2.508-4.961 6.258-4.961 10.281 0 4.422-3.578 8-8 8s-8-3.578-8-8c0-8.922 4.008-17.227 10.992-22.797s16.07-7.609 24.914-5.57c10.688 2.438 19.172 10.922 21.609 21.609 2.555 11.148-1.352 22.469-10.18 29.539-9.883 7.891-17.469 14.984-23.516 22.078h26.471c4.422 0 8 3.578 8 8s-3.578 8.002-8 8.002z"/><path d="m226 166h-40c-4.422 0-8-3.578-8-8v-48c0-4.422 3.578-8 8-8s8 3.578 8 8v40h32c4.422 0 8 3.578 8 8s-3.578 8-8 8z"/><path d="m218 190c-4.422 0-8-3.578-8-8v-48c0-4.422 3.578-8 8-8s8 3.578 8 8v48c0 4.422-3.578 8-8 8z"/></g></svg>