<svg id="Fill_Outline" height="512" viewBox="0 0 64 64" width="512" xmlns="http://www.w3.org/2000/svg" data-name="Fill Outline"><g id="Stroke_copy" data-name="Stroke copy"><path d="m20 9h24a8 8 0 0 1 8 8v40a4 4 0 0 1 -4 4h-32a4 4 0 0 1 -4-4v-40a8 8 0 0 1 8-8z" fill="#7ecf7e"/><path d="m20 37v-28a8 8 0 0 0 -8 8v40a4 4 0 0 0 4 4h32a4 4 0 0 0 4-4v-4h-16a16 16 0 0 1 -16-16z" fill="#4daf4d"/><path d="m21 9h22a0 0 0 0 1 0 0v11a4 4 0 0 1 -4 4h-14a4 4 0 0 1 -4-4v-11a0 0 0 0 1 0 0z" fill="#6bbeda"/><path d="m25 9h18a0 0 0 0 1 0 0v7a0 0 0 0 1 0 0h-11a7 7 0 0 1 -7-7 0 0 0 0 1 0 0z" fill="#9ed8ec"/><rect fill="#9ed8ec" height="14" rx="2" width="24" x="20" y="40"/><path d="m23 45v-5h-1a2 2 0 0 0 -2 2v10a2 2 0 0 0 2 2h20a2 2 0 0 0 2-2v-1h-15a6 6 0 0 1 -6-6z" fill="#6bbeda"/><path d="m24 40h16a0 0 0 0 1 0 0v4a2 2 0 0 1 -2 2h-12a2 2 0 0 1 -2-2v-4a0 0 0 0 1 0 0z" fill="#db6060"/><path d="m26 40h14a0 0 0 0 1 0 0v3a0 0 0 0 1 0 0h-11a3 3 0 0 1 -3-3 0 0 0 0 1 0 0z" fill="#ff9b9b"/><path d="m29 18h6a0 0 0 0 1 0 0v15a3 3 0 0 1 -3 3 3 3 0 0 1 -3-3v-15a0 0 0 0 1 0 0z" fill="#db6060"/><path d="m34 20h1a0 0 0 0 1 0 0v6a0 0 0 0 1 0 0h-1a2 2 0 0 1 -2-2v-2a2 2 0 0 1 2-2z" fill="#ff9b9b"/><path d="m25 28h14v4h-14z" fill="#db6060"/><path d="m27 28h12a0 0 0 0 1 0 0v2a0 0 0 0 1 0 0h-10a2 2 0 0 1 -2-2 0 0 0 0 1 0 0z" fill="#ff9b9b"/><path d="m52 33h4a4 4 0 0 1 4 4v16a4 4 0 0 1 -4 4h-4a0 0 0 0 1 0 0v-24a0 0 0 0 1 0 0z" fill="#7ecf7e"/><path d="m55 46v-13h-3v24h4a4 4 0 0 0 4-4v-2a5 5 0 0 1 -5-5z" fill="#4daf4d"/><path d="m57 39h3a0 0 0 0 1 0 0v6a0 0 0 0 1 0 0h-3a1 1 0 0 1 -1-1v-4a1 1 0 0 1 1-1z" fill="#6bbeda"/><path d="m4 33h4a4 4 0 0 1 4 4v16a4 4 0 0 1 -4 4h-4a0 0 0 0 1 0 0v-24a0 0 0 0 1 0 0z" fill="#4daf4d" transform="matrix(-1 0 0 -1 16 90)"/><path d="m9 46v-13h3v24h-4a4 4 0 0 1 -4-4v-2a5 5 0 0 0 5-5z" fill="#157a15"/><g fill="#6bbeda"><path d="m5 39h3a0 0 0 0 1 0 0v6a0 0 0 0 1 0 0h-3a1 1 0 0 1 -1-1v-4a1 1 0 0 1 1-1z" transform="matrix(-1 0 0 -1 12 84)"/><path d="m52 19h2a2 2 0 0 1 2 2v4a2 2 0 0 1 -2 2h-2a0 0 0 0 1 0 0v-8a0 0 0 0 1 0 0z"/><path d="m8 19h2a2 2 0 0 1 2 2v4a2 2 0 0 1 -2 2h-2a0 0 0 0 1 0 0v-8a0 0 0 0 1 0 0z" transform="matrix(-1 0 0 -1 20 46)"/></g></g><g id="Outline_copy" fill="#04485b" data-name="Outline copy"><path d="m42 53h-8a1 1 0 0 0 0 2h8a3 3 0 0 0 3-3v-10a3 3 0 0 0 -3-3h-20a3 3 0 0 0 -3 3v10a3 3 0 0 0 3 3h8a1 1 0 0 0 0-2h-8a1 1 0 0 1 -1-1v-10a1 1 0 0 1 1-1h1v3a3 3 0 0 0 3 3h5v1a1 1 0 0 0 2 0v-1h5a3 3 0 0 0 3-3v-3h1a1 1 0 0 1 1 1v10a1 1 0 0 1 -1 1zm-3-9a1 1 0 0 1 -1 1h-5v-1a1 1 0 0 0 -2 0v1h-5a1 1 0 0 1 -1-1v-3h14z"/><path d="m56 32h-3v-4h1a3 3 0 0 0 3-3v-4a3 3 0 0 0 -3-3h-1v-1a9 9 0 0 0 -9-9h-5v-3a3 3 0 0 0 -3-3h-8a3 3 0 0 0 -3 3v3h-5a9 9 0 0 0 -9 9v1h-1a3 3 0 0 0 -3 3v4a3 3 0 0 0 3 3h1v4h-3a5 5 0 0 0 -5 5v16a5 5 0 0 0 5 5 1 1 0 0 0 0-2 3 3 0 0 1 -3-3v-7h2a2 2 0 0 0 2-2v-4a2 2 0 0 0 -2-2h-2v-1a3 3 0 0 1 3-3h3v23a5 5 0 0 0 5 5h32a5 5 0 0 0 5-5v-7a1 1 0 0 0 -2 0v7a3 3 0 0 1 -3 3h-32a3 3 0 0 1 -3-3v-40a7 7 0 0 1 7-7v10a5 5 0 0 0 5 5h3v2h-3a1 1 0 0 0 -1 1v4a1 1 0 0 0 1 1h3a4 4 0 0 0 8 0h3a1 1 0 0 0 1-1v-4a1 1 0 0 0 -1-1h-3v-2h3a5 5 0 0 0 5-5v-7a1 1 0 0 0 -2 0v7a3 3 0 0 1 -3 3h-3v-4h2a1 1 0 0 0 0-2h-12a1 1 0 0 0 0 2h2v4h-3a3 3 0 0 1 -3-3v-10h22a7 7 0 0 1 7 7v29a1 1 0 0 0 2 0v-12h3a3 3 0 0 1 3 3v1h-2a2 2 0 0 0 -2 2v4a2 2 0 0 0 2 2h2v7a3 3 0 0 1 -3 3 1 1 0 0 0 0 2 5 5 0 0 0 5-5v-16a5 5 0 0 0 -5-5zm-49 8v4h-2v-4zm3-14a1 1 0 0 1 -1-1v-4a1 1 0 0 1 1-1h1v6zm22 9a2 2 0 0 1 -2-2h4a2 2 0 0 1 -2 2zm6-4h-12v-2h12zm-4-12v8h-4v-8zm-7-11v-3a1 1 0 0 1 1-1h8a1 1 0 0 1 1 1v3zm27 12a1 1 0 0 1 1 1v4a1 1 0 0 1 -1 1h-1v-6zm3 24v-4h2v4z"/></g></svg>