<svg id="Fill_Outline" height="512" viewBox="0 0 64 64" width="512" xmlns="http://www.w3.org/2000/svg" data-name="Fill Outline"><g id="Stroke_copy" data-name="Stroke copy"><path d="m37 22h4a0 0 0 0 1 0 0v29a2 2 0 0 1 -2 2 2 2 0 0 1 -2-2v-29a0 0 0 0 1 0 0z" fill="#4daf4d"/><path d="m41 25a0 0 0 0 1 0 0v11a0 0 0 0 1 0 0 2 2 0 0 1 -2-2v-7a2 2 0 0 1 2-2z" fill="#7ecf7e"/><path d="m22 22a17 17 0 0 1 34 0z" fill="#9ed8ec"/><path d="m33.7 5.85a17 17 0 0 0 -11.7 16.15h32.5a21.49 21.49 0 0 1 -20.8-16.15z" fill="#6bbeda"/><path d="m32 22c0-9.39 3.13-17 7-17s7 7.61 7 17z" fill="#ff9b9b"/><path d="m34.64 8.72c-1.64 3.12-2.64 7.9-2.64 13.28h14c0-.6 0-1.19 0-1.77a21.57 21.57 0 0 1 -11.36-11.51z" fill="#db6060"/><path d="m61 51-6.45-2.76a19.82 19.82 0 0 0 -15.18-.19 19.87 19.87 0 0 1 -14.74 0 19.82 19.82 0 0 0 -15.18.19l-6.45 2.76v10h58z" fill="#ffd879"/><path d="m39.5 56a20.28 20.28 0 0 1 -14.88 0 18.37 18.37 0 0 0 -3.12-.95 12.11 12.11 0 0 1 -8.79-7.92 19.08 19.08 0 0 0 -3.26 1.06l-6.45 2.81v10h58v-2l-6.45-2.76a19.81 19.81 0 0 0 -15.05-.24z" fill="#ffe5a7"/><circle cx="11" cy="11" fill="#ffe5a7" r="4"/><path d="m57.54 25.41-7.85 13.59h-29.69v4h32l9-15.59z" fill="#9ed8ec"/><path d="m46 43h4a0 0 0 0 1 0 0v8a2 2 0 0 1 -2 2 2 2 0 0 1 -2-2v-8a0 0 0 0 1 0 0z" fill="#2791b4"/><path d="m50.54 30.07-2.85 4.93h-18.69a4 4 0 0 0 -4 4h25l6-10.39a4 4 0 0 0 -5.46 1.46z" fill="#ff9b9b"/><path d="m25 43h4a0 0 0 0 1 0 0v8a2 2 0 0 1 -2 2 2 2 0 0 1 -2-2v-8a0 0 0 0 1 0 0z" fill="#2791b4"/><path d="m54.14 28.09-3.41 5.91a6 6 0 0 1 -5.19 3h-20a4 4 0 0 0 -.54 2h25l6-10.39a3.93 3.93 0 0 0 -1.86-.52z" fill="#db6060"/><g fill="#6bbeda"><path d="m59.38 26.48-6.65 11.52a6 6 0 0 1 -5.19 3h-27.54v2h32l9-15.59z"/><path d="m50 45a0 0 0 0 1 0 0v6a2 2 0 0 1 -2 2 0 0 0 0 1 0 0v-6a2 2 0 0 1 2-2z"/><path d="m29 45a0 0 0 0 1 0 0v6a2 2 0 0 1 -2 2 0 0 0 0 1 0 0v-6a2 2 0 0 1 2-2z"/></g></g><g id="Outline_copy" fill="#04485b" data-name="Outline copy"><path d="m61.39 50.08-6.39-2.76a20.65 20.65 0 0 0 -4-1.22v-2.1h1a1 1 0 0 0 .87-.5l1.15-2a1 1 0 1 0 -1.73-1l-.87 1.5h-30.42v-2h28.69a1 1 0 0 0 .87-.5l7.34-12.72 1.73 1-5 8.72a1 1 0 1 0 1.73 1l5.54-9.59a1 1 0 0 0 -.37-1.36l-3.46-2a1 1 0 0 0 -.76-.1 1 1 0 0 0 -.61.46l-1.36 2.36a5 5 0 0 0 -5.64 2.3l-2.59 4.43h-18.11a5 5 0 0 0 -4.9 4h-4.1a1 1 0 0 0 -1 1v4a1 1 0 0 0 1 1h4v2.78a20.64 20.64 0 0 0 -14.95.54l-6.44 2.76a1 1 0 0 0 .39 1.92 1 1 0 0 0 .39-.08l6.45-2.76a18.71 18.71 0 0 1 14.16-.27v2.11a3 3 0 0 0 6 0v-.66a20 20 0 0 0 2 .11 20.66 20.66 0 0 0 7.74-1.45 19 19 0 0 1 5.26-1.25v3.25a3 3 0 0 0 6 0v-2.86a17.69 17.69 0 0 1 3.16 1l6.45 2.76a1 1 0 0 0 .39.1 1 1 0 0 0 .39-1.92zm-32.39-14.08h18.69a1 1 0 0 0 .87-.5l2.84-4.93a3 3 0 0 1 2.85-1.47l-5.14 8.9h-22.93a3 3 0 0 1 2.82-2zm10 11.12a18.64 18.64 0 0 1 -9 1.21v-1.33a1 1 0 0 0 -2 0v4a1 1 0 0 1 -2 0v-7h19v1.75a20.81 20.81 0 0 0 -6 1.37zm10 3.88a1 1 0 0 1 -2 0v-7h2z"/><path d="m22 23h14v8a1 1 0 0 0 2 0v-8h2v8a1 1 0 0 0 2 0v-8h14a1 1 0 0 0 1-1 18 18 0 0 0 -17-17.95v-1.05a1 1 0 0 0 -2 0v1a18 18 0 0 0 -17 18 1 1 0 0 0 1 1zm33-2h-22c.22-8.89 3.24-15 6-15s5.12 5.2 5.8 12.1a1 1 0 1 0 2-.2c-.5-4.9-1.8-8.9-3.6-11.33a16 16 0 0 1 11.8 14.43zm-20.23-14.42c-2.18 2.94-3.61 8.16-3.77 14.42h-8a16 16 0 0 1 11.77-14.42z"/><path d="m11 16a5 5 0 1 0 -5-5 5 5 0 0 0 5 5zm0-8a3 3 0 1 1 -3 3 3 3 0 0 1 3-3z"/><circle cx="11" cy="3" r="1"/><circle cx="11" cy="19" r="1"/><circle cx="3" cy="11" r="1"/><circle cx="19" cy="11" r="1"/><path d="m17.36 6.05a1 1 0 1 0 -1.41 0 1 1 0 0 0 1.41 0z"/><path d="m4.64 16a1 1 0 1 0 1.41 0 1 1 0 0 0 -1.41 0z"/><path d="m6.05 6.05a1 1 0 1 0 -1.41 0 1 1 0 0 0 1.41 0z"/><path d="m16 16a1 1 0 1 0 1.41 0 1 1 0 0 0 -1.41 0z"/></g></svg>