<svg id="appointment" enable-background="new 0 0 300 300" height="512" viewBox="0 0 300 300" width="512" xmlns="http://www.w3.org/2000/svg"><path d="m245.973 138.134c.001-.048.027-.087.027-.134v-48-33.133c0-12.609-10.258-22.867-22.867-22.867h-49.133v-8c0-4.422-3.578-8-8-8s-8 3.578-8 8v8h-48v-8c0-4.422-3.578-8-8-8s-8 3.578-8 8v8h-49.133c-12.609 0-22.867 10.258-22.867 22.867v33.133 127.984c0 13.243 10.773 24.016 24.016 24.016h48.289c4.422 0 8-3.578 8-8s-3.578-8-8-8h-48.289c-4.422 0-8.016-3.594-8.016-8.016v-119.984h192v30.727c-9.81-4.301-20.621-6.727-32-6.727-44.109 0-80 35.891-80 80s35.891 80 80 80 80-35.891 80-80c0-26.102-12.625-49.254-32.027-63.866zm-207.973-56.134v-25.133c0-3.789 3.078-6.867 6.867-6.867h49.133v8c0 4.422 3.578 8 8 8s8-3.578 8-8v-8h48v8c0 4.422 3.578 8 8 8s8-3.578 8-8v-8h49.133c3.789 0 6.867 3.078 6.867 6.867v25.133zm160 184c-35.289 0-64-28.711-64-64s28.711-64 64-64 64 28.711 64 64-28.711 64-64 64z"/><path d="m214.5 226.5-40-40 12-12-20-20c-17.121 17.121-13.091 48.909 9 71s53.879 26.121 71 9l-20-20z" fill="#18c2c6"/></svg>