<svg id="Fill_Outline" height="512" viewBox="0 0 64 64" width="512" xmlns="http://www.w3.org/2000/svg" data-name="Fill Outline"><g id="Stroke_copy" data-name="Stroke copy"><circle cx="32" cy="23" fill="#9ed8ec" r="15"/><path d="m38 32.5a15 15 0 0 1 -12.74-22.89 15 15 0 1 0 19.48 21.28 15 15 0 0 1 -6.74 1.61z" fill="#6bbeda"/><g fill="#7ecf7e"><path d="m24 20 4-6-5.38-2.69a15 15 0 0 0 .23 23.56l8.15-10.87z"/><path d="m37 14 3.1-3.61a14.91 14.91 0 0 0 -7.72-2.39l.62 5z"/><path d="m44.61 14.9-7.61 4.1 4 4-4 8 6.12 2a14.93 14.93 0 0 0 1.49-18.1z"/></g><path d="m23 17.5a14.89 14.89 0 0 1 1.05-5.5l-1.43-.71a15 15 0 0 0 .23 23.56l4.86-6.48a14.91 14.91 0 0 1 -4.71-10.87z" fill="#4daf4d"/><path d="m43.12 33a15.67 15.67 0 0 0 1.63-2.16 14.63 14.63 0 0 1 -4 1.36z" fill="#4daf4d"/><rect fill="#9ed8ec" height="28" rx="3" width="58" x="3" y="28"/><path d="m9 38v-10h-3a3 3 0 0 0 -3 3v22a3 3 0 0 0 3 3h52a3 3 0 0 0 3-3v-3h-40a12 12 0 0 1 -12-12z" fill="#6bbeda"/><path d="m6 28h52a3 3 0 0 1 3 3v1a0 0 0 0 1 0 0h-58a0 0 0 0 1 0 0v-1a3 3 0 0 1 3-3z" fill="#ff9b9b"/><path d="m51 50a1.09 1.09 0 0 1 -1.08-1l-.77-10a1.86 1.86 0 0 1 1.85-2 1.86 1.86 0 0 1 1.85 2l-.77 10a1.09 1.09 0 0 1 -1.08 1z" fill="#ffd879"/><path d="m14 36h8v4h-8z" fill="#4daf4d"/><path d="m14 48h4v4h-4z" fill="#4daf4d"/><path d="m6 28h3a0 0 0 0 1 0 0v4a0 0 0 0 1 0 0h-6a0 0 0 0 1 0 0v-1a3 3 0 0 1 3-3z" fill="#db6060"/><path d="m18 49.61a12 12 0 0 1 -3.63-1.61h-.37v4h4z" fill="#157a15"/></g><g id="Outline_copy" fill="#04485b" data-name="Outline copy"><path d="m58 27h-52a4 4 0 0 0 -4 4v22a4 4 0 0 0 4 4h18a1 1 0 0 0 0-2h-18a2 2 0 0 1 -2-2v-22a2 2 0 0 1 2-2h34v2h-33a1 1 0 0 0 0 2h33v22h-12a1 1 0 0 0 0 2h30a4 4 0 0 0 4-4v-22a4 4 0 0 0 -4-4zm2 26a2 2 0 0 1 -2 2h-16v-22h15a1 1 0 0 0 0-2h-15v-2h16a2 2 0 0 1 2 2z"/><path d="m10 37h-3a1 1 0 0 0 0 2h3a1 1 0 0 0 0-2z"/><path d="m10 41h-3a1 1 0 0 0 0 2h3a1 1 0 0 0 0-2z"/><path d="m10 45h-3a1 1 0 0 0 0 2h3a1 1 0 0 0 0-2z"/><path d="m10 49h-3a1 1 0 0 0 0 2h3a1 1 0 0 0 0-2z"/><path d="m53.72 40.71.12-1.64a2.87 2.87 0 0 0 -.75-2.16 3 3 0 0 0 -4.18 0 2.87 2.87 0 0 0 -.75 2.16l.12 1.64-4 3.55a1 1 0 0 0 -.07 1.41 1 1 0 0 0 .79.33 1 1 0 0 0 .67-.26l2.81-2.52.45 5.86s0 .06 0 .09l-1.49 1a1 1 0 1 0 1.1 1.66l1.57-1a1.95 1.95 0 0 0 1.76 0l1.57 1a.94.94 0 0 0 .56.17 1 1 0 0 0 .55-1.83l-1.49-1s0-.06 0-.09l.45-5.86 2.81 2.52a1 1 0 0 0 .68.26 1 1 0 0 0 .74-.33 1 1 0 0 0 -.07-1.41zm-3.34-2.44a.85.85 0 0 1 .62-.27.89.89 0 0 1 .63.27.86.86 0 0 1 .22.65l-.7 9.1a1.5 1.5 0 0 0 -.3 0l-.7-9.1a.83.83 0 0 1 .23-.65z"/><path d="m23 36a1 1 0 0 0 -1-1h-8a1 1 0 0 0 -1 1v4a1 1 0 0 0 1 1h8a1 1 0 0 0 1-1zm-2 3h-6v-2h6z"/><path d="m18 49a1 1 0 0 0 0-2h-4a1 1 0 0 0 -1 1v4a1 1 0 0 0 1 1h4a1 1 0 0 0 0-2h-3v-2z"/><path d="m23 44a1 1 0 0 0 -1-1h-8a1 1 0 0 0 0 2h8a1 1 0 0 0 1-1z"/><path d="m37 35h-8a1 1 0 0 0 0 2h8a1 1 0 0 0 0-2z"/><path d="m28 46a1 1 0 0 0 2 0v-3a1 1 0 0 0 -2 0z"/><path d="m34 46v-3a1 1 0 0 0 -2 0v3a1 1 0 0 0 2 0z"/><path d="m38 43a1 1 0 0 0 -2 0v3a1 1 0 0 0 2 0z"/><path d="m30 51a1 1 0 0 0 1 1h6a1 1 0 0 0 0-2h-6a1 1 0 0 0 -1 1z"/><path d="m21.53 7.15a19 19 0 0 1 29.47 15.85 1 1 0 0 0 2 0 21 21 0 0 0 -32.58-17.51 1 1 0 1 0 1.11 1.66z"/><path d="m12 24a1 1 0 0 0 1-1 18.9 18.9 0 0 1 3.15-10.47 1 1 0 1 0 -1.66-1.11 20.94 20.94 0 0 0 -3.49 11.58 1 1 0 0 0 1 1z"/><path d="m46.89 25h.11a1 1 0 0 0 1-.93c0-.35 0-.71 0-1.07a15.92 15.92 0 0 0 -2.5-8.55s0 0 0 0a16 16 0 0 0 -23.5-3.93l-.06.05a15.94 15.94 0 0 0 -5.94 12.43c0 .36 0 .72.05 1.07a1 1 0 1 0 2-.14c0-.31 0-.62 0-.93a14 14 0 0 1 4.77-10.5l3.77 1.89-3.37 5.06a.94.94 0 0 0 -.14.78 1 1 0 0 0 .47.64l7 4a1 1 0 0 0 1-1.74l-6.07-3.47 3.4-5.11a1 1 0 0 0 .14-.81 1 1 0 0 0 -.52-.63l-3.89-1.95a13.92 13.92 0 0 1 6.89-2.16l.5 4.12a1 1 0 0 0 .75.85l4 1 .25.03a1 1 0 0 0 .76-.35l2.51-2.92a14 14 0 0 1 2.87 2.83l-6.61 3.56a1 1 0 0 0 -.24 1.59l3.39 3.39-.22.48a1 1 0 0 0 .48 1.33 1.07 1.07 0 0 0 .43.09 1 1 0 0 0 .9-.58l.52-1.11a1 1 0 0 0 -.2-1.13l-2.93-2.94 5.59-3a14 14 0 0 1 1.75 6.76v.93a1 1 0 0 0 .89 1.07zm-10.25-12.12-2.73-.68-.39-3.11a13.73 13.73 0 0 1 5 1.55z"/></g></svg>