<svg id="book-agneda" enable-background="new 0 0 300 300" height="512" viewBox="0 0 300 300" width="512" xmlns="http://www.w3.org/2000/svg"><path d="m237.992 30h-32-6.047-121.937c-11.031 0-20.008 8.977-20.008 20.008v11.992h-16v16h16v16h-16v16h16v16h-16v16h16v16h-16v16h16v16h-16v16h16v16h-16v16h16v11.992c0 11.031 8.977 20.008 20.008 20.008h127.984 32c11.031 0 20.008-8.977 20.008-20.008v-199.984c0-11.031-8.977-20.008-20.008-20.008zm-163.992 219.992v-11.992h16v-16h-16v-16h16v-16h-16v-16h16v-16h-16v-16h16v-16h-16v-16h16v-16h-16v-16h16v-16h-16v-11.992c0-2.211 1.797-4.008 4.008-4.008h121.938 6.047c2.211 0 4.008 1.797 4.008 4.008v199.984c0 2.211-1.797 4.008-4.008 4.008h-127.985c-2.211 0-4.008-1.797-4.008-4.008zm168 0c0 2.211-1.797 4.008-4.008 4.008h-12.397c.265-1.295.405-2.635.405-4.008v-199.984c0-1.373-.141-2.713-.405-4.008h12.397c2.211 0 4.008 1.797 4.008 4.008z"/><path d="m200.102 163.766c-4.295-14.781-15.641-26.471-30.175-32.732 4.962-5.639 8.073-12.948 8.073-21.034 0-17.648-14.352-32-32-32s-32 14.352-32 32c0 8.086 3.111 15.395 8.073 21.033-14.534 6.262-25.88 17.951-30.175 32.732-.703 2.422-.227 5.023 1.281 7.039 1.516 2.008 3.883 3.195 6.398 3.195h92.844c2.516 0 4.883-1.188 6.398-3.195 1.509-2.015 1.986-4.616 1.283-7.038zm-70.102-53.766c0-8.82 7.18-16 16-16s16 7.18 16 16-7.18 16-16 16-16-7.18-16-16zm-17.656 48c7.188-9.773 19.734-16 33.656-16s26.469 6.227 33.656 16z" fill="#18c2c6"/><path d="m162 198h-40c-4.422 0-8-3.578-8-8s3.578-8 8-8h40c4.422 0 8 3.578 8 8s-3.578 8-8 8z"/><path d="m154 222h-24c-4.422 0-8-3.578-8-8s3.578-8 8-8h24c4.422 0 8 3.578 8 8s-3.578 8-8 8z"/></svg>