<svg id="browser-speack" enable-background="new 0 0 300 300" height="512" viewBox="0 0 300 300" width="512" xmlns="http://www.w3.org/2000/svg"><path d="m211.94 158.043c-7.2-28.068-32.58-48.043-61.94-48.043-25.019 0-47.889 14.722-58.264 37.5-.004.009-.013.014-.017.023-1.535 3.371-2.667 6.914-3.591 10.513-10.027.195-18.128 8.375-18.128 18.448v35.031c0 10.196 8.289 18.485 18.484 18.485h21.516c4.422 0 8-3.578 8-8v-56c0-4.422-3.578-8-8-8h-5.195c.458-1.293.908-2.59 1.476-3.836.002-.004.001-.01.003-.014 7.782-17.098 24.937-28.15 43.716-28.15 20.587 0 38.51 13.109 45.186 32h-5.186c-4.422 0-8 3.578-8 8v56c0 4.422 3.578 8 8 8h21.516c10.195 0 18.484-8.289 18.484-18.484v-35.031c0-10.05-8.064-18.21-18.06-18.442zm-109.94 55.957h-13.516c-1.367 0-2.484-1.117-2.484-2.484v-35.031c0-1.367 1.117-2.484 2.484-2.484h13.516zm112-2.484c0 1.367-1.117 2.484-2.484 2.484h-13.516v-40h13.516c1.367 0 2.484 1.117 2.484 2.484z" fill="#18c2c6"/><path d="m262 30h-224c-4.422 0-8 3.578-8 8v224c0 4.422 3.578 8 8 8h224c4.422 0 8-3.578 8-8v-224c0-4.422-3.578-8-8-8zm-8 16v32h-208v-32zm-208 208v-160h208v160z"/><path d="m54 54h16v16h-16z"/><path d="m78 54h16v16h-16z"/><path d="m102 54h16v16h-16z"/><path d="m126 230h48v16h-48z"/></svg>