<svg id="button" enable-background="new 0 0 300 300" height="512" viewBox="0 0 300 300" width="512" xmlns="http://www.w3.org/2000/svg"><path d="m247.945 39.535h-32-163.89c-16.571 0-30.055 13.485-30.055 30.055v107.89c0 16.57 13.484 30.055 30.055 30.055h92.345l6.616 37.477c.516 2.938 2.625 5.344 5.469 6.242 2.836.906 5.945.133 8.062-1.977l16.969-16.977 20.094 20.102c5.383 5.375 12.438 8.062 19.5 8.062s14.133-2.688 19.508-8.062l6.25-6.25c10.621-10.637 10.699-27.832.318-38.617h.76c16.57 0 30.055-13.484 30.055-30.055v-107.89c-.001-16.57-13.485-30.055-30.056-30.055zm-195.89 152c-7.75 0-14.055-6.305-14.055-14.055v-107.89c0-7.75 6.305-14.055 14.055-14.055h163.891c7.75 0 14.055 6.305 14.055 14.055v85.288l-86.695-15.304c-2.555-.477-5.195.375-7.047 2.219-1.844 1.844-2.68 4.477-2.219 7.047l7.537 42.695zm183.5 43.305-6.25 6.25c-4.508 4.5-11.859 4.531-16.383 0l-25.75-25.758c-1.5-1.5-3.531-2.344-5.656-2.344s-4.156.844-5.656 2.344l-11.766 11.766-12.312-69.781 69.781 12.312-11.766 11.766c-1.5 1.5-2.344 3.531-2.344 5.656s.844 4.156 2.344 5.656l25.758 25.75c4.507 4.516 4.507 11.867 0 16.383zm26.445-57.36c0 7.75-6.305 14.055-14.055 14.055h-5.499c2.274-4.286 3.554-9.09 3.554-14.055v-12.52c.029-.424.039-.842 0-1.27v-94.1c0-5.104-1.398-9.84-3.653-14.055h5.598c7.75 0 14.055 6.305 14.055 14.055z"/><g fill="#18c2c6"><path d="m134 111.535c-4.422 0-8-3.578-8-8v-24c0-4.422 3.578-8 8-8s8 3.578 8 8v24c0 4.422-3.578 8-8 8z"/><path d="m110 127.535h-24c-4.422 0-8-3.578-8-8s3.578-8 8-8h24c4.422 0 8 3.578 8 8s-3.578 8-8 8z"/><path d="m182 127.535h-24c-4.422 0-8-3.578-8-8s3.578-8 8-8h24c4.422 0 8 3.578 8 8s-3.578 8-8 8z"/><path d="m158 103.535c-2.047 0-4.094-.781-5.656-2.344-3.125-3.125-3.125-8.188 0-11.312l8-8c3.125-3.125 8.188-3.125 11.312 0s3.125 8.188 0 11.312l-8 8c-1.562 1.563-3.609 2.344-5.656 2.344z"/><path d="m110 103.535c-2.047 0-4.094-.781-5.656-2.344l-8-8c-3.125-3.125-3.125-8.188 0-11.312s8.188-3.125 11.312 0l8 8c3.125 3.125 3.125 8.188 0 11.312-1.562 1.563-3.609 2.344-5.656 2.344z"/><path d="m102 159.535c-2.047 0-4.094-.781-5.656-2.344-3.125-3.125-3.125-8.188 0-11.312l8-8c3.125-3.125 8.188-3.125 11.312 0s3.125 8.188 0 11.312l-8 8c-1.562 1.563-3.609 2.344-5.656 2.344z"/></g></svg>