<svg id="call" enable-background="new 0 0 300 300" height="512" viewBox="0 0 300 300" width="512" xmlns="http://www.w3.org/2000/svg"><path d="m198.002 144.666c-17.85-7.15-32.335-20.788-40.546-38.176l-2.121-4.49 10.716-10.716c1.446-1.446 1.446-3.789 0-5.235l-15.919-15.919c-1.585-1.585-4.209-1.409-5.589.357-14.28 18.279-8.769 49.284 13.458 71.512s53.233 27.738 71.512 13.458c1.766-1.38 1.942-4.004.357-5.589l-15.919-15.919c-1.446-1.446-3.789-1.446-5.235 0z" fill="#18c2c6"/><path d="m243.681 55.234c-19.414-19.078-46.219-27.992-73.359-24.484-38.672 5-70.438 36.68-75.531 75.328-3.109 23.586 2.977 46.586 17.172 65.188l-5.539 31.508c-.5 2.867.594 5.781 2.867 7.609 1.445 1.172 3.219 1.773 5.016 1.773 1.023 0 2.047-.195 3.031-.594l30.578-12.508c14.477 6.109 30.234 8.234 45.805 6.164 39.492-5.266 71.336-37.719 75.719-77.156 3.03-27.219-6.36-53.765-25.759-72.828zm9.852 71.063c-3.578 32.234-29.625 58.75-61.922 63.063-13.703 1.828-27.594-.328-40.156-6.242-2.039-.945-4.359-1.016-6.438-.164l-20.328 8.312 3.656-20.781c.406-2.312-.227-4.688-1.727-6.492-12.984-15.625-18.656-35.445-15.969-55.82 4.164-31.586 30.125-57.469 61.719-61.547 22.297-2.852 44.211 4.406 60.094 20.016 15.876 15.6 23.555 37.342 21.071 59.655z"/><circle cx="66.002" cy="258" r="12"/><circle cx="38.002" cy="230" r="8"/><circle cx="106.002" cy="242" r="20"/></svg>