<svg id="Fill_Outline" height="512" viewBox="0 0 64 64" width="512" xmlns="http://www.w3.org/2000/svg" data-name="Fill Outline"><g id="Stroke_copy" data-name="Stroke copy"><path d="m43 21-18 32h36z" fill="#4daf4d"/><path d="m58.77 49-15.77-28 5.51 17.63a16 16 0 0 0 10.26 10.37z" fill="#7ecf7e"/><path d="m43 33-7 20h7z" fill="#2791b4"/><path d="m43 33 4 16-4 4z" fill="#9ed8ec"/><path d="m18 15a5 5 0 0 1 -3-9 7 7 0 1 0 7 7 5 5 0 0 1 -4 2z" fill="#ffe5a7"/><circle cx="7" cy="57" fill="#ffc230" r="4"/><circle cx="15" cy="57" fill="#ffc230" r="4"/><path d="m18 46a7 7 0 0 1 -14 0c0-7 7-13 7-13s7 6 7 13z" fill="#ff9b9b"/><path d="m11 53a3 3 0 0 1 -3-3c0-2.53 1.48-5.15 3-7.13 1.52 2 3 4.6 3 7.13a3 3 0 0 1 -3 3z" fill="#db6060"/><g fill="#ffd879"><circle cx="15" cy="57" r="2"/><circle cx="7" cy="57" r="2"/><path d="m17 18a7 7 0 0 1 -5.85-10.85 7 7 0 1 0 9.7 9.7 7.06 7.06 0 0 1 -3.85 1.15z"/></g></g><g id="Outline_copy" fill="#04485b" data-name="Outline copy"><path d="m61.87 52.51-12.36-22 10.72 13.12a1 1 0 1 0 1.54-1.26l-18-22a1 1 0 0 0 -1.54 0l-22 29a1 1 0 0 0 .2 1.4 1 1 0 0 0 .6.2 1 1 0 0 0 .8-.4l13.17-17.32-10.87 19.26a1 1 0 0 0 0 1 1 1 0 0 0 .87.49h3a1 1 0 0 0 0-2h-1.29l16.29-29 16.29 29h-4.29a1 1 0 0 0 0 2h6a1 1 0 0 0 .86-.5 1 1 0 0 0 .01-.99z"/><path d="m51 52h-5.59l2.3-2.29a1 1 0 0 0 .26-1l-4-16a1 1 0 0 0 -1.9-.09l-6.78 19.38h-3.29a1 1 0 0 0 0 2h4a1 1 0 0 0 .94-.67l5.06-14.45v14.12a1 1 0 0 0 1 1h8a1 1 0 0 0 0-2zm-7-1.41v-9.47l1.89 7.57z"/><path d="m15 21a8 8 0 0 0 8-8.08 1 1 0 0 0 -.71-.9 1 1 0 0 0 -1.09.36 4 4 0 1 1 -5.58-5.58 1 1 0 0 0 .38-1.11 1 1 0 0 0 -1-.69 8 8 0 0 0 0 16zm-2.46-13.48a6 6 0 0 0 5.46 8.48 6 6 0 0 0 2.47-.53 6 6 0 1 1 -7.93-8z"/><path d="m25 6h1v1a1 1 0 0 0 2 0v-1h1a1 1 0 0 0 0-2h-1v-1a1 1 0 0 0 -2 0v1h-1a1 1 0 0 0 0 2z"/><path d="m32 18h1v1a1 1 0 0 0 2 0v-1h1a1 1 0 0 0 0-2h-1v-1a1 1 0 0 0 -2 0v1h-1a1 1 0 0 0 0 2z"/><path d="m16.12 52.14a8 8 0 0 0 2.88-6.14c0-7.37-7-13.5-7.35-13.76a1 1 0 0 0 -1.3 0c-.3.26-7.35 6.39-7.35 13.76a8 8 0 0 0 2.88 6.14 5 5 0 1 0 5.12 7.86 5 5 0 1 0 5.12-7.83zm-7.12-2.14a10.32 10.32 0 0 1 2-5.41 10.35 10.35 0 0 1 2 5.41 2 2 0 0 1 -4 0zm-4-4c0-5.23 4.32-10 6-11.63 1.68 1.63 6 6.4 6 11.63a6 6 0 0 1 -2 4.51 4.4 4.4 0 0 0 0-.51c0-2.94-1.74-5.83-3.21-7.74a1 1 0 0 0 -1.58 0c-1.47 1.91-3.21 4.8-3.21 7.74a4.4 4.4 0 0 0 0 .51 6 6 0 0 1 -2-4.51zm2 14a3 3 0 0 1 -2.82-2h2.82a1 1 0 0 0 0-2h-2.82a3 3 0 1 1 2.82 4zm8 0a3 3 0 0 1 -1-5.82v2.82a1 1 0 0 0 2 0v-2.82a3 3 0 0 1 -1 5.82z"/></g></svg>