<svg id="Fill_Outline" height="512" viewBox="0 0 64 64" width="512" xmlns="http://www.w3.org/2000/svg" data-name="Fill Outline"><g id="Stroke_copy" data-name="Stroke copy"><path d="m30 7h4v6h-4z" fill="#6bbeda"/><path d="m32 7h2a0 0 0 0 1 0 0v4a0 0 0 0 1 0 0 2 2 0 0 1 -2-2v-2a0 0 0 0 1 0 0z" fill="#9ed8ec"/><path d="m14 37h36v24h-36z" fill="#9ed8ec"/><path d="m20 40v-3h-6v24h36v-5h-14a16 16 0 0 1 -16-16z" fill="#6bbeda"/><path d="m50 47h9v14h-9z" fill="#6bbeda"/><path d="m5 47h9v14h-9z" fill="#6bbeda"/><path d="m19 33h26v4h-26z" fill="#ffd879"/><path d="m22 21h20v12h-20z" fill="#9ed8ec"/><path d="m25 22v-1h-3v12h20v-3h-9a8 8 0 0 1 -8-8z" fill="#6bbeda"/><path d="m32 11a8 8 0 0 1 8 8v2a0 0 0 0 1 0 0h-16a0 0 0 0 1 0 0v-2a8 8 0 0 1 8-8z" fill="#ffe5a7"/><path d="m26 25h4v4h-4z" fill="#7ecf7e"/><path d="m26 29h3.13a8.12 8.12 0 0 1 -3.13-3.13z" fill="#4daf4d"/><path d="m34 25h4v4h-4z" fill="#7ecf7e"/><path d="m18 41h4v16h-4z" fill="#4daf4d"/><path d="m26 41h4v16h-4z" fill="#4daf4d"/><path d="m34 41h4v16h-4z" fill="#4daf4d"/><path d="m42 41h4v16h-4z" fill="#4daf4d"/><path d="m50 43h11v4h-11z" fill="#ffd879"/><path d="m3 43h11v4h-11z" fill="#ffd879"/><path d="m53 43h8a0 0 0 0 1 0 0v2a0 0 0 0 1 0 0h-6a2 2 0 0 1 -2-2 0 0 0 0 1 0 0z" fill="#ffe5a7"/><path d="m3 43h8a0 0 0 0 1 0 0 2 2 0 0 1 -2 2h-6a0 0 0 0 1 0 0v-2a0 0 0 0 1 0 0z" fill="#ffe5a7"/><path d="m22 33h23a0 0 0 0 1 0 0v2a0 0 0 0 1 0 0h-21a2 2 0 0 1 -2-2 0 0 0 0 1 0 0z" fill="#ffe5a7"/><path d="m38.5 19a8.5 8.5 0 0 1 -8.5-7.75 8 8 0 0 0 -6 7.75v2h16v-2c0-.05 0-.09 0-.14a8.1 8.1 0 0 1 -1.5.14z" fill="#ffd879"/><g fill="#7ecf7e"><path d="m22 41h-1.95a15.89 15.89 0 0 0 1.95 6.74z"/><path d="m30 41h-4v11.48a16.18 16.18 0 0 0 4 2.35z"/><path d="m38 56v-15h-4v14.86a16.52 16.52 0 0 0 2 .14z"/><path d="m42 41h4v15h-4z"/></g></g><g id="Outline_copy" fill="#04485b" data-name="Outline copy"><path d="m30 24h-4a1 1 0 0 0 -1 1v4a1 1 0 0 0 1 1h4a1 1 0 0 0 1-1v-4a1 1 0 0 0 -1-1zm-1 4h-2v-2h2z"/><path d="m38 26a1 1 0 0 0 0-2h-4a1 1 0 0 0 -1 1v4a1 1 0 0 0 1 1h4a1 1 0 0 0 0-2h-3v-2z"/><path d="m22 40h-4a1 1 0 0 0 -1 1v16a1 1 0 0 0 2 0v-15h2v15a1 1 0 0 0 2 0v-16a1 1 0 0 0 -1-1z"/><path d="m30 40h-4a1 1 0 0 0 -1 1v16a1 1 0 0 0 2 0v-15h2v15a1 1 0 0 0 2 0v-16a1 1 0 0 0 -1-1z"/><path d="m38 40h-4a1 1 0 0 0 -1 1v16a1 1 0 0 0 2 0v-15h2v15a1 1 0 0 0 2 0v-16a1 1 0 0 0 -1-1z"/><path d="m46 40h-4a1 1 0 0 0 -1 1v16a1 1 0 0 0 2 0v-15h2v15a1 1 0 0 0 2 0v-16a1 1 0 0 0 -1-1z"/><path d="m55 50a1 1 0 0 0 -1 1v6a1 1 0 0 0 2 0v-6a1 1 0 0 0 -1-1z"/><path d="m9 50a1 1 0 0 0 -1 1v6a1 1 0 0 0 2 0v-6a1 1 0 0 0 -1-1z"/><path d="m61 42h-10v-5a1 1 0 0 0 -1-1h-4v-3a1 1 0 0 0 -1-1h-2v-10h1a1 1 0 0 0 0-2h-19v-1a7 7 0 0 1 13.77-1.75 1 1 0 1 0 1.94-.5 9 9 0 0 0 -5.71-6.23v-3.52a1 1 0 0 0 -1-1h-1v-3a1 1 0 0 0 -2 0v3h-1a1 1 0 0 0 -1 1v3.53a9 9 0 0 0 -6 8.47v1h-3a1 1 0 0 0 0 2h1v10h-2a1 1 0 0 0 -1 1v3h-4a1 1 0 0 0 -1 1v5h-10a1 1 0 0 0 -1 1v4a1 1 0 0 0 1 1h1v13a1 1 0 0 0 2 0v-13h7v13a1 1 0 0 0 2 0v-23h34v23a1 1 0 0 0 2 0v-13h7v13a1 1 0 0 0 2 0v-13h1a1 1 0 0 0 1-1v-4a1 1 0 0 0 -1-1zm-30-34h2v2.06c-.33 0-.66-.06-1-.06a8.26 8.26 0 0 0 -1 .06zm-27 38v-2h9v2zm19-24h18v10h-18zm-3 14v-2h24v2zm40 10h-9v-2h9z"/></g></svg>