<svg id="call-center" enable-background="new 0 0 300 300" height="512" viewBox="0 0 300 300" width="512" xmlns="http://www.w3.org/2000/svg"><path d="m251.516 174h-29.516c-4.422 0-8-3.578-8-8v-80c0-4.422 3.578-8 8-8h29.516c10.195 0 18.484 8.289 18.484 18.484v59.031c0 10.196-8.289 18.485-18.484 18.485zm-21.516-16h21.516c1.367 0 2.484-1.117 2.484-2.484v-59.032c0-1.367-1.117-2.484-2.484-2.484h-21.516z" fill="#18c2c6"/><path d="m78 174h-29.516c-10.195 0-18.484-8.289-18.484-18.484v-59.032c0-10.195 8.289-18.484 18.484-18.484h29.516c4.422 0 8 3.578 8 8v80c0 4.422-3.578 8-8 8zm-29.516-80c-1.367 0-2.484 1.117-2.484 2.484v59.031c0 1.367 1.117 2.484 2.484 2.484h21.516v-63.999z" fill="#18c2c6"/><path d="m246 262h-56v-32h8.172c17.547 0 31.828-14.281 31.828-31.828v-112.172-19.023c0-24.797-20.18-44.977-44.977-44.977h-71.039-3.984-56c-4.422 0-8 3.578-8 8v19.023c0 17.223 9.745 32.199 24 39.754v109.395c0 17.547 14.281 31.828 31.828 31.828h8.172v32h-56c-4.422 0-8 3.578-8 8s3.578 8 8 8h64 64 64c4.422 0 8-3.578 8-8s-3.578-8-8-8zm-32-195.023v11.023h-48-19.023c-15.977 0-28.977-13-28.977-28.977v-11.023h67.023c15.977 0 28.977 13 28.977 28.977zm-152-28.977h40v11.023c0 11.035 4.012 21.142 10.634 28.977h-21.657c-15.977 0-28.977-13-28.977-28.977zm64 224v-36c0-1.801-.704-3.38-1.707-4.717-.379-4.067-3.688-7.283-7.855-7.283h-14.609c-8.727 0-15.829-7.102-15.829-15.828v-104.464c1.636.181 3.293.292 4.977.292h56 19.023 48v104.172c0 8.727-7.102 15.828-15.828 15.828h-28.953c-4.422 0-8 3.578-8 8s3.578 8 8 8h4.781v32z"/><circle cx="126" cy="134" r="8"/><circle cx="174" cy="134" r="8"/><path d="m174.008 190c3.844 0 7.234-2.773 7.883-6.688.727-4.352-2.219-8.477-6.578-9.203l-45.469-7.578-6.188-6.188c-3.125-3.125-8.188-3.125-11.312 0s-3.125 8.188 0 11.312l8 8c1.18 1.18 2.695 1.961 4.344 2.234l48 8c.445.08.882.111 1.32.111z"/><path d="m166 206h-48c-4.422 0-8 3.578-8 8v8h-38.797c-5.078 0-9.203-4.125-9.203-9.203v-46.797c0-4.422-3.578-8-8-8s-8 3.578-8 8v46.797c0 13.898 11.305 25.203 25.203 25.203h38.797c0 4.422 3.578 8 8 8h48c4.422 0 8-3.578 8-8v-24c0-4.422-3.578-8-8-8zm-8 24h-32v-8h32z" fill="#18c2c6"/></svg>