<svg id="Fill_Outline" height="512" viewBox="0 0 64 64" width="512" xmlns="http://www.w3.org/2000/svg" data-name="Fill Outline"><g id="Stroke_copy" data-name="Stroke copy"><path d="m18 25h35a8 8 0 0 1 8 8v16a8 8 0 0 1 -8 8h-39a8 8 0 0 1 -8-8v-12a12 12 0 0 1 12-12z" fill="#db6060"/><path d="m27 32h33.93a8 8 0 0 0 -7.93-7h-33a7 7 0 0 0 7 7z" fill="#ff9b9b"/><path d="m6 43h2a2 2 0 0 1 2 2 2 2 0 0 1 -2 2h-2a0 0 0 0 1 0 0v-4a0 0 0 0 1 0 0z" fill="#6bbeda"/><path d="m6 43h55a0 0 0 0 1 0 0v6a8 8 0 0 1 -8 8h-39a8 8 0 0 1 -8-8v-6a0 0 0 0 1 0 0z" fill="#9ed8ec"/><g fill="#6bbeda"><path d="m11 43h-5v6a8 8 0 0 0 8 8h39a8 8 0 0 0 8-8h-44a6 6 0 0 1 -6-6z"/><rect height="8" rx="2" width="12" x="27" y="30"/><rect height="8" rx="2" width="12" x="44" y="30"/></g><circle cx="20" cy="57" fill="#157a15" r="4"/><circle cx="48" cy="57" fill="#157a15" r="4"/><circle cx="48" cy="57" fill="#4daf4d" r="2"/><circle cx="20" cy="57" fill="#4daf4d" r="2"/><path d="m23 36v-4a2 2 0 0 0 -2-2h-12.73a11.92 11.92 0 0 0 -2.27 7v1h15a2 2 0 0 0 2-2z" fill="#6bbeda"/><path d="m5 16h56a0 0 0 0 1 0 0 4 4 0 0 1 -4 4h-48a4 4 0 0 1 -4-4 0 0 0 0 1 0 0z" fill="#9ed8ec"/><path d="m12 18a2 2 0 0 1 -2-2h-5a4 4 0 0 0 4 4h48a4 4 0 0 0 3.45-2z" fill="#6bbeda"/><path d="m41 10h10a4 4 0 0 1 4 4v2a0 0 0 0 1 0 0h-18a0 0 0 0 1 0 0v-2a4 4 0 0 1 4-4z" fill="#4daf4d"/><path d="m41 10h11a3 3 0 0 1 3 3 0 0 0 0 1 0 0h-11a3 3 0 0 1 -3-3 0 0 0 0 1 0 0z" fill="#7ecf7e"/><path d="m28 3h6a3 3 0 0 1 3 3v10a0 0 0 0 1 0 0h-12a0 0 0 0 1 0 0v-10a3 3 0 0 1 3-3z" fill="#db6060"/><path d="m28 3h6a3 3 0 0 1 3 3v7a0 0 0 0 1 0 0h-3a6 6 0 0 1 -6-6v-4a0 0 0 0 1 0 0z" fill="#ff9b9b"/><circle cx="31" cy="10" fill="#6bbeda" r="2"/><path d="m18 8h7a0 0 0 0 1 0 0v8a0 0 0 0 1 0 0h-12a0 0 0 0 1 0 0v-3a5 5 0 0 1 5-5z" fill="#ffd879"/><path d="m18 8h4a0 0 0 0 1 0 0v1a5 5 0 0 1 -5 5h-4a0 0 0 0 1 0 0v-1a5 5 0 0 1 5-5z" fill="#ffe5a7"/><rect fill="#db6060" height="4" rx="2" width="10" x="3" y="51"/><path d="m5 51h6a2 2 0 0 1 2 2 0 0 0 0 1 0 0h-6a2 2 0 0 1 -2-2 0 0 0 0 1 0 0z" fill="#ff9b9b"/><path d="m47 30h7a2 2 0 0 1 2 2v3a0 0 0 0 1 0 0h-5a4 4 0 0 1 -4-4v-1a0 0 0 0 1 0 0z" fill="#9ed8ec"/><path d="m30 30h7a2 2 0 0 1 2 2v3a0 0 0 0 1 0 0h-5a4 4 0 0 1 -4-4v-1a0 0 0 0 1 0 0z" fill="#9ed8ec"/><path d="m11 30h10a2 2 0 0 1 2 2v3a0 0 0 0 1 0 0h-8a4 4 0 0 1 -4-4v-1a0 0 0 0 1 0 0z" fill="#9ed8ec"/></g><g id="Outline_copy" fill="#04485b" data-name="Outline copy"><path d="m40 56h-12a1 1 0 0 0 0 2h12a1 1 0 0 0 0-2z"/><path d="m54 24.06v-3.06h3a5 5 0 0 0 5-5 1 1 0 0 0 -1-1h-5v-1a5 5 0 0 0 -5-5v-1a1 1 0 0 0 -2 0v1h-4v-1a1 1 0 0 0 -2 0v1h-2a4.92 4.92 0 0 0 -3 1v-4a4 4 0 0 0 -4-4h-6a4 4 0 0 0 -4 4v1h-1.43l.29-.49a1 1 0 1 0 -1.72-1l-.91 1.49h-2l-1.49-1.67a1 1 0 1 0 -1.48 1.34l.64.72a6 6 0 0 0 -3.9 5.61v2h-7a1 1 0 0 0 -1 1 5 5 0 0 0 5 5h9v3a13 13 0 0 0 -13 13v12a8.55 8.55 0 0 0 .07 1h-.07a3 3 0 0 0 0 6h3.37a9 9 0 0 0 5.63 2h1.1a5 5 0 1 0 0-2h-1.1a6.94 6.94 0 0 1 -1.82-.24 3 3 0 0 0 -1.18-5.76h-3.92a6.85 6.85 0 0 1 -.08-1v-1h1a3 3 0 0 0 2.82-4h46.18a1 1 0 0 0 0-2h-50v-3h14a3 3 0 0 0 3-3v-4a3 3 0 0 0 -3-3h-10.53a11 11 0 0 1 7.53-3h35a7 7 0 0 1 7 7v16a7 7 0 0 1 -7 7h-.1a5 5 0 1 0 0 2h.1a9 9 0 0 0 9-9v-16a9 9 0 0 0 -8-8.94zm-34 29.94a3 3 0 1 1 -3 3 3 3 0 0 1 3-3zm-8-1a1 1 0 0 1 -1 1h-6a1 1 0 0 1 0-2h6a1 1 0 0 1 1 1zm-4-9a1 1 0 0 1 0 2h-1v-2zm14-12v4a1 1 0 0 1 -1 1h-14a10.94 10.94 0 0 1 1.79-6h12.21a1 1 0 0 1 1 1zm30-8h-8v-3h8zm-10-3v3h-10v-3zm12-7v1h-3v-4a3 3 0 0 1 3 3zm-5-3v4h-4v-4zm-8 0h2v4h-5v-1a3 3 0 0 1 3-3zm-15-5a2 2 0 0 1 2-2h6a2 2 0 0 1 2 2v9h-10zm-2 3v4.39l-3.16-3.51.53-.88zm-1.25 6h-5l2-3.33zm-8.75-2a4 4 0 0 1 3.41-3.94l.95 1.06-2.93 4.88h-1.43zm-7.83 4h53.66a3 3 0 0 1 -2.83 2h-48a3 3 0 0 1 -2.83-2zm13.83 4h10v3h-10zm28 39a3 3 0 1 1 3-3 3 3 0 0 1 -3 3z"/><path d="m39 35a1 1 0 0 0 1-1v-2a3 3 0 0 0 -3-3h-8a3 3 0 0 0 -3 3v4a3 3 0 0 0 3 3h8a1 1 0 0 0 0-2h-8a1 1 0 0 1 -1-1v-4a1 1 0 0 1 1-1h8a1 1 0 0 1 1 1v2a1 1 0 0 0 1 1z"/><path d="m46 29a3 3 0 0 0 -3 3v4a3 3 0 0 0 3 3h8a3 3 0 0 0 3-3v-4a3 3 0 0 0 -3-3zm9 3v4a1 1 0 0 1 -1 1h-8a1 1 0 0 1 -1-1v-4a1 1 0 0 1 1-1h8a1 1 0 0 1 1 1z"/><circle cx="48" cy="57" r="1"/><circle cx="20" cy="57" r="1"/><path d="m20 46a1 1 0 0 0 0 2h2a1 1 0 0 0 0-2z"/><path d="m28 48h2a1 1 0 0 0 0-2h-2a1 1 0 0 0 0 2z"/><path d="m31 13a1 1 0 0 0 0-2 1 1 0 1 1 1-1 1 1 0 0 0 2 0 3 3 0 1 0 -3 3z"/></g></svg>