<svg id="cancel-appointment" enable-background="new 0 0 300 300" height="512" viewBox="0 0 300 300" width="512" xmlns="http://www.w3.org/2000/svg"><path d="m239.133 50h-49.133v-8c0-4.422-3.578-8-8-8s-8 3.578-8 8v8h-48v-8c0-4.422-3.578-8-8-8s-8 3.578-8 8v8h-49.133c-12.609 0-22.867 10.258-22.867 22.867v41.133 48 48 48c0 4.422 3.578 8 8 8h104 81.992c16.547 0 30.008-12.945 30.008-28.852v-75.148-48-41.133c0-12.609-10.258-22.867-22.867-22.867zm-97.133 104h-88v-32h88zm-88 16h88v32h-88zm104-48h88v32h-88zm-97.133-56h49.133v8c0 4.422 3.578 8 8 8s8-3.578 8-8v-8h48v8c0 4.422 3.578 8 8 8s8-3.578 8-8v-8h49.133c3.789 0 6.867 3.078 6.867 6.867v33.133h-96-96v-33.133c0-3.789 3.078-6.867 6.867-6.867zm-6.867 152h88v32h-88zm177.992 32h-73.992v-40-40h88v67.148c0 7.086-6.281 12.852-14.008 12.852z"/><path d="m212.419 210 15.729-18.875c2.828-3.398 2.367-8.445-1.023-11.273-3.406-2.82-8.438-2.367-11.273 1.023l-13.852 16.622-13.852-16.622c-2.836-3.391-7.859-3.844-11.273-1.023-3.391 2.828-3.852 7.875-1.023 11.273l15.729 18.875-15.729 18.875c-2.828 3.398-2.367 8.445 1.023 11.273 1.5 1.242 3.312 1.852 5.117 1.852 2.297 0 4.57-.977 6.156-2.875l13.852-16.622 13.852 16.622c1.586 1.898 3.859 2.875 6.156 2.875 1.805 0 3.617-.609 5.117-1.852 3.391-2.828 3.852-7.875 1.023-11.273z" fill="#18c2c6"/></svg>