<svg id="Fill_Outline" height="512" viewBox="0 0 64 64" width="512" xmlns="http://www.w3.org/2000/svg" data-name="Fill Outline"><g id="Stroke_copy" data-name="Stroke copy"><path d="m17 39h30v18h-30z" fill="#6bbeda"/><path d="m47 43v-4h-30v18h30v-4h-17a8 8 0 0 1 -8-8v-2z" fill="#2791b4"/><path d="m12 57h40a2 2 0 0 1 2 2v2a0 0 0 0 1 0 0h-44a0 0 0 0 1 0 0v-2a2 2 0 0 1 2-2z" fill="#db6060"/><path d="m14 11h36v20h-36z" fill="#9ed8ec"/><path d="m27 11h-13v20h33z" fill="#6bbeda"/><circle cx="32" cy="29" fill="#ffd879" r="2"/><circle cx="44" cy="29" fill="#ffd879" r="2"/><circle cx="20" cy="29" fill="#ffd879" r="2"/><circle cx="32" cy="21" fill="#ffd879" r="2"/><circle cx="44" cy="21" fill="#ffe5a7" r="2"/><circle cx="20" cy="21" fill="#ffd879" r="2"/><circle cx="32" cy="13" fill="#ffe5a7" r="2"/><circle cx="44" cy="13" fill="#ffe5a7" r="2"/><circle cx="20" cy="13" fill="#ffd879" r="2"/><path d="m44 12a1 1 0 0 0 -.5.15 1 1 0 0 1 0 1.7 1 1 0 0 0 .5.15 1 1 0 0 0 0-2z" fill="#ffd879"/><path d="m44 20a1 1 0 0 0 -.5.15 1 1 0 0 1 0 1.7 1 1 0 0 0 .5.15 1 1 0 0 0 0-2z" fill="#ffd879"/><path d="m44 28a1 1 0 0 0 -.5.15 1 1 0 0 1 0 1.7 1 1 0 0 0 .5.15 1 1 0 0 0 0-2z" fill="#ffc230"/><path d="m32 12a1 1 0 0 0 -.5.15 1 1 0 0 1 0 1.7 1 1 0 0 0 .5.15 1 1 0 0 0 0-2z" fill="#ffd879"/><g fill="#ffc230"><path d="m32 20a1 1 0 0 0 -.5.15 1 1 0 0 1 0 1.7 1 1 0 0 0 .5.15 1 1 0 0 0 0-2z"/><path d="m32 28a1 1 0 0 0 -.5.15 1 1 0 0 1 0 1.7 1 1 0 0 0 .5.15 1 1 0 0 0 0-2z"/><path d="m20 12a1 1 0 0 0 -.5.15 1 1 0 0 1 0 1.7 1 1 0 0 0 .5.15 1 1 0 0 0 0-2z"/><path d="m20 20a1 1 0 0 0 -.5.15 1 1 0 0 1 0 1.7 1 1 0 0 0 .5.15 1 1 0 0 0 0-2z"/><path d="m20 28a1 1 0 0 0 -.5.15 1 1 0 0 1 0 1.7 1 1 0 0 0 .5.15 1 1 0 0 0 0-2z"/></g><path d="m46 29a2 2 0 0 0 -2-2 2 2 0 0 0 -.82.18l2.64 2.64a2 2 0 0 0 .18-.82z" fill="#ffe5a7"/><path d="m44 28 1 1a1 1 0 0 0 -1-1z" fill="#ffd879"/><path d="m50 17h2a2 2 0 0 1 2 2v4a2 2 0 0 1 -2 2h-2a0 0 0 0 1 0 0v-8a0 0 0 0 1 0 0z" fill="#4daf4d"/><path d="m54 19h4a2 2 0 0 1 2 2 2 2 0 0 1 -2 2h-4a0 0 0 0 1 0 0v-4a0 0 0 0 1 0 0z" fill="#4daf4d"/><circle cx="57" cy="10" fill="#db6060" r="2"/><path d="m28 51h8a2 2 0 0 1 2 2v4a0 0 0 0 1 0 0h-12a0 0 0 0 1 0 0v-4a2 2 0 0 1 2-2z" fill="#4daf4d"/><path d="m10 31h44v8h-44z" fill="#db6060"/><path d="m14 31h40a0 0 0 0 1 0 0v3a0 0 0 0 1 0 0h-37a3 3 0 0 1 -3-3 0 0 0 0 1 0 0z" fill="#ff9b9b"/><path d="m16 3h32a2 2 0 0 1 2 2v6a0 0 0 0 1 0 0h-36a0 0 0 0 1 0 0v-6a2 2 0 0 1 2-2z" fill="#db6060"/><path d="m19 3h29a2 2 0 0 1 2 2v2a0 0 0 0 1 0 0h-27a4 4 0 0 1 -4-4 0 0 0 0 1 0 0z" fill="#ff9b9b"/><path d="m36 39h6a0 0 0 0 1 0 0v3a3 3 0 0 1 -3 3 3 3 0 0 1 -3-3v-3a0 0 0 0 1 0 0z" fill="#4daf4d"/><path d="m22 39h6a0 0 0 0 1 0 0v3a3 3 0 0 1 -3 3 3 3 0 0 1 -3-3v-3a0 0 0 0 1 0 0z" fill="#4daf4d"/><path d="m14 57h38a2 2 0 0 1 2 2 0 0 0 0 1 0 0h-38a2 2 0 0 1 -2-2 0 0 0 0 1 0 0z" fill="#ff9b9b"/><path d="m38 39h2a0 0 0 0 1 0 0v3a1 1 0 0 1 -1 1 1 1 0 0 1 -1-1v-3a0 0 0 0 1 0 0z" fill="#157a15"/><path d="m24 39h2a0 0 0 0 1 0 0v3a1 1 0 0 1 -1 1 1 1 0 0 1 -1-1v-3a0 0 0 0 1 0 0z" fill="#157a15"/><path d="m36 51h-8a2 2 0 0 0 -1.76 1.06 7.94 7.94 0 0 0 3.76.94h8a2 2 0 0 0 -2-2z" fill="#7ecf7e"/><path d="m39 45a3 3 0 0 0 2.82-2h-5.64a3 3 0 0 0 2.82 2z" fill="#7ecf7e"/><path d="m25 45a3 3 0 0 0 2.82-2h-5.64a3 3 0 0 0 2.82 2z" fill="#7ecf7e"/><path d="m52 17a2 2 0 0 1 2 2v4a0 0 0 0 1 0 0 2 2 0 0 1 -2-2v-4a0 0 0 0 1 0 0z" fill="#7ecf7e"/><path d="m56 19h2a2 2 0 0 1 2 2 0 0 0 0 1 0 0h-2a2 2 0 0 1 -2-2 0 0 0 0 1 0 0z" fill="#7ecf7e"/></g><g id="Outline_copy" fill="#04485b" data-name="Outline copy"><path d="m32 18a3 3 0 1 0 3 3 3 3 0 0 0 -3-3zm0 4a1 1 0 1 1 1-1 1 1 0 0 1 -1 1z"/><path d="m44 18a3 3 0 1 0 3 3 3 3 0 0 0 -3-3zm0 4a1 1 0 1 1 1-1 1 1 0 0 1 -1 1z"/><path d="m20 22a1 1 0 0 0 0 2 3 3 0 0 0 0-6 1 1 0 0 0 0 2 1 1 0 0 1 0 2z"/><path d="m58 18v-5.18a3 3 0 1 0 -2 0v5.18h-1.18a3 3 0 0 0 -2.82-2h-1v-11a3 3 0 0 0 -3-3h-32a3 3 0 0 0 -3 3v25h-3a1 1 0 0 0 -1 1v8a1 1 0 0 0 1 1h11v2a4 4 0 0 0 8 0v-2h6v2a4 4 0 0 0 8 0v-2h3v16h-19v-3a1 1 0 0 1 1-1h8a1 1 0 0 1 1 1 1 1 0 0 0 2 0 3 3 0 0 0 -3-3h-8a3 3 0 0 0 -3 3v3h-7v-13a1 1 0 0 0 -2 0v13h-4a3 3 0 0 0 -3 3v2a1 1 0 0 0 1 1h44a1 1 0 0 0 1-1v-2a3 3 0 0 0 -3-3h-4v-16h6a1 1 0 0 0 0-2h-43v-6h42v3a1 1 0 0 0 2 0v-4a1 1 0 0 0 -1-1h-3v-4h1a3 3 0 0 0 2.82-2h3.18a3 3 0 0 0 0-6zm-1-9a1 1 0 1 1 -1 1 1 1 0 0 1 1-1zm-4 50v1h-42v-1a1 1 0 0 1 1-1h40a1 1 0 0 1 1 1zm-26-17a2 2 0 0 1 -4 0v-2h4zm14-2v2a2 2 0 0 1 -4 0v-2zm-26-35a1 1 0 0 1 1-1h32a1 1 0 0 1 1 1v5h-34zm17 25a1 1 0 0 1 0-2 1 1 0 0 0 0-2 3 3 0 0 0 -2.82 4h-2.18v-18h2.18a3 3 0 1 0 5.64 0h2.18v18zm1-17a1 1 0 1 1 -1-1 1 1 0 0 1 1 1zm-12 0a1 1 0 1 1 -1-1 1 1 0 0 1 1 1zm-6-1h2.18a3 3 0 1 0 5.64 0h2.18v18h-2.18a3 3 0 1 0 -5.64 0h-2.18zm4 17a1 1 0 1 1 1 1 1 1 0 0 1 -1-1zm24 0a1 1 0 1 1 1 1 1 1 0 0 1 -1-1zm3.82 1a3 3 0 1 0 -5.64 0h-2.18v-18h2.18a3 3 0 0 0 2.82 4 1 1 0 0 0 0-2 1 1 0 0 1 0-2h5v18zm5.18-6h-1v-6h1a1 1 0 0 1 1 1v4a1 1 0 0 1 -1 1zm6-2h-3v-2h3a1 1 0 0 1 0 2z"/><circle cx="16" cy="35" r="1"/><circle cx="20" cy="35" r="1"/><circle cx="24" cy="35" r="1"/><path d="m39 34a1 1 0 0 0 0 2h9a1 1 0 0 0 0-2z"/><path d="m28 8h8a1 1 0 0 0 0-2h-8a1 1 0 0 0 0 2z"/><path d="m41 8h4a1 1 0 0 0 0-2h-4a1 1 0 0 0 0 2z"/><path d="m23 7a1 1 0 0 0 -1-1h-4a1 1 0 0 0 0 2h4a1 1 0 0 0 1-1z"/></g></svg>