<svg id="door-exit" enable-background="new 0 0 300 300" height="512" viewBox="0 0 300 300" width="512" xmlns="http://www.w3.org/2000/svg"><path d="m198 78.004c-4.422 0-8-3.578-8-8v-32h-160c-4.422 0-8-3.578-8-8s3.578-8 8-8h168c4.422 0 8 3.578 8 8v40c0 4.422-3.578 8-8 8z"/><path d="m81.406 257.02c-.555 0-1.117-.055-1.688-.18l-51.398-11.015c-3.688-.789-6.32-4.047-6.32-7.82v-208c0-2.414 1.094-4.703 2.969-6.219 1.883-1.523 4.312-2.133 6.711-1.602l112 24c3.688.789 6.32 4.047 6.32 7.82v112c0 4.422-3.578 8-8 8s-8-3.578-8-8v-105.531l-96-20.57v191.633l45.078 9.664c4.32.922 7.07 5.18 6.141 9.5-.805 3.75-4.117 6.32-7.813 6.32z" fill="#18c2c6"/><path d="m118 150.004h-16c-4.422 0-8-3.578-8-8s3.578-8 8-8h16c4.422 0 8 3.578 8 8s-3.578 8-8 8z" fill="#18c2c6"/><path d="m259.461 166.004h-43.703l6.086-30.43c.102-.516.156-1.047.156-1.57v-24c0-4.422-3.578-8-8-8h-16c-3.336 0-6.32 2.07-7.492 5.195l-9.953 26.539c-6.299 16.803-21.307 28.79-38.687 31.612-.349-4.099-3.678-7.347-7.868-7.347h-48c-4.422 0-8 3.578-8 8v96c0 4.422 3.578 8 8 8h48c4.422 0 8-3.578 8-8h14.109l30.312 15.156c1.109.555 2.336.844 3.578.844h60.148c15.359 0 27.852-12.492 27.852-27.852v-65.609c.001-10.217-8.319-18.538-18.538-18.538zm-165.461 88v-80h32v80zm156.148 8h-58.258l-30.312-15.156c-1.109-.555-2.336-.844-3.578-.844h-16v-64.492c23.984-2.984 44.914-19.172 53.539-42.156l8.008-21.352h2.453v15.211l-7.844 39.219c-.469 2.352.141 4.789 1.656 6.641 1.523 1.852 3.789 2.93 6.188 2.93h53.461c1.398 0 2.539 1.141 2.539 2.539v5.461h-8c-4.422 0-8 3.578-8 8s3.578 8 8 8h8v8h-8c-4.422 0-8 3.578-8 8s3.578 8 8 8h8v8h-8c-4.422 0-8 3.578-8 8s3.578 8 8 8h7.302c-1.61 4.636-5.978 7.999-11.154 7.999z"/></svg>