<svg id="Fill_Outline" height="512" viewBox="0 0 64 64" width="512" xmlns="http://www.w3.org/2000/svg" data-name="Fill Outline"><g id="Stroke_copy" data-name="Stroke copy"><rect fill="#6bbeda" height="32" rx="4" width="28" x="3" y="16"/><rect fill="#2791b4" height="26" rx="3" width="22" x="6" y="19"/><rect fill="#6bbeda" height="32" rx="4" width="28" x="33" y="16"/><rect fill="#2791b4" height="26" rx="3" width="22" x="36" y="19"/><rect fill="#9ed8ec" height="20" rx="1" width="6" x="29" y="22"/><path d="m21 20h-2a3 3 0 0 1 -6 0h-2a4 4 0 0 0 -4 4v2h4v6h10v-6h4v-2a4 4 0 0 0 -4-4z" fill="#ff9b9b"/><path d="m18 30a5 5 0 0 1 -5-5v-5h-2a4 4 0 0 0 -4 4v2h4v6h10v-2z" fill="#db6060"/><path d="m39 48h4a0 0 0 0 1 0 0v2a2 2 0 0 1 -2 2 2 2 0 0 1 -2-2v-2a0 0 0 0 1 0 0z" fill="#157a15"/><path d="m51 48h4a0 0 0 0 1 0 0v2a2 2 0 0 1 -2 2 2 2 0 0 1 -2-2v-2a0 0 0 0 1 0 0z" fill="#157a15"/><path d="m22 44h-12l1-8h10z" fill="#ff9b9b"/><path d="m19.8 41a6 6 0 0 1 -5.91-5h-2.89l-1 8h12l-.37-3z" fill="#db6060"/><path d="m39 20h12v10h-12z" fill="#ff9b9b"/><path d="m41 20h-2v10h12v-5h-5a5 5 0 0 1 -5-5z" fill="#db6060"/><path d="m39 28v-6l6 3z" fill="#c13d3d"/><path d="m39 30h12v12h-12z" fill="#ffe5a7"/><path d="m41 30h-2v12h12v-5h-3a7 7 0 0 1 -7-7z" fill="#ffd879"/><path d="m39 32a4 4 0 0 1 0 8" fill="#ffc230"/><path d="m51 20h6v14h-6z" fill="#4daf4d"/><path d="m51 34h6v11h-6z" fill="#db6060"/><path d="m51 25h6v4h-6z" fill="#ffc230"/><circle cx="10" cy="55" fill="#9ed8ec" r="3"/><circle cx="19" cy="55" fill="#9ed8ec" r="3"/><g fill="#7ecf7e"><path d="m28.5 53.4h8v6h-8z" transform="matrix(.866 -.5 .5 .866 -23.85 23.81)"/><path d="m54 20h3a0 0 0 0 1 0 0v5a0 0 0 0 1 0 0 3 3 0 0 1 -3-3v-2a0 0 0 0 1 0 0z"/><path d="m54 29h3a0 0 0 0 1 0 0v5a0 0 0 0 1 0 0 3 3 0 0 1 -3-3v-2a0 0 0 0 1 0 0z"/></g><path d="m54 34h3a0 0 0 0 1 0 0v9a0 0 0 0 1 0 0 3 3 0 0 1 -3-3v-6a0 0 0 0 1 0 0z" fill="#ff9b9b"/><path d="m54 25h3v4h-3z" fill="#ffd879"/><path d="m25.38 6.9h6a4 4 0 0 1 4 4 0 0 0 0 1 0 0h-14a0 0 0 0 1 0 0 4 4 0 0 1 4-4z" fill="#7ecf7e" transform="matrix(.966 -.259 .259 .966 -1.34 7.65)"/><path d="m27.35 3a3 3 0 0 1 3 3v1a0 0 0 0 1 0 0h-6a0 0 0 0 1 0 0v-1a3 3 0 0 1 3-3z" fill="#7ecf7e" transform="matrix(.966 -.259 .259 .966 -.37 7.25)"/><path d="m26.45 9.42a2 2 0 0 1 -2.4-1.29 4 4 0 0 0 -1.91 4.51l13.52-3.64a4 4 0 0 0 -1-1.79z" fill="#4daf4d"/><path d="m27.09 4.07-.26-1a3 3 0 0 0 -2.12 3.68l.26 1 5.79-1.55a3 3 0 0 1 -3.67-2.13z" fill="#4daf4d"/><path d="m7 55a3 3 0 0 0 3 3 3 3 0 0 0 2.55-1.45l-4.1-4.1a3 3 0 0 0 -1.45 2.55z" fill="#6bbeda"/><path d="m17.45 52.45a3 3 0 0 0 -1.45 2.55 3 3 0 0 0 3 3 3 3 0 0 0 2.55-1.45z" fill="#6bbeda"/><path d="m35 56a4 4 0 0 1 -5.41-1.38l-2.05 1.18 3 5.2 6.92-4-1-1.82z" fill="#4daf4d"/></g><g id="Outline_copy" fill="#04485b" data-name="Outline copy"><path d="m61 26a1 1 0 0 0 1-1v-5a5 5 0 0 0 -5-5h-5v-1a3 3 0 0 0 -3-3h-4a3 3 0 0 0 -3 3v1h-5a5 5 0 0 0 -5 5 5 5 0 0 0 -5-5h-20a5 5 0 0 0 -5 5v11a1 1 0 0 0 2 0v-11a3 3 0 0 1 3-3h20a3 3 0 0 1 3 3v1a2 2 0 0 0 -2 2v18a2 2 0 0 0 2 2v1a3 3 0 0 1 -3 3h-20a3 3 0 0 1 -3-3v-9a1 1 0 0 0 -2 0v9a5 5 0 0 0 5 5h20a5 5 0 0 0 5-5 5 5 0 0 0 5 5h1v1a3 3 0 0 0 6 0v-1h6v1a3 3 0 0 0 6 0v-1h1a5 5 0 0 0 5-5v-15a1 1 0 0 0 -2 0v15a3 3 0 0 1 -3 3h-20a3 3 0 0 1 -3-3v-1a2 2 0 0 0 2-2v-18a2 2 0 0 0 -2-2v-1a3 3 0 0 1 3-3h20a3 3 0 0 1 3 3v5a1 1 0 0 0 1 1zm-7 23v1a1 1 0 0 1 -2 0v-1zm-12 0v1a1 1 0 0 1 -2 0v-1zm-8-8h-4v-18h4zm10-26v-1a1 1 0 0 1 1-1h4a1 1 0 0 1 1 1v1z"/><path d="m25 27a1 1 0 0 0 1-1v-2a5 5 0 0 0 -5-5h-2a1 1 0 0 0 -1 1 2 2 0 0 1 -4 0 1 1 0 0 0 -1-1h-2a5 5 0 0 0 -5 5v2a1 1 0 0 0 1 1h3v5a1 1 0 0 0 1 1h10a1 1 0 0 0 1-1v-6a1 1 0 0 0 -2 0v5h-8v-5a1 1 0 0 0 -1-1h-3v-1a3 3 0 0 1 3-3h1.13a4 4 0 0 0 7.74 0h1.13a3 3 0 0 1 3 3v2a1 1 0 0 0 1 1z"/><path d="m21 35h-10a1 1 0 0 0 -1 .88l-1 8a1 1 0 0 0 .24.78 1 1 0 0 0 .76.34h12a1 1 0 0 0 .75-.34 1 1 0 0 0 .24-.78l-1-8a1 1 0 0 0 -.99-.88zm-4 8v-2a1 1 0 0 0 -2 0v2h-3.87l.75-6h8.24l.75 6z"/><path d="m47 34a1 1 0 0 0 -1 1v2a1 1 0 0 0 2 0v-2a1 1 0 0 0 -1-1z"/><path d="m51 46h6a1 1 0 0 0 1-1v-25a1 1 0 0 0 -1-1h-18a1 1 0 0 0 -1 1v22a1 1 0 0 0 1 1h11v2a1 1 0 0 0 1 1zm-11-12.82a3 3 0 0 1 0 5.64zm0-4.56 5.24-2.62h4.76v3h-10zm0-5 2.76 1.38-2.76 1.38zm16 9.38h-4v-3h4zm0-5h-4v-2h4zm0 16h-4v-9h4zm0-20h-4v-3h4zm-6-3v3h-2v-1a1 1 0 0 0 -2 0v1h-.76l-5.24-2.62v-.38zm-10 20v-.1a5 5 0 0 0 0-9.8v-.1h10v10z"/><path d="m23 54.54a4 4 0 0 0 -7.86-.54h-1.28a4 4 0 0 0 -7.81.54l-2.76 2.75a1 1 0 0 0 0 1.42 1 1 0 0 0 1.42 0l1.8-1.8a4 4 0 0 0 7.35-.91h1.28a4 4 0 0 0 7.35.91l1.8 1.8a1 1 0 0 0 1.42 0 1 1 0 0 0 0-1.42zm-13 2.46a2 2 0 1 1 2-2 2 2 0 0 1 -2 2zm9 0a2 2 0 1 1 2-2 2 2 0 0 1 -2 2z"/><path d="m35.33 51.3a1 1 0 0 0 -.61-.46 1 1 0 0 0 -.76.1l-6.92 4a1 1 0 0 0 -.37 1.36l3 5.2a1 1 0 0 0 .61.47 1.09 1.09 0 0 0 .26 0 1.13 1.13 0 0 0 .5-.13l6.92-4a1 1 0 0 0 .37-1.37zm-4.43 8.33-2-3.46 5.2-3 2 3.46z"/><path d="m22.14 13.64h.26l13.52-3.64a1 1 0 0 0 .71-1.22 5 5 0 0 0 -5.13-3.7v-.1a4 4 0 0 0 -7.76 2.02v.09a5 5 0 0 0 -2.6 5.77 1 1 0 0 0 1 .78zm4.95-9.57a1.79 1.79 0 0 1 .51-.07 2 2 0 0 1 1.94 1.48l-3.87 1a2 2 0 0 1 1.42-2.41zm-3.69 6a3 3 0 0 1 1.82-1.4l5.78-1.51a2.91 2.91 0 0 1 2.28.3 2.88 2.88 0 0 1 1 .9l-11.28 3.01a3 3 0 0 1 .4-1.26z"/></g></svg>