<svg id="Fill_Outline" height="512" viewBox="0 0 64 64" width="512" xmlns="http://www.w3.org/2000/svg" data-name="Fill Outline"><g id="Stroke_copy" data-name="Stroke copy"><path d="m50 25h-36l-5 16h46z" fill="#9ed8ec"/><path d="m23.16 37a6 6 0 0 1 -5.73-7.79l1.32-4.21h-4.75l-5 16h46l-1.25-4z" fill="#6bbeda"/><g fill="#2791b4"><path d="m18 29h4v4h-4z"/><path d="m34 29h4v4h-4z"/><path d="m34 37h4v4h-4z"/><path d="m26 29h4v4h-4z"/><path d="m26 37h4v4h-4z"/><path d="m42 29h4v4h-4z"/><path d="m42 37h4v4h-4z"/><path d="m18 37h4v4h-4z"/></g><path d="m22 17h24v8h-24z" fill="#9ed8ec"/><path d="m16 21h6v4h-6z" fill="#2791b4"/><path d="m30 11h-3l-1 6h4z" fill="#db6060"/><path d="m38 11h-3l-1 6h4z" fill="#db6060"/><path d="m46 11h-3l-1 6h4z" fill="#db6060"/><path d="m49 37-2 4h-30l-2-4h-12l7 16h44l7-16z" fill="#ff9b9b"/><path d="m23.16 49a14 14 0 0 1 -12.83-8.39l-1.58-3.61h-5.75l7 16h44l1.75-4z" fill="#db6060"/><circle cx="41" cy="47" fill="#c13d3d" r="2"/><circle cx="49" cy="47" fill="#c13d3d" r="2"/><circle cx="33" cy="47" fill="#c13d3d" r="2"/><circle cx="13" cy="45" fill="#c13d3d" r="2"/><path d="m25 17h-3v8h24v-2h-15a6 6 0 0 1 -6-6z" fill="#6bbeda"/><path d="m44 11h2a0 0 0 0 1 0 0v5a0 0 0 0 1 0 0 2 2 0 0 1 -2-2v-3a0 0 0 0 1 0 0z" fill="#ff9b9b"/><path d="m36 11h2a0 0 0 0 1 0 0v5a0 0 0 0 1 0 0 2 2 0 0 1 -2-2v-3a0 0 0 0 1 0 0z" fill="#ff9b9b"/><path d="m28 11h2a0 0 0 0 1 0 0v5a0 0 0 0 1 0 0 2 2 0 0 1 -2-2v-3a0 0 0 0 1 0 0z" fill="#ff9b9b"/></g><g id="Outline_copy" fill="#04485b" data-name="Outline copy"><path d="m41 46a1 1 0 0 1 1 1 1 1 0 0 0 2 0 3 3 0 1 0 -3 3 1 1 0 0 0 0-2 1 1 0 0 1 0-2z"/><path d="m49 46a1 1 0 0 1 1 1 1 1 0 0 0 2 0 3 3 0 1 0 -3 3 1 1 0 0 0 0-2 1 1 0 0 1 0-2z"/><path d="m36 47a3 3 0 1 0 -3 3 3 3 0 0 0 3-3zm-4 0a1 1 0 1 1 1 1 1 1 0 0 1 -1-1z"/><path d="m61.84 36.45a1 1 0 0 0 -.84-.45h-12a1 1 0 0 0 -.89.55l-1.73 3.45h-3.38v-2h1a1 1 0 0 0 0-2h-2a1 1 0 0 0 -1 1v3h-2v-3a1 1 0 0 0 -1-1h-4a1 1 0 0 0 -1 1v3h-2v-3a1 1 0 0 0 -1-1h-4a1 1 0 0 0 -1 1v3h-6v-2h3a1 1 0 0 0 0-2h-4a1 1 0 0 0 -1 1v1.76l-1.11-2.21a1 1 0 0 0 -.89-.55h-3.39l3.13-10h34.52l2.29 7.3a1 1 0 1 0 1.9-.6l-2.5-8a1 1 0 0 0 -1-.7h-26.95v-6h22v3a1 1 0 0 0 2 0v-10a1 1 0 0 0 -1-1h-3a1 1 0 0 0 -1 .84l-.85 5.16h-6l.67-4h1.18v1a1 1 0 0 0 2 0v-2a1 1 0 0 0 -1-1h-3a1 1 0 0 0 -1 .84l-.85 5.16h-2.15v-5a1 1 0 0 0 -1-1h-3a1 1 0 0 0 -1 .84l-.85 5.16h-3.15a1 1 0 0 0 -1 1v3h-5a1 1 0 0 0 -1 1v3h-1a1 1 0 0 0 -.95.7l-3.53 11.3h-6.52a1 1 0 0 0 -.84.45 1 1 0 0 0 -.08.95l7 16a1 1 0 0 0 .92.6h7a1 1 0 0 0 0-2h-6.35l-6.12-14h9.85l1.73 3.45a1 1 0 0 0 .89.55h30a1 1 0 0 0 .89-.55l1.73-3.45h9.85l-6.12 14h-32.35a1 1 0 0 0 0 2h33a1 1 0 0 0 .92-.6l7-16a1 1 0 0 0 -.08-.95zm-17.99-24.45h1.15v4h-1.82zm-16 0h1.15v4h-1.82zm-10.85 10h4v2h-4zm10 18v-2h2v2zm8 0v-2h2v2z"/><path d="m18 28a1 1 0 0 0 -1 1v4a1 1 0 0 0 1 1h4a1 1 0 0 0 1-1v-4a1 1 0 0 0 -1-1zm3 4h-2v-2h2z"/><path d="m38 30a1 1 0 0 0 0-2h-4a1 1 0 0 0 -1 1v4a1 1 0 0 0 1 1h4a1 1 0 0 0 0-2h-3v-2z"/><path d="m26 28a1 1 0 0 0 -1 1v4a1 1 0 0 0 1 1h4a1 1 0 0 0 1-1v-4a1 1 0 0 0 -1-1zm3 4h-2v-2h2z"/><path d="m42 28a1 1 0 0 0 -1 1v4a1 1 0 0 0 1 1h4a1 1 0 0 0 1-1v-4a1 1 0 0 0 -1-1zm3 4h-2v-2h2z"/><circle cx="26" cy="21" r="1"/><circle cx="30" cy="21" r="1"/><circle cx="34" cy="21" r="1"/><circle cx="38" cy="21" r="1"/><circle cx="42" cy="21" r="1"/><path d="m10 45a3 3 0 1 0 3-3 3 3 0 0 0 -3 3zm4 0a1 1 0 1 1 -1-1 1 1 0 0 1 1 1z"/></g></svg>