<svg id="earth" enable-background="new 0 0 300 300" height="512" viewBox="0 0 300 300" width="512" xmlns="http://www.w3.org/2000/svg"><path d="m247.469 213.047c-2.25 0-4.492-.945-6.07-2.797l-29.406-34.305-10.414 5.211c-3.07 1.539-6.789.945-9.234-1.5l-24-24c-2.438-2.438-3.039-6.156-1.5-9.234l24-48c1.023-2.055 2.883-3.562 5.102-4.156 2.211-.594 4.578-.195 6.492 1.078l20.141 13.422 25.484-12.742c3.945-1.969 8.75-.375 10.734 3.578 1.977 3.953.375 8.758-3.578 10.734l-29.641 14.82c-2.578 1.273-5.625 1.086-8.016-.5l-16.461-10.977-17.367 34.742 15.844 15.844 10.844-5.422c3.289-1.641 7.266-.836 9.648 1.953l33.469 39.047c2.883 3.352 2.492 8.398-.867 11.273-1.509 1.298-3.361 1.931-5.204 1.931z" fill="#18c2c6"/><path d="m217.695 50.906c-3.656-2.5-8.633-1.562-11.117 2.086-2.492 3.641-1.562 8.625 2.086 11.117 28.391 19.43 45.336 51.539 45.336 85.891 0 57.344-46.656 104-104 104-5.467 0-10.795-.551-16.037-1.367l15.701-52.336c.469-1.578.445-3.266-.078-4.828l-8-24c-1.086-3.266-4.141-5.469-7.586-5.469h-38.109l-16-8 1.688-.844c2.211-1.102 3.781-3.164 4.266-5.586l7.398-37.008 29.555-22.164c3.234-2.422 4.148-6.867 2.148-10.367l-15.8-27.646c12.55-5.383 26.355-8.385 40.854-8.385 9.508 0 18.922 1.281 27.984 3.805 4.258 1.195 8.664-1.297 9.852-5.555s-1.297-8.672-5.555-9.852c-10.461-2.921-21.328-4.398-32.281-4.398-20.163 0-39.148 5.051-55.846 13.873-.062.033-.132.029-.193.064-.029.017-.044.047-.073.064-33.23 17.662-57.109 50.49-62.57 89.193-.001.008-.003.017-.004.025-.775 5.5-1.314 11.072-1.314 16.781 0 42.609 22.385 80.004 55.947 101.301.064.043.096.119.162.16.617.39 1.269.711 1.892 1.089 2.15 1.305 4.304 2.593 6.54 3.764.092.048.188.087.28.136 8.232 4.285 17.031 7.582 26.236 9.875.284.07.557.17.841.238.052.012.104.007.156.018 8.984 2.155 18.31 3.42 27.946 3.42 66.172 0 120-53.828 120-120 0-39.642-19.555-76.681-52.305-99.095zm-165.547 85.969-4.416-5.299c5.278-29.35 22.882-54.402 47.275-69.684l12.539 21.943-26.344 19.766c-1.578 1.18-2.664 2.898-3.047 4.828l-7.234 36.164-12.5 6.25c-.305.156-.594.32-.875.508l-3.961-11.883c-.312-.945-.804-1.82-1.437-2.593zm4.888 59.473 21.425 21.426 1.231 8.637c-9.264-8.533-16.963-18.692-22.656-30.063zm61.323 52.621c-7.047-2.247-13.814-5.259-20.224-8.959-.127-.073-.249-.154-.375-.229l-3.838-26.914c-.25-1.711-1.039-3.297-2.266-4.523l-22.664-22.664-6.094-18.289 27.523 13.766c1.11.554 2.337.843 3.579.843h34.234l5.375 16.125z"/></svg>