<svg id="Fill_Outline" height="512" viewBox="0 0 64 64" width="512" xmlns="http://www.w3.org/2000/svg" data-name="Fill Outline"><g id="Stroke_copy" data-name="Stroke copy"><path d="m3 21h58v34h-58z" fill="#4daf4d"/><path d="m11 29v-8h-8v34h58v-8h-32a18 18 0 0 1 -18-18z" fill="#157a15"/><path d="m49 25h-34a8 8 0 0 1 -8 8v10a8 8 0 0 1 8 8h34a8 8 0 0 1 8-8v-10a8 8 0 0 1 -8-8z" fill="#9ed8ec"/><path d="m29 47a18 18 0 0 1 -17.76-15.22 8 8 0 0 1 -4.24 1.22v10a8 8 0 0 1 8 8h34a8 8 0 0 1 1.08-4z" fill="#6bbeda"/><circle cx="32" cy="38" fill="#4daf4d" r="8"/><circle cx="32" cy="38" fill="#6bbeda" r="3"/><path d="m32 41a4 4 0 0 0 -4 3.93 8 8 0 0 0 8 0 4 4 0 0 0 -4-3.93z" fill="#6bbeda"/><circle cx="14" cy="50" fill="#ffe5a7" r="11"/><circle cx="14" cy="50" fill="#ffd879" r="9"/><path d="m14 41a8.93 8.93 0 0 0 -7.23 3.69 9 9 0 0 1 12.54 12.54 9 9 0 0 0 -5.31-16.23z" fill="#ffc230"/><path d="m21 2h40v18h-40z" fill="#9ed8ec"/><path d="m28 5v-3h-7v18h40v-5h-23a10 10 0 0 1 -10-10z" fill="#6bbeda"/><path d="m21 8h40v4h-40z" fill="#157a15"/><path d="m30 12h31v-4h-32.8a10 10 0 0 0 1.8 4z" fill="#4daf4d"/><path d="m33 21a4 4 0 0 0 -8 0z" fill="#db6060"/><path d="m41 21a4 4 0 0 0 -8 0z" fill="#ffd879"/></g><g id="Outline_copy" fill="#04485b" data-name="Outline copy"><path d="m27 44.91a1 1 0 0 0 .5.88l.09.05c.24.13.49.24.74.35l.21.1a9.12 9.12 0 0 0 .88.3l.23.08a8.74 8.74 0 0 0 .89.17l.25.05a9 9 0 0 0 1.21.11 9.48 9.48 0 0 0 1.08-.07h.26a8.17 8.17 0 0 0 .86-.17l.21-.06a9.13 9.13 0 0 0 2-.84 9 9 0 1 0 -13.41-7.86 8.26 8.26 0 0 0 .06 1 1 1 0 0 0 2-.22 6.81 6.81 0 0 1 -.06-.78 7 7 0 0 1 14 0 6.93 6.93 0 0 1 -2.36 5.22 5 5 0 0 0 -1.86-2.36 4 4 0 1 0 -5.56 0 5 5 0 0 0 -2.22 4.05zm3-6.91a2 2 0 1 1 2 2 2 2 0 0 1 -2-2zm4.92 6.35a7.07 7.07 0 0 1 -4.23.49h-.22a4.27 4.27 0 0 1 -.48-.13l-.32-.1-.43-.17-.13-.06a3 3 0 0 1 5.84 0z"/><path d="m48.06 50h-19.06a1 1 0 0 0 0 2h20a1 1 0 0 0 1-1 7 7 0 0 1 7-7 1 1 0 0 0 1-1v-10a1 1 0 0 0 -1-1 7 7 0 0 1 -7-7 1 1 0 0 0 -1-1h-34a1 1 0 0 0 -1 1 7 7 0 0 1 -7 7 1 1 0 0 0 -1 1v3.74a1 1 0 0 0 2 0v-2.8a9 9 0 0 0 7.94-7.94h32.12a9 9 0 0 0 7.94 7.94v8.12a9 9 0 0 0 -7.94 7.94z"/><path d="m61 20h-26.82a3 3 0 0 1 2.82-2 1 1 0 0 0 0-2 5 5 0 0 0 -4.9 4h-5.92a3 3 0 0 1 2.82-2 1 1 0 0 0 0-2 5 5 0 0 0 -4.9 4h-21.1a1 1 0 0 0 -1 1v18.83a1 1 0 0 0 2 0v-17.83h56v32h-31.87a1 1 0 1 0 0 2h32.87a1 1 0 0 0 1-1v-34a1 1 0 0 0 -1-1z"/><path d="m14 38a12 12 0 1 0 12 12 12 12 0 0 0 -12-12zm0 22a10 10 0 1 1 10-10 10 10 0 0 1 -10 10z"/><path d="m14 46a1.5 1.5 0 0 1 1.5 1.5 1 1 0 0 0 2 0 3.5 3.5 0 0 0 -2.5-3.34v-1.16a1 1 0 0 0 -2 0v1.16a3.49 3.49 0 0 0 1 6.84 1.5 1.5 0 1 1 -1.5 1.5 1 1 0 0 0 -2 0 3.5 3.5 0 0 0 2.5 3.34v1.16a1 1 0 0 0 2 0v-1.16a3.49 3.49 0 0 0 -1-6.84 1.5 1.5 0 0 1 0-3z"/><path d="m61 2h-40a1 1 0 0 0 -1 1v14a1 1 0 0 0 2 0v-4h38v4a1 1 0 0 0 2 0v-14a1 1 0 0 0 -1-1zm-1 2v3h-38v-3zm-38 7v-2h38v2z"/></g></svg>