<svg id="facebook" enable-background="new 0 0 300 300" height="512" viewBox="0 0 300 300" width="512" xmlns="http://www.w3.org/2000/svg"><path d="m106 114h-8v-6.539c0-4.023 1.328-7.797 3.836-10.93 2.773-3.445 2.219-8.477-1.227-11.242-3.438-2.766-8.477-2.219-11.242 1.227-4.75 5.914-7.367 13.351-7.367 20.945v6.539h-8c-4.422 0-8 3.578-8 8s3.578 8 8 8h8v40c0 4.422 3.578 8 8 8s8-3.578 8-8v-40h8c4.422 0 8-3.578 8-8s-3.578-8-8-8z" fill="#18c2c6"/><circle cx="98" cy="242" r="8"/><path d="m202 26c-13.563 0-26.216 3.838-37.058 10.385-4.927-6.325-12.955-10.385-22.09-10.385h-89.704c-14.968 0-27.148 11.047-27.148 24.625v167.375 28.852c0 14.968 12.18 27.148 27.148 27.148h89.703c14.969 0 27.149-12.18 27.149-27.148v-28.852-55.68c9.916 4.951 20.774 7.68 32 7.68 39.703 0 72-32.297 72-72s-32.297-72-72-72zm-160 24.625c0-4.672 5.102-8.625 11.148-8.625h89.703c3.863 0 7.326 1.688 9.338 4.131-13.646 13.109-22.189 31.494-22.189 51.869 0 14.523 4.453 28.781 12.641 40.711l-11.5 19.172c-1.766 2.945-1.461 6.688.766 9.305 1.555 1.82 3.797 2.812 6.094 2.812 1 0 2.008-.188 2.969-.57l13.03-5.216v45.786h-112zm112 196.227c0 6.148-5 11.148-11.148 11.148h-89.704c-6.148 0-11.148-5-11.148-11.148v-20.852h112zm48-92.852c-11.328 0-22.242-3.375-31.578-9.766-1.344-.922-2.922-1.398-4.516-1.398-1.008 0-2.016.188-2.969.57l-4.048 1.619c-.003.001-.005.002-.008.004l-1.803.721 2.039-3.398c1.727-2.883 1.477-6.539-.641-9.156-8.164-10.071-12.476-22.243-12.476-35.196 0-30.875 25.125-56 56-56s56 25.125 56 56-25.125 56-56 56z"/><circle cx="202" cy="98" r="8"/><circle cx="234" cy="98" r="8"/><circle cx="170" cy="98" r="8"/></svg>