<svg id="Fill_Outline" height="512" viewBox="0 0 64 64" width="512" xmlns="http://www.w3.org/2000/svg" data-name="Fill Outline"><g id="Stroke_copy" data-name="Stroke copy"><path d="m3 19h29a0 0 0 0 1 0 0v29a3 3 0 0 1 -3 3h-26a0 0 0 0 1 0 0v-32a0 0 0 0 1 0 0z" fill="#2791b4"/><path d="m5 19a0 0 0 0 1 0 0v32a0 0 0 0 1 0 0h-2a0 0 0 0 1 0 0v-30a2 2 0 0 1 2-2z" fill="#6bbeda" transform="matrix(-1 0 0 -1 8 70)"/><path d="m32 19h29a0 0 0 0 1 0 0v32a0 0 0 0 1 0 0h-26a3 3 0 0 1 -3-3v-29a0 0 0 0 1 0 0z" fill="#2791b4"/><path d="m59 19h2a0 0 0 0 1 0 0v32a0 0 0 0 1 0 0 2 2 0 0 1 -2-2v-30a0 0 0 0 1 0 0z" fill="#6bbeda"/><path d="m8 15h20a4 4 0 0 1 4 4v28a0 0 0 0 1 0 0h-24a0 0 0 0 1 0 0v-32a0 0 0 0 1 0 0z" fill="#ffe5a7"/><path d="m14 32v-17h-6v32h24v-5h-8a10 10 0 0 1 -10-10z" fill="#ffd879"/><path d="m36 15h20a0 0 0 0 1 0 0v32a0 0 0 0 1 0 0h-24a0 0 0 0 1 0 0v-28a4 4 0 0 1 4-4z" fill="#ffe5a7"/><path d="m38 32v-17h-2a4 4 0 0 0 -4 4v28h24v-5h-8a10 10 0 0 1 -10-10z" fill="#ffd879"/><circle cx="20" cy="31" fill="#9ed8ec" r="8"/><path d="m16 31 3-4-3.29-2.74a8 8 0 0 0 0 13.49l3.29-3.75z" fill="#4daf4d"/><path d="m15.78 37.68a9.92 9.92 0 0 1 -1.78-5.68v-6.26a7.91 7.91 0 0 0 -2 5.26 8 8 0 0 0 3.72 6.75z" fill="#157a15"/><path d="m28 31a8 8 0 0 0 -3.34-6.49l-3.66 5.49 3 3-2 5 .5.6a8 8 0 0 0 5.5-7.6z" fill="#4daf4d"/><path d="m41 28h8v4h-8z" fill="#db6060"/><path d="m38 20h8v4h-8z" fill="#9ed8ec"/><path d="m36 39h8v4h-8z" fill="#6bbeda"/><path d="m44 41.16v-2.16h-3.14a10 10 0 0 0 3.14 2.16z" fill="#9ed8ec"/><path d="m21 57-3-2-3 2v-10h6z" fill="#db6060"/><path d="m18 55 3 2v-8a3 3 0 0 0 -3 3z" fill="#ff9b9b"/></g><g id="Outline_copy" fill="#04485b" data-name="Outline copy"><path d="m61 38a1 1 0 0 0 1-1v-18a1 1 0 0 0 -1-1h-4v-3a1 1 0 0 0 -1-1h-20a5 5 0 0 0 -4 2 5 5 0 0 0 -4-2h-20a1 1 0 0 0 -1 1v3h-4a1 1 0 0 0 -1 1v32a1 1 0 0 0 1 1h8a1 1 0 0 0 0-2h-7v-30h3v27a1 1 0 0 0 1 1h6v9a1 1 0 0 0 1.55.83l2.45-1.63 2.45 1.63a1 1 0 0 0 1.55-.83v-9h9a2 2 0 0 1 -2 2h-4a1 1 0 0 0 0 2h4a4 4 0 0 0 3-1.38 4 4 0 0 0 3 1.38h26a1 1 0 0 0 1-1v-10a1 1 0 0 0 -2 0v9h-25a2 2 0 0 1 -2-2h23a1 1 0 0 0 1-1v-17a1 1 0 0 0 -2 0v16h-22v-2h11a1 1 0 0 0 1-1v-4a1 1 0 0 0 -1-1h-8a1 1 0 0 0 -1 1v3h-2v-11h7v1a1 1 0 0 0 1 1h8a1 1 0 0 0 0-2h-7v-2h7a1 1 0 0 0 0-2h-8a1 1 0 0 0 -1 1v1h-7v-8h4v3a1 1 0 0 0 1 1h8a1 1 0 0 0 1-1v-4a1 1 0 0 0 -1-1h-13a3 3 0 0 1 3-3h19v10a1 1 0 0 0 2 0v-6h3v17a1 1 0 0 0 1 1zm-24 2h6v2h-6zm8-17h-6v-2h6zm-25 32.13-1.45-1a1 1 0 0 0 -1.1 0l-1.45 1v-7.13h4zm11-13.13h-15v-3a9 9 0 0 0 4 1 8.82 8.82 0 0 0 2.82-.46 9 9 0 0 0 6.18-8.54h2zm-10-16a1 1 0 0 0 1-1v-.71a7.76 7.76 0 0 1 1.26.52l-3.09 4.64a1 1 0 0 0 .12 1.26l2.54 2.53-1.76 4.39a.72.72 0 0 0 -.06.29 6.77 6.77 0 0 1 -1.01.08 6.92 6.92 0 0 1 -2.7-.54l2.45-2.8a1 1 0 0 0 0-1.37l-2.39-2.38 2.44-3.31a1 1 0 0 0 -.16-1.37l-2.12-1.77a7 7 0 0 1 2.48-.46v1a1 1 0 0 0 1 1zm5.71 3h-1.71a1 1 0 0 0 0 2h2a7 7 0 0 1 -3.56 6.09l1.49-3.72a1 1 0 0 0 -.22-1.08l-2.42-2.42 2.59-3.87a7.06 7.06 0 0 1 1.83 3zm-11-3.48 2 1.64-2.51 3.24a1 1 0 0 0 .09 1.31l2.34 2.34-1.63 1.86v-1.91a1 1 0 0 0 -2 0v.59a7 7 0 0 1 1.66-9.07zm15.29 3.48h-2.23a9 9 0 0 0 -3.54-5.31 8.93 8.93 0 0 0 -3.23-1.46v-1.23h9zm-10-10a1 1 0 0 0 -1 1v2a8.93 8.93 0 0 0 -4.74 1.37 9 9 0 0 0 -1.26 14.32v5.31a1 1 0 0 0 1 1h16v2h-22v-30h19a3 3 0 0 1 3 3z"/><path d="m52 19h-2a1 1 0 0 0 0 2h2a1 1 0 0 0 0-2z"/><path d="m52 23h-2a1 1 0 0 0 0 2h2a1 1 0 0 0 0-2z"/><path d="m53 39a1 1 0 0 0 -1-1h-4a1 1 0 0 0 0 2h4a1 1 0 0 0 1-1z"/><path d="m48 42a1 1 0 0 0 0 2h2a1 1 0 0 0 0-2z"/></g></svg>