<svg id="group-like" enable-background="new 0 0 300 300" height="512" viewBox="0 0 300 300" width="512" xmlns="http://www.w3.org/2000/svg"><path d="m251.74 86.786-43.699-.58 6.488-30.346c.108-.514.17-1.045.177-1.568l.318-23.998c.058-4.422-3.472-8.047-7.894-8.105l-15.999-.211c-3.336-.045-6.347 1.986-7.561 5.096l-10.304 26.404c-7.489 19.199-26.37 31.92-46.978 31.646-4.421-.059-8.046 3.472-8.105 7.893-.059 4.422 3.472 8.047 7.893 8.105 27.232.361 52.191-16.451 62.099-41.829l8.29-21.243 2.453.031-.201 15.21-8.363 39.112c-.5 2.345.077 4.79 1.568 6.661 1.499 1.872 3.75 2.979 6.148 3.012l53.457.708c1.398.019 2.523 1.174 2.505 2.572l-.062 4.667c-.002 0-.003-.001-.005-.001h-8c-4.422 0-8 3.578-8 8s3.578 8 8 8h7.793l-.106 8h-7.688c-4.422 0-8 3.578-8 8s3.578 8 8 8h7.476l-.106 8h-7.37c-4.422 0-8 3.578-8 8s3.578 8 8 8h6.703c-1.431 5.021-6.049 8.703-11.513 8.631l-15.678-.207c-4.421-.059-8.047 3.472-8.105 7.893-.058 4.422 3.472 8.047 7.894 8.105l15.678.208c15.358.204 28.015-12.122 28.218-27.479l.869-65.604c.138-10.218-8.072-18.648-18.29-18.783z"/><path d="m77.966 170.499c-4.422 0-8-3.578-8-8v-76.476c0-4.422 3.578-8 8-8h48c4.422 0 8 3.578 8 8v69.297c0 4.422-3.578 8-8 8s-8-3.578-8-8v-61.297h-32v68.477c0 4.421-3.578 7.999-8 7.999z" fill="#18c2c6"/><path d="m211.427 166.023h-43.703l6.086-30.43c.102-.516.156-1.047.156-1.57v-24c0-4.422-3.578-8-8-8h-16c-3.336 0-6.32 2.07-7.492 5.195l-9.953 26.539c-6.299 16.803-21.307 28.79-38.687 31.612-.349-4.099-3.678-7.347-7.868-7.347h-48c-4.422 0-8 3.578-8 8v96c0 4.422 3.578 8 8 8h48c4.422 0 8-3.578 8-8h14.109l30.313 15.156c1.109.555 2.336.844 3.578.844h60.148c15.359 0 27.852-12.492 27.852-27.852v-65.609c0-10.218-8.32-18.538-18.539-18.538zm-165.461 88v-80h32v80zm156.149 8h-58.258l-30.313-15.156c-1.109-.555-2.336-.844-3.578-.844h-16v-64.625c23.971-2.988 44.919-19.049 53.539-42.023l8.008-21.352h2.453v15.211l-7.844 39.219c-.469 2.352.141 4.789 1.656 6.641 1.523 1.852 3.789 2.93 6.188 2.93h53.461c1.398 0 2.539 1.141 2.539 2.539v5.461h-8c-4.422 0-8 3.578-8 8s3.578 8 8 8h8v8h-8c-4.422 0-8 3.578-8 8s3.578 8 8 8h8v8h-8c-4.422 0-8 3.578-8 8s3.578 8 8 8h7.302c-1.609 4.636-5.977 7.999-11.153 7.999z"/></svg>