<svg id="home" enable-background="new 0 0 300 300" height="512" viewBox="0 0 300 300" width="512" xmlns="http://www.w3.org/2000/svg"><path d="m182 272.01c-4.422 0-8-3.578-8-8v-88h-48v88c0 4.422-3.578 8-8 8s-8-3.578-8-8v-96c0-4.422 3.578-8 8-8h64c4.422 0 8 3.578 8 8v96c0 4.422-3.578 8-8 8z" fill="#18c2c6"/><path d="m266.914 120.736-104-88c-7.484-6.328-18.344-6.328-25.828 0l-104 88c-4.078 3.453-6.57 8.281-7.016 13.609s1.211 10.508 4.656 14.578c3.461 4.094 8.305 6.586 13.641 7.023.562.047 1.117.07 1.672.07.249 0 .488-.055.736-.064l7.241 108.588c.281 4.203 3.773 7.469 7.984 7.469h176c4.211 0 7.703-3.266 7.984-7.469l7.257-108.842c5.992.17 12.071-2.093 16.024-6.768 3.453-4.078 5.109-9.258 4.664-14.586s-2.937-10.155-7.015-13.608zm-197.43 135.274-7.173-107.602 87.689-74.203 87.688 74.201-7.172 107.604zm187.578-117.422c-1.195 1.414-3.086 2.656-5.648.477l-96.25-81.445c-2.969-2.516-7.359-2.516-10.328 0l-96.266 81.46c-1.086.922-2.289.984-2.891.922-.617-.055-1.797-.305-2.742-1.414-.922-1.094-.977-2.289-.93-2.906.055-.617.305-1.797 1.406-2.727l104-88c.75-.633 1.672-.953 2.586-.953s1.836.32 2.586.953l104 88c1.102.93 1.352 2.109 1.406 2.727.048.617-.007 1.812-.929 2.906z"/><path d="m166 232.01c-4.422 0-8-3.578-8-8v-8c0-4.422 3.578-8 8-8s8 3.578 8 8v8c0 4.422-3.578 8-8 8z" fill="#18c2c6"/><path d="m262 272.01h-48c-4.422 0-8-3.578-8-8s3.578-8 8-8h48c4.422 0 8 3.578 8 8s-3.578 8-8 8z"/></svg>