<svg id="Fill_Outline" height="512" viewBox="0 0 64 64" width="512" xmlns="http://www.w3.org/2000/svg" data-name="Fill Outline"><g id="Stroke_copy" data-name="Stroke copy"><path d="m11 27h42a8 8 0 0 1 8 8 0 0 0 0 1 0 0h-58a0 0 0 0 1 0 0 8 8 0 0 1 8-8z" fill="#7ecf7e"/><path d="m32 7a14 14 0 0 1 14 14v6a0 0 0 0 1 0 0h-28a0 0 0 0 1 0 0v-6a14 14 0 0 1 14-14z" fill="#7ecf7e"/><path d="m44 22-6 1v-4l6 1z" fill="#db6060"/><path d="m44 22 6 1v-4l-6 1z" fill="#db6060"/><circle cx="40" cy="45" fill="#9ed8ec" r="6"/><circle cx="24" cy="45" fill="#9ed8ec" r="6"/><path d="m36.88 39.88a6 6 0 1 0 8.24 8.24z" fill="#6bbeda"/><path d="m20.88 39.88a6 6 0 1 0 8.24 8.24z" fill="#6bbeda"/><path d="m18 31a4 4 0 0 1 -4-4h-3a8 8 0 0 0 -8 8h58a8 8 0 0 0 -1.08-4z" fill="#4daf4d"/><path d="m43 26a14 14 0 0 1 -13.13-18.82 14 14 0 0 0 -11.87 13.82v6h28v-1.33a14.14 14.14 0 0 1 -3 .33z" fill="#4daf4d"/><g fill="#ff9b9b"><path d="m38 19v2l6 1v-2z"/><path d="m44 20v2l6-1v-2z"/></g></g><g id="Outline_copy" fill="#04485b" data-name="Outline copy"><path d="m53 26h-34v-5a13 13 0 0 1 25.81-2.15l-.81.15-5.84-1a1 1 0 0 0 -.81.23 1 1 0 0 0 -.35.77v1h-15a1 1 0 0 0 0 2h15v1a1 1 0 0 0 .35.76 1 1 0 0 0 .65.24h.16l5.84-1 5.84 1h.16a1 1 0 0 0 .65-.24 1 1 0 0 0 .35-.76v-4a1 1 0 0 0 -.35-.76 1 1 0 0 0 -.81-.23l-3.06.51a15 15 0 0 0 -29.78 2.48v5h-6a9 9 0 0 0 -9 9 1 1 0 0 0 1 1h58a1 1 0 0 0 1-1 9 9 0 0 0 -9-9zm-14-5.82 4 .67v.3l-4 .67zm10 1.64-4-.67v-.3l4-.67zm-44.93 12.18a7 7 0 0 1 .61-2h49.32a1 1 0 0 0 0-2h-47.89a7 7 0 0 1 4.89-2h42a7 7 0 0 1 6.93 6z"/><path d="m40 46a1 1 0 0 1 -1-1 1 1 0 0 0 -2 0 3 3 0 0 0 3 3 1 1 0 0 0 0-2z"/><path d="m24 46a1 1 0 0 1 -1-1 1 1 0 0 0 -2 0 3 3 0 0 0 3 3 1 1 0 0 0 0-2z"/><path d="m53.45 41.11-.86-.43a3 3 0 0 0 -3.21.34l-2.64 2.11a7 7 0 0 0 -13.54.25 3.93 3.93 0 0 0 -2.4 0 7 7 0 0 0 -13.54-.25l-2.64-2.13a3 3 0 0 0 -3.21-.34l-.86.43a1 1 0 0 0 .9 1.78l.85-.42a1 1 0 0 1 1.07.11l3.63 2.94a7 7 0 0 0 14 0 1.81 1.81 0 0 1 2 0 7 7 0 0 0 14 0l3.66-2.92a1 1 0 0 1 1.07-.11l.85.42a1 1 0 0 0 .9-1.78zm-29.45 8.89a5 5 0 1 1 5-5 5 5 0 0 1 -5 5zm16 0a5 5 0 1 1 5-5 5 5 0 0 1 -5 5z"/></g></svg>