<svg id="Fill_Outline" height="512" viewBox="0 0 64 64" width="512" xmlns="http://www.w3.org/2000/svg" data-name="Fill Outline"><g id="Stroke_copy" data-name="Stroke copy"><g fill="#ffd879"><path d="m21 24h22v16h-22z"/><path d="m24 44h16v17h-16z"/><path d="m25 20h14v4h-14z"/></g><path d="m36 11h-8l4-8z" fill="#9ed8ec"/><path d="m28 11h8v4h-8z" fill="#ffd879"/><path d="m36 15h-8l-3 5h14z" fill="#9ed8ec"/><path d="m21 40h22v4h-22z" fill="#6bbeda"/><path d="m36 47h4a0 0 0 0 1 0 0v14a0 0 0 0 1 0 0h-12a0 0 0 0 1 0 0v-6a8 8 0 0 1 8-8z" fill="#ffe5a7"/><path d="m25 24h18a0 0 0 0 1 0 0v12a0 0 0 0 1 0 0h-10a8 8 0 0 1 -8-8v-4a0 0 0 0 1 0 0z" fill="#ffe5a7"/><circle cx="32" cy="32" fill="#9ed8ec" r="6"/><circle cx="32" cy="32" fill="#6bbeda" r="4"/><path d="m27 20h12a0 0 0 0 1 0 0v2a0 0 0 0 1 0 0h-10a2 2 0 0 1 -2-2 0 0 0 0 1 0 0z" fill="#ffe5a7"/><path d="m30 11h6a0 0 0 0 1 0 0v2a0 0 0 0 1 0 0h-4a2 2 0 0 1 -2-2 0 0 0 0 1 0 0z" fill="#ffe5a7"/><path d="m32.16 18a2.28 2.28 0 0 1 -2.16-3h-2l-3 5h14l-1.2-2z" fill="#6bbeda"/><path d="m33 11h-5l4-8z" fill="#6bbeda"/><path d="m58 11a3 3 0 0 0 -1.08.21 5 5 0 0 0 -9.18-1.8 4 4 0 0 0 -1.74-.41 4 4 0 1 0 2.82 6.83 4.94 4.94 0 0 0 6.65-.24 3 3 0 1 0 2.53-4.59z" fill="#9ed8ec"/><path d="m15 44a3 3 0 0 0 -1.37.34 4 4 0 0 0 -7.63 1.66 2.85 2.85 0 0 0 0 .29 2 2 0 1 0 .89 2.24 4 4 0 0 0 3.11 1.47 3.93 3.93 0 0 0 2.71-1.08 3 3 0 1 0 2.29-4.92z" fill="#9ed8ec"/><path d="m58 54a3 3 0 0 0 -1.37.34 4 4 0 0 0 -7.63 1.66 2.85 2.85 0 0 0 0 .29 2 2 0 1 0 .89 2.24 4 4 0 0 0 3.11 1.47 3.93 3.93 0 0 0 2.71-1.08 3 3 0 1 0 2.29-4.92z" fill="#9ed8ec"/><path d="m59 15a3 3 0 0 1 -2.53-1.41 4.94 4.94 0 0 1 -6.65.24 4 4 0 0 1 -6.82-2.83 4.17 4.17 0 0 1 .07-.71 4 4 0 0 0 5.75 5.54 4.94 4.94 0 0 0 6.65-.24 3 3 0 0 0 2.53 1.41 3 3 0 0 0 3-2.76 3 3 0 0 1 -2 .76z" fill="#6bbeda"/><path d="m16 48a3 3 0 0 1 -2.29-1.08 3.93 3.93 0 0 1 -2.71 1.08 4 4 0 0 1 -3.08-1.47 2 2 0 0 1 -3.92-.27 2 2 0 1 0 2.89 2.27 4 4 0 0 0 3.11 1.47 3.93 3.93 0 0 0 2.71-1.08 3 3 0 0 0 2.29 1.08 3 3 0 0 0 3-2.76 3 3 0 0 1 -2 .76z" fill="#6bbeda"/><path d="m59 58a3 3 0 0 1 -2.29-1.08 3.93 3.93 0 0 1 -2.71 1.08 4 4 0 0 1 -3.08-1.47 2 2 0 0 1 -3.92-.27 2 2 0 1 0 2.89 2.27 4 4 0 0 0 3.11 1.47 3.93 3.93 0 0 0 2.71-1.08 3 3 0 0 0 2.29 1.08 3 3 0 0 0 3-2.76 3 3 0 0 1 -2 .76z" fill="#6bbeda"/></g><g id="Outline_copy" fill="#04485b" data-name="Outline copy"><path d="m25 32a7 7 0 1 0 7-7 7 7 0 0 0 -7 7zm7-5a5 5 0 1 1 -5 5 5 5 0 0 1 5-5z"/><path d="m43 19a1 1 0 0 0 -1 1v3h-2v-7a1 1 0 0 0 -2 0v.39l-1-1.67v-9.72a1 1 0 0 0 -2 0v1.76l-2.11-4.21a1 1 0 0 0 -1.78 0l-2.11 4.21v-1.76a1 1 0 0 0 -2 0v9.72l-1 1.67v-.39a1 1 0 0 0 -2 0v7h-2v-3a1 1 0 0 0 -2 0v24a1 1 0 0 0 1 1h2v16a1 1 0 0 0 2 0v-7h2v7a1 1 0 0 0 2 0v-7h2v7a1 1 0 0 0 2 0v-7h2v7a1 1 0 0 0 2 0v-7h2v7a1 1 0 0 0 2 0v-16h2a1 1 0 0 0 1-1v-10a1 1 0 0 0 -2 0v1h-1a1 1 0 0 0 0 2h1v2h-20v-2h1a1 1 0 0 0 0-2h-1v-6h1a1 1 0 0 0 0-2h-1v-2h20v2h-1a1 1 0 0 0 0 2h1v1a1 1 0 0 0 2 0v-10a1 1 0 0 0 -1-1zm-14-7h2v2h-2zm4 0h2v2h-2zm-1-6.76 2.38 4.76h-4.76zm-3.43 10.76h6.86l1.8 3h-10.46zm2.43 29v3h-2v-3zm4 0v3h-2v-3zm-8 3h-2v-3h2zm-2 4v-2h2v2zm4 0v-2h2v2zm4 0v-2h2v2zm4 0v-2h2v2zm2-4h-2v-3h2zm3-7v2h-20v-2zm-16-20h2v2h-2zm4 2v-2h4v2zm6 0v-2h2v2z"/><path d="m32 33h2a1 1 0 0 0 0-2h-1v-1a1 1 0 0 0 -2 0v2a1 1 0 0 0 1 1z"/><path d="m46 18a5 5 0 0 0 3.53-1.46 1 1 0 0 0 -1.41-1.42 3 3 0 0 1 -2.12.88 3 3 0 1 1 1.3-5.69 1 1 0 0 0 1.29-.38 4 4 0 0 1 7.34 1.44 1 1 0 0 0 1.35.77 2 2 0 1 1 -1 2.92 1 1 0 0 0 -.72-.46 1 1 0 0 0 -.82.27 4 4 0 0 1 -2.74 1.13 1 1 0 0 0 0 2 6 6 0 0 0 3.34-1 4 4 0 0 0 2.66 1 4 4 0 1 0 -.35-8 6 6 0 0 0 -10.27-1.8 5.06 5.06 0 0 0 -1.38-.2 5 5 0 0 0 0 10z"/><path d="m15 43a4.22 4.22 0 0 0 -.93.11 5 5 0 0 0 -8.97 1.89 3 3 0 1 0 -.1 6 3 3 0 0 0 2.14-.91 5.07 5.07 0 0 0 5.51.14 4 4 0 0 0 2.35.77 1 1 0 0 0 0-2 2 2 0 0 1 -1.52-.72 1 1 0 0 0 -1.48-.09 3 3 0 0 1 -4.34-.3 1 1 0 0 0 -1-.34 1 1 0 0 0 -.75.71 1 1 0 1 1 -.45-1.11 1 1 0 0 0 1.54-.93c0-.06 0-.12 0-.22a3 3 0 0 1 5.72-1.24 1 1 0 0 0 .59.53 1 1 0 0 0 .78-.06 2 2 0 0 1 2.91 1.77 1 1 0 0 0 2 0 4 4 0 0 0 -4-4z"/><path d="m58 53a4.22 4.22 0 0 0 -.93.11 5 5 0 0 0 -9 1.89 3 3 0 1 0 -.1 6 3 3 0 0 0 2.14-.91 5.05 5.05 0 0 0 5.51.14 4 4 0 0 0 2.38.77 1 1 0 0 0 0-2 2 2 0 0 1 -1.52-.72 1 1 0 0 0 -1.48-.09 3 3 0 0 1 -4.34-.3 1 1 0 0 0 -1-.34 1 1 0 0 0 -.75.71 1 1 0 1 1 -.45-1.11 1 1 0 0 0 1.54-.93c0-.06 0-.12 0-.22a3 3 0 0 1 5.72-1.24 1 1 0 0 0 .59.53 1 1 0 0 0 .78-.06 2 2 0 0 1 2.91 1.77 1 1 0 0 0 2 0 4 4 0 0 0 -4-4z"/><path d="m7.29 27.29a1 1 0 0 1 1.42 0 1 1 0 0 0 .7.3 1 1 0 0 0 .71-.3 1 1 0 0 1 1.42 0 1 1 0 0 0 .7.3 1 1 0 0 0 .76-1.71 3 3 0 0 0 -3.53-.53 3.07 3.07 0 0 0 -3.54.53 1 1 0 1 0 1.41 1.41z"/><path d="m8.88 31.88a1 1 0 1 0 1.41 1.41 1 1 0 0 1 1.42 0 1 1 0 0 0 .7.3 1 1 0 0 0 .71-.3 1 1 0 0 1 1.42 0 1 1 0 0 0 .7.3 1 1 0 0 0 .76-1.71 3 3 0 0 0 -3.53-.53 3.07 3.07 0 0 0 -3.59.53z"/></g></svg>