<svg id="home-menu" enable-background="new 0 0 300 300" height="512" viewBox="0 0 300 300" width="512" xmlns="http://www.w3.org/2000/svg"><path d="m254 42h-20c-.474 0-.885.189-1.336.27-.886-.1-1.752-.27-2.664-.27h-184c-13.234 0-24 10.766-24 24v120c0 13.234 10.766 24 24 24h72v32h-8c-4.422 0-8 3.578-8 8s3.578 8 8 8h88c4.422 0 8-3.578 8-8s-3.578-8-8-8h-8v-32h40c.913 0 1.779-.17 2.665-.27.451.078.861.27 1.335.27h20c13.234 0 24-10.766 24-24v-120c0-13.234-10.766-24-24-24zm-216 144v-120c0-4.414 3.586-8 8-8h184c4.414 0 8 3.586 8 8v120c0 4.414-3.586 8-8 8h-72-32-80c-4.414 0-8-3.586-8-8zm96 56v-32h16v32zm40 0h-8v-32h8zm88-56c0 4.414-3.586 8-8 8h-1.474c.896-2.515 1.474-5.182 1.474-8v-120c0-2.818-.578-5.485-1.474-8h1.474c4.414 0 8 3.586 8 8z"/><path d="m201.766 98.938-60-32c-2.359-1.25-5.172-1.25-7.531 0l-60 32c-3.234 1.734-4.883 5.445-3.992 9 .89 3.562 4.085 6.062 7.757 6.062h8v56c0 4.422 3.578 8 8 8h32 24 32c4.422 0 8-3.578 8-8v-56h8c3.672 0 6.867-2.5 7.758-6.062.89-3.555-.758-7.266-3.992-9zm-63.766-15.868 28 14.93h-56zm-4 78.93v-24h8v24zm40 0h-16v-32c0-4.422-3.578-8-8-8h-24c-4.422 0-8 3.578-8 8v32h-16v-48h72z" fill="#18c2c6"/></svg>