<svg id="Fill_Outline" height="512" viewBox="0 0 64 64" width="512" xmlns="http://www.w3.org/2000/svg" data-name="Fill Outline"><g id="Stroke_copy" data-name="Stroke copy"><path d="m47 57-30-6v-44l30 6z" fill="#ffe5a7"/><path d="m31.65 46.93a12 12 0 0 1 -9.65-11.77v-27.16l-5-1v44l30 6v-7z" fill="#ffd879"/><path d="m61 54-14 3v-44l14-3z" fill="#ffe5a7"/><path d="m52 41.1v-29.17l-5 1.07v44l14-3v-5a8 8 0 0 1 -9-7.9z" fill="#ffd879"/><path d="m17 51-14 3v-44l14-3z" fill="#ffe5a7"/><path d="m8 38.1v-29.17l-5 1.07v44l14-3v-5a8 8 0 0 1 -9-7.9z" fill="#ffd879"/><path d="m32 35s-11-4-11-13.5a5.5 5.5 0 0 1 11 0 5.5 5.5 0 0 1 11 0c0 9.5-11 13.5-11 13.5z" fill="#ff9b9b"/><path d="m25.89 22a11.6 11.6 0 0 1 -.89-3.94 5.8 5.8 0 0 1 .24-1.91 5.49 5.49 0 0 0 -4.24 5.35c0 9.5 11 13.5 11 13.5s6.59-2.4 9.57-7.89c-5.34 3.02-13 1.32-15.68-5.11z" fill="#db6060"/><path d="m54 26s-4-1.47-4-5a2 2 0 1 1 4 0 2 2 0 1 1 4 0c0 3.53-4 5-4 5z" fill="#ff9b9b"/><path d="m52.24 20.47a4.44 4.44 0 0 1 -.24-1.47 2 2 0 0 0 -2 2c0 3.5 4 5 4 5a7 7 0 0 0 3.66-3.3 4 4 0 0 1 -5.42-2.23z" fill="#db6060"/><path d="m7 33s-4-1.47-4-5a2 2 0 1 1 4 0 2 2 0 1 1 4 0c0 3.53-4 5-4 5z" fill="#ff9b9b"/><path d="m5.24 27.47a4.44 4.44 0 0 1 -.24-1.47 2 2 0 0 0 -2 2c0 3.5 4 5 4 5a7 7 0 0 0 3.66-3.3 4 4 0 0 1 -5.42-2.23z" fill="#db6060"/><path d="m42 51-4-1v-4l4 1z" fill="#7ecf7e"/><path d="m38 48.2v1.8l4 1v-2z" fill="#4daf4d"/><path d="m61 41-14 4v-4l14-4z" fill="#9ed8ec"/><path d="m52 41.1v-1.53l-5 1.43v4l5.36-1.53a8 8 0 0 1 -.36-2.37z" fill="#6bbeda"/><path d="m29 53.4 4 .8v-9.2l-4-1z" fill="#9ed8ec"/><path d="m29 53.4 4 .8v-7l-1.35-.27a12.29 12.29 0 0 1 -2.65-.87z" fill="#6bbeda"/></g><g id="Outline_copy" fill="#04485b" data-name="Outline copy"><path d="m37.5 15a6.49 6.49 0 0 0 -5.5 3 6.5 6.5 0 0 0 -12 3.5c0 10.08 11.18 14.27 11.66 14.44a1 1 0 0 0 .68 0c.48-.17 11.66-4.36 11.66-14.44a6.51 6.51 0 0 0 -6.5-6.5zm-5.5 18.92c-1.79-.75-10-4.63-10-12.42a4.5 4.5 0 0 1 9 0 1 1 0 0 0 2 0 4.5 4.5 0 0 1 9 0c0 7.77-8.21 11.67-10 12.42z"/><path d="m61.63 9.22a1 1 0 0 0 -.84-.2l-13.79 2.98-18.8-3.78a1 1 0 1 0 -.4 2l18.2 3.6v3.18a1 1 0 0 0 2 0v-3.19l12-2.57v25l-3 .85v-7.09a1 1 0 0 0 -2 0v7.67l-7 2v-13.67a1 1 0 0 0 -2 0v8a1 1 0 0 0 0 2v19.78l-12-2.4v-8.38a1 1 0 0 0 -2 0v8l-2-.4v-8.6a1 1 0 0 0 -2 0v3.67l-5.73-1.67a1 1 0 1 0 -.54 2l6.27 1.75v2.43l-10-2v-6.18a1 1 0 0 0 0-2v-33.78l5.8 1.16a1 1 0 0 0 .4-2l-7-1.38a.94.94 0 0 0 -.41 0l-14 3a1 1 0 0 0 -.79 1v12a1 1 0 0 0 2 0v-11.19l3-.64v8.83a1 1 0 0 0 2 0v-9.26l7-1.5v41.95l-7 1.5v-6.69a1 1 0 0 0 -2 0v7.12l-3 .64v-16.76a1 1 0 0 0 -2 0v18a1 1 0 0 0 1 1h.21l4.67-1h.12a1 1 0 0 0 .51-.16l8.49-1.84 29.8 6h.2.21l14-3a1 1 0 0 0 .79-1v-44a1 1 0 0 0 -.37-.78zm-1.63 29.11v1.92l-12 3.42v-1.92zm-12 17.43v-10l2-.57v5.81a1 1 0 0 0 2 0v-6.39l8-2.28v10.86z"/><circle cx="32" cy="39" r="1"/><circle cx="36" cy="39" r="1"/><circle cx="40" cy="37" r="1"/><circle cx="42" cy="34" r="1"/><circle cx="51" cy="33" r="1"/><circle cx="53" cy="30" r="1"/><path d="m54.35 26.94c.19-.07 4.65-1.76 4.65-5.94a3 3 0 0 0 -3-3 3 3 0 0 0 -2 .77 3 3 0 0 0 -2-.77 3 3 0 0 0 -3 3c0 4.15 4.46 5.84 4.65 5.91a1.05 1.05 0 0 0 .7 0zm-3.35-5.94a1 1 0 1 1 2 0 1 1 0 0 0 2 0 1 1 0 1 1 2 0c0 2.21-2.15 3.47-3 3.88-.86-.38-3-1.63-3-3.88z"/><circle cx="28" cy="39" r="1"/><circle cx="25" cy="41" r="1"/><circle cx="22" cy="43" r="1"/><circle cx="13" cy="43" r="1"/><circle cx="10" cy="41" r="1"/><circle cx="8" cy="37" r="1"/><path d="m9 25a3 3 0 0 0 -2 .77 3 3 0 0 0 -2-.77 3 3 0 0 0 -3 3c0 4.15 4.46 5.84 4.65 5.91a1.05 1.05 0 0 0 .7 0c.19-.04 4.65-1.73 4.65-5.91a3 3 0 0 0 -3-3zm-2 6.91c-.86-.41-3-1.66-3-3.91a1 1 0 1 1 2 0 1 1 0 0 0 2 0 1 1 0 1 1 2 0c0 2.24-2.15 3.5-3 3.91z"/><path d="m37.76 51 4 1a1 1 0 0 0 .24 0 1 1 0 0 0 1-1v-4a1 1 0 0 0 -.76-1l-4-1a1 1 0 0 0 -.86.18 1 1 0 0 0 -.38.82v4a1 1 0 0 0 .76 1zm1.24-3.72 2 .5v1.94l-2-.5z"/></g></svg>