<svg id="internet" enable-background="new 0 0 300 300" height="512" viewBox="0 0 300 300" width="512" xmlns="http://www.w3.org/2000/svg"><path d="m238 104.148c4.422 0 8-3.578 8-8v-47c0-14.968-12.18-27.148-27.148-27.148h-137.704c-14.968 0-27.148 12.18-27.148 27.148v172.852 28.852c0 14.968 12.18 27.148 27.148 27.148h137.703c14.969 0 27.149-12.18 27.149-27.148v-28.852-72.203c0-4.422-3.578-8-8-8s-8 3.578-8 8v64.203h-160v-164.852c0-6.148 5-11.148 11.148-11.148h137.703c6.149 0 11.149 5 11.149 11.148v47c0 4.422 3.578 8 8 8zm-8 125.852v20.852c0 6.148-5 11.148-11.148 11.148h-137.704c-6.148 0-11.148-5-11.148-11.148v-20.852z"/><circle cx="150" cy="246" r="8"/><g fill="#18c2c6"><path d="m123.234 165.477c-1.312 0-2.648-.32-3.875-1.008-3.867-2.148-5.258-7.016-3.109-10.875 6.672-12.008 19.227-19.398 32.875-19.398h.578c13.156.211 25.031 7.125 31.766 18.484 2.25 3.805 1 8.711-2.805 10.961-3.805 2.266-8.711 1-10.961-2.805-3.875-6.539-10.703-10.523-18.25-10.641-8.07-.18-15.32 4.164-19.219 11.164-1.461 2.633-4.187 4.118-7 4.118z"/><path d="m195.477 148.258c-2.906 0-5.711-1.586-7.133-4.359-7.445-14.555-22.211-23.75-38.547-24-.227-.008-.461-.008-.688-.008-16.539 0-31.484 9.078-39.125 23.805-2.039 3.93-6.891 5.438-10.781 3.422-3.922-2.031-5.453-6.859-3.422-10.781 10.414-20.078 30.781-32.445 53.32-32.445.312 0 .625.008.945.008 22.258.344 42.398 12.875 52.547 32.719 2.008 3.93.453 8.75-3.484 10.766-1.164.592-2.406.873-3.632.873z"/><path d="m214.008 127.758c-2.805 0-5.523-1.477-6.992-4.102-11.539-20.641-33.328-33.695-56.875-34.055-23.594-.688-45.719 12.008-57.898 32.289-2.273 3.781-7.18 5.023-10.977 2.742-3.789-2.273-5.016-7.188-2.742-10.977 15.102-25.156 42.914-40.75 71.867-40.055 29.227.453 56.281 16.641 70.594 42.258 2.156 3.852.773 8.727-3.086 10.883-1.235.689-2.571 1.017-3.891 1.017z"/><circle cx="146.893" cy="176.303" r="11.151"/></g></svg>