<svg id="Fill_Outline" height="512" viewBox="0 0 64 64" width="512" xmlns="http://www.w3.org/2000/svg" data-name="Fill Outline"><g id="Stroke_copy" data-name="Stroke copy"><rect fill="#ffe5a7" height="36" rx="4" width="30" x="5" y="21"/><path d="m10 36v-15h-1a4 4 0 0 0 -4 4v28a4 4 0 0 0 4 4h22a4 4 0 0 0 4-4v-1h-9a16 16 0 0 1 -16-16z" fill="#ffd879"/><g fill="#6bbeda"><path d="m27 57h4a0 0 0 0 1 0 0v2a2 2 0 0 1 -2 2 2 2 0 0 1 -2-2v-2a0 0 0 0 1 0 0z"/><path d="m9 57h4a0 0 0 0 1 0 0v2a2 2 0 0 1 -2 2 2 2 0 0 1 -2-2v-2a0 0 0 0 1 0 0z"/><path d="m15 3h10a2 2 0 0 1 2 2v2a0 0 0 0 1 0 0h-14a0 0 0 0 1 0 0v-2a2 2 0 0 1 2-2z"/><rect height="4" rx="1" width="14" x="13" y="25"/></g><path d="m15 25h11a1 1 0 0 1 1 1v1a0 0 0 0 1 0 0h-10a2 2 0 0 1 -2-2 0 0 0 0 1 0 0z" fill="#9ed8ec"/><path d="m22 51h-12v-4h12l-3 2z" fill="#7ecf7e"/><circle cx="28" cy="37" fill="#7ecf7e" r="3"/><path d="m10.33 36.77h10v4h-10z" fill="#ff9b9b" transform="matrix(.866 .5 -.5 .866 21.44 -2.47)"/><path d="m14.4 47h-4.4v4h10.48a16 16 0 0 1 -6.08-4z" fill="#4daf4d"/><path d="m15 3h10a2 2 0 0 1 2 2 0 0 0 0 1 0 0h-10a2 2 0 0 1 -2-2 0 0 0 0 1 0 0z" fill="#9ed8ec"/><rect fill="#ffe5a7" height="36" rx="4" width="20" x="41" y="21"/><path d="m45 45v-24a4 4 0 0 0 -4 4v28a4 4 0 0 0 4 4h12a4 4 0 0 0 4-4h-8a8 8 0 0 1 -8-8z" fill="#ffd879"/><path d="m45 57h4a0 0 0 0 1 0 0v2a2 2 0 0 1 -2 2 2 2 0 0 1 -2-2v-2a0 0 0 0 1 0 0z" fill="#2791b4"/><path d="m53 57h4a0 0 0 0 1 0 0v2a2 2 0 0 1 -2 2 2 2 0 0 1 -2-2v-2a0 0 0 0 1 0 0z" fill="#2791b4"/><rect fill="#6bbeda" height="12" rx="1" width="6" x="48" y="33"/><path d="m51 25h4v4h-4z" fill="#6bbeda"/><path d="m51 49h4v4h-4z" fill="#6bbeda"/><circle cx="47" cy="5" fill="#9ed8ec" r="2"/><path d="m50 33h3a1 1 0 0 1 1 1v9a0 0 0 0 1 0 0 4 4 0 0 1 -4-4v-6a0 0 0 0 1 0 0z" fill="#9ed8ec"/><path d="m52 49h3a0 0 0 0 1 0 0v3a0 0 0 0 1 0 0h-1a2 2 0 0 1 -2-2v-1a0 0 0 0 1 0 0z" fill="#9ed8ec"/><path d="m52 25h3a0 0 0 0 1 0 0v3a0 0 0 0 1 0 0h-1a2 2 0 0 1 -2-2v-1a0 0 0 0 1 0 0z" fill="#9ed8ec"/></g><g id="Outline_copy" fill="#04485b" data-name="Outline copy"><path d="m31 20h-3v-15a3 3 0 0 0 -3-3h-10a3 3 0 0 0 -3 3v15h-3a5 5 0 0 0 -5 5v28a5 5 0 0 0 4 4.9v1.1a3 3 0 0 0 6 0v-1h12v1a3 3 0 0 0 6 0v-1.1a5 5 0 0 0 4-4.9v-6a1 1 0 0 0 -2 0v6a3 3 0 0 1 -3 3h-22a3 3 0 0 1 -3-3v-28a3 3 0 0 1 3-3h22a3 3 0 0 1 3 3v18a1 1 0 0 0 2 0v-18a5 5 0 0 0 -5-5zm-1 38v1a1 1 0 0 1 -2 0v-1zm-18 0v1a1 1 0 0 1 -2 0v-1zm2-53a1 1 0 0 1 1-1h10a1 1 0 0 1 1 1v1h-12zm0 3h12v12h-12z"/><path d="m28 28v-2a2 2 0 0 0 -2-2h-12a2 2 0 0 0 -2 2v2a2 2 0 0 0 2 2h12a2 2 0 0 0 2-2zm-14-2h12v2h-12z"/><path d="m23 46.71a1 1 0 0 0 -1-.71h-12a1 1 0 0 0 -1 1v4a1 1 0 0 0 1 1h12a1 1 0 0 0 .55-1.83l-1.75-1.17 1.75-1.17a1 1 0 0 0 .45-1.12zm-12 1.29h2v2h-2zm7.45 1.83.25.17h-3.7v-2h3.7l-.25.17a1 1 0 0 0 0 1.66z"/><path d="m28 41a4 4 0 1 0 -4-4 4 4 0 0 0 4 4zm0-6a2 2 0 1 1 -2 2 2 2 0 0 1 2-2z"/><path d="m20.16 40.4a1 1 0 1 0 1-1.73l-8.66-5a1 1 0 0 0 -1.37.37l-2 3.46a1.05 1.05 0 0 0 -.1.76 1 1 0 0 0 .47.61l8.66 5a1 1 0 0 0 1-1.74l-7.79-4.5 1-1.73z"/><path d="m57 20h-11v-12.18a3 3 0 1 0 -2-2.82v15.1a5 5 0 0 0 -4 4.9v6a1 1 0 0 0 2 0v-6a3 3 0 0 1 3-3h5v7a1 1 0 0 0 1 1h4a1 1 0 0 0 1-1v-4a1 1 0 0 0 -1-1h-3v-2h5a3 3 0 0 1 3 3v28a3 3 0 0 1 -3 3h-5v-2h3a1 1 0 0 0 1-1v-4a1 1 0 0 0 -1-1h-3v-2h1a2 2 0 0 0 2-2v-10a2 2 0 0 0 -2-2h-4a2 2 0 0 0 -2 2v10a2 2 0 0 0 2 2h1v10h-5a3 3 0 0 1 -3-3v-18a1 1 0 0 0 -2 0v18a5 5 0 0 0 4 4.9v1.1a3 3 0 0 0 6 0v-1h2v1a3 3 0 0 0 6 0v-1.1a5 5 0 0 0 4-4.9v-28a5 5 0 0 0 -5-5zm-3 6v2h-2v-2zm-7-22a1 1 0 1 1 -1 1 1 1 0 0 1 1-1zm2 30h4v10h-4zm5 16v2h-2v-2zm-6 9a1 1 0 0 1 -2 0v-1h2zm8 0a1 1 0 0 1 -2 0v-1h2z"/></g></svg>