<svg id="mail-fav" enable-background="new 0 0 300 300" height="512" viewBox="0 0 300 300" width="512" xmlns="http://www.w3.org/2000/svg"><path d="m232.633 122.48h-41.023c-4.422 0-8 3.578-8 8s3.578 8 8 8h32.292l-73.902 61.586-73.9-61.586h27.549c4.422 0 8-3.578 8-8s-3.578-8-8-8h-36.282c-11.781 0-21.367 9.586-21.367 21.368v109.266c0 11.781 9.586 21.367 21.367 21.367h165.266c11.781 0 21.367-9.586 21.367-21.367v-109.266c0-11.782-9.586-21.368-21.367-21.368zm-52.876 73.624 58.243-48.534v100.952zm-29.757 22.376c1.82 0 3.641-.617 5.125-1.852l12.214-10.178 57.811 52.029h-150.112l56.274-50.023c.626-.555 1.04-1.24 1.449-1.922l12.114 10.094c1.484 1.235 3.305 1.852 5.125 1.852zm-88-70.912 58.709 48.923c-.006.006-.015.007-.021.013l-58.688 52.168z"/><path d="m187.617 171.223c-2.875 0-5.75-.867-8.227-2.609l-31.281-23.406-31.086 23.266c-5.281 3.711-12.023 3.594-16.992-.102-4.742-3.547-6.695-9.367-5.055-14.961l7.281-35.766-26.805-22.18c-4.5-3.133-6.625-9.375-4.805-15.148 1.805-5.695 6.977-9.578 12.969-9.812l39.18-4.609 11.977-31.117c1.828-5.484 7.109-9.25 13.32-9.258h.016c6.141 0 11.375 3.68 13.383 9.391l11.922 30.984 39.188 4.609c5.992.234 11.156 4.109 12.961 9.805 1.828 5.773-.297 12.016-5.297 15.531l-26.305 21.805 7.281 35.766c1.633 5.602-.32 11.422-5.07 14.961-2.539 1.897-5.547 2.85-8.555 2.85zm-98.562-85.243 27.102 22.398c2.273 1.883 3.328 4.867 2.734 7.758l-7.438 36.516 31.859-23.844c2.844-2.125 6.75-2.125 9.594 0l31.852 23.844-7.43-36.516c-.594-2.891.461-5.875 2.734-7.758l27.07-22.406-40.391-4.75c-2.945-.344-5.461-2.297-6.531-5.07l-12.109-31.477-12.101 31.477c-1.07 2.773-3.586 4.727-6.531 5.07zm122.984.516h.078zm-1.477-3.359c-.008 0-.016.008-.023.016zm-125.406-.383.172.148c-.055-.054-.109-.101-.172-.148zm64.672-42.563-.047.125c.016-.039.031-.086.047-.125z" fill="#18c2c6"/></svg>