<svg id="Fill_Outline" height="512" viewBox="0 0 64 64" width="512" xmlns="http://www.w3.org/2000/svg" data-name="Fill Outline"><g id="Stroke_copy" data-name="Stroke copy"><path d="m3 46h58v15h-58z" fill="#ffe5a7"/><path d="m3 46 2-7 2 2 3-3 2.8 1.89 3.2-.89v7z" fill="#4daf4d"/><path d="m6.27 42.55.51-1.77-1.78-1.78-1.43 5h.78a2 2 0 0 0 1.92-1.45z" fill="#7ecf7e"/><path d="m10.41 40.59 1.38-1.38-1.79-1.21-2.5 2.5.09.09a2 2 0 0 0 2.82 0z" fill="#7ecf7e"/><path d="m61 41-2-4h-4l-4 4v5h10z" fill="#4daf4d"/><path d="m57.09 37a6 6 0 0 0 3.91 4.65v-.65l-2-4z" fill="#7ecf7e"/><path d="m47 22-11 24h22z" fill="#6bbeda"/><path d="m48.28 34.8-1.28-12.8-11 24h22l-1.83-4a8 8 0 0 1 -7.89-7.2z" fill="#2791b4"/><path d="m47 30 2.81-1.87-2.81-6.13-2.81 6.13z" fill="#9ed8ec"/><path d="m47 30 .75-.5-.75-7.5-2.81 6.13z" fill="#6bbeda"/><path d="m21 22-11 24h22z" fill="#6bbeda"/><path d="m21 22-.22.49-1.89 12.51a7 7 0 0 1 -6.59 6l-2.3 5h22z" fill="#2791b4"/><path d="m21 30 2.81-1.87-2.81-6.13-2.81 6.13z" fill="#9ed8ec"/><path d="m19.77 29.18 1.23.82 2.81-1.87-2.81-6.13-.22.49z" fill="#6bbeda"/><circle cx="43" cy="11" fill="#ffe5a7" r="4"/><path d="m47 61h-30l13-15h4z" fill="#db6060"/><path d="m34 46h-2v15h15z" fill="#ff9b9b"/><path d="m32 16-14 30h28z" fill="#6bbeda"/><path d="m34 32.17-1.72-15.57-.28-.6-14 30h28l-1.88-4a11 11 0 0 1 -10.12-9.83z" fill="#2791b4"/><path d="m36.2 25-4.2-9-4.2 9h2.2l2 4 2-4z" fill="#9ed8ec"/><path d="m30 25 2 4 1.32-2.65-1.04-9.75-.28-.6-4.2 9z" fill="#6bbeda"/></g><g id="Outline_copy" fill="#04485b" data-name="Outline copy"><path d="m43 16a5 5 0 1 0 -5-5 5 5 0 0 0 5 5zm0-8a3 3 0 1 1 -3 3 3 3 0 0 1 3-3z"/><circle cx="43" cy="3" r="1"/><circle cx="43" cy="19" r="1"/><circle cx="35" cy="11" r="1"/><circle cx="51" cy="11" r="1"/><path d="m49.36 6.05a1 1 0 1 0 -1.41 0 1 1 0 0 0 1.41 0z"/><path d="m36.64 16a1 1 0 1 0 1.41 0 1 1 0 0 0 -1.41 0z"/><path d="m38.05 6.05a1 1 0 1 0 -1.41 0 1 1 0 0 0 1.41 0z"/><path d="m48 16a1 1 0 1 0 1.41 0 1 1 0 0 0 -1.41 0z"/><path d="m29.24 45.34-13 15a1 1 0 0 0 .11 1.42 1 1 0 0 0 .65.24 1 1 0 0 0 .76-.34l13-15a1 1 0 0 0 -1.52-1.32z"/><path d="m34.76 45.34a1 1 0 0 0 -1.52 1.32l13 15a1 1 0 0 0 .76.34 1 1 0 0 0 .65-.24 1 1 0 0 0 .11-1.42z"/><path d="m32 57a1 1 0 0 0 -1 1v3a1 1 0 0 0 2 0v-3a1 1 0 0 0 -1-1z"/><path d="m32 50a1 1 0 0 0 -1 1v2a1 1 0 0 0 2 0v-2a1 1 0 0 0 -1-1z"/><path d="m47 50a1 1 0 0 0 -1 1v2a1 1 0 0 0 2 0v-2a1 1 0 0 0 -1-1z"/><path d="m52 56a1 1 0 0 0 -1 1v2a1 1 0 0 0 2 0v-2a1 1 0 0 0 -1-1z"/><path d="m58 50a1 1 0 0 0 -1 1v2a1 1 0 0 0 2 0v-2a1 1 0 0 0 -1-1z"/><path d="m13 49a1 1 0 0 0 -1 1v2a1 1 0 0 0 2 0v-2a1 1 0 0 0 -1-1z"/><path d="m3 58a1 1 0 0 0 -1 1v2a1 1 0 0 0 2 0v-2a1 1 0 0 0 -1-1z"/><path d="m11 56a1 1 0 0 0 -1 1v2a1 1 0 0 0 2 0v-2a1 1 0 0 0 -1-1z"/><path d="m5 49a1 1 0 0 0 -1 1v2a1 1 0 0 0 2 0v-2a1 1 0 0 0 -1-1z"/><path d="m61 58a1 1 0 0 0 -1 1v2a1 1 0 0 0 2 0v-2a1 1 0 0 0 -1-1z"/><path d="m20 52v-2a1 1 0 0 0 -2 0v2a1 1 0 0 0 2 0z"/><path d="m53 49a1 1 0 0 0 -1 1v2a1 1 0 0 0 2 0v-2a1 1 0 0 0 -1-1z"/><path d="m61.89 40.55-2-4a1 1 0 0 0 -.89-.55h-4a.92.92 0 0 0 -.43.11l-6.66-14.53a1 1 0 0 0 -1.82 0l-5.09 11.23-8-17.23a1 1 0 0 0 -1.82 0l-6 12.9-3.16-6.9a1 1 0 0 0 -1.82 0l-7.82 16.82-1.82-1.23a1 1 0 0 0 -1.27.12l-2.29 2.3-1.29-1.3a1 1 0 0 0 -1.71.44l-2 7a1 1 0 0 0 .73 1.27.84.84 0 0 0 .27 0 1 1 0 0 0 1-.73l1.53-5.36.8.8a1 1 0 0 0 1.42 0l2.41-2.42 1.42 1-2.49 5.29a1 1 0 0 0 .49 1.33 1.06 1.06 0 0 0 .42.09 1 1 0 0 0 .91-.58l7.7-16.81 1.84 1.22a1 1 0 0 0 1.1 0l1.84-1.22.61 1.25-6.91 14.72a1 1 0 1 0 1.82.84l9.53-20.42h.94l1.73 3.45a1 1 0 0 0 1.78 0l1.73-3.45h.94l4.49 9.61 5 10.81a.93.93 0 0 0 .22.29l.07.06a.79.79 0 0 0 .23.14h.07a.91.91 0 0 0 .36.09 1.16 1.16 0 0 0 .4-.09 1 1 0 0 0 .49-1.33l-4.83-10.39 2.55-5.58 1.84 1.22a1 1 0 0 0 1.1 0l1.84-1.22 7.7 16.81a1 1 0 0 0 .91.58 1.06 1.06 0 0 0 .42-.09 1 1 0 0 0 .49-1.33l-3.48-7.58h3l1.57 3.24v1.76a1 1 0 0 0 2 0v-2a1 1 0 0 0 -.11-.45zm-40.89-11.75-1.54-1 1.54-3.4 1.54 3.37zm13-4.8a1 1 0 0 0 -.89.55l-1.11 2.21-1.11-2.21a1 1 0 0 0 -.89-.55h-.63l2.63-5.64 2.63 5.64zm13 4.8-1.54-1 1.54-3.4 1.54 3.37z"/></g></svg>