<svg id="mail-flag" enable-background="new 0 0 300 300" height="512" viewBox="0 0 300 300" width="512" xmlns="http://www.w3.org/2000/svg"><path d="m232.633 126h-74.633v-96c0-4.422-3.578-8-8-8s-8 3.578-8 8v96h-74.633c-11.781 0-21.367 9.586-21.367 21.367v109.266c0 11.781 9.586 21.367 21.367 21.367h165.266c11.781 0 21.367-9.586 21.367-21.367v-109.266c0-11.781-9.586-21.367-21.367-21.367zm-170.633 25.088 58.709 48.923c-.006.006-.015.007-.021.013l-58.688 52.167zm88-1.088c6.617 0 12 5.383 12 12s-5.383 12-12 12-12-5.383-12-12 5.383-12 12-12zm0 40c15.438 0 28-12.562 28-28 0-7.838-3.258-14.912-8.466-20h54.368l-73.902 61.586-73.9-61.586h54.367c-5.208 5.088-8.466 12.162-8.466 20-.001 15.438 12.561 28 27.999 28zm-18.688 21.977c.626-.555 1.04-1.24 1.449-1.922l12.114 10.094c1.484 1.234 3.305 1.851 5.125 1.851s3.641-.617 5.125-1.852l12.214-10.178 57.81 52.03h-150.111zm48.445-12.354 58.243-48.533v100.952z"/><path d="m230 94h-80c-4.422 0-8-3.578-8-8v-56c0-4.422 3.578-8 8-8h80c4.422 0 8 3.578 8 8v56c0 4.422-3.578 8-8 8zm-72-16h64v-40h-64z" fill="#18c2c6"/></svg>