<svg id="mail-fly" enable-background="new 0 0 300 300" height="512" viewBox="0 0 300 300" width="512" xmlns="http://www.w3.org/2000/svg"><g fill="#18c2c6"><path d="m70 134h-32c-4.422 0-8-3.578-8-8s3.578-8 8-8h32c4.422 0 8 3.578 8 8s-3.578 8-8 8z"/><path d="m46 110h-16c-4.422 0-8-3.578-8-8s3.578-8 8-8h16c4.422 0 8 3.578 8 8s-3.578 8-8 8z"/><path d="m142 78h-80c-4.422 0-8-3.578-8-8s3.578-8 8-8h80c4.422 0 8 3.578 8 8s-3.578 8-8 8z"/><path d="m54 206h-8c-4.422 0-8-3.578-8-8s3.578-8 8-8h8c4.422 0 8 3.578 8 8s-3.578 8-8 8z"/></g><path d="m256.633 86h-165.266c-11.781 0-21.367 9.586-21.367 21.367v34.633h-24c-4.422 0-8 3.578-8 8s3.578 8 8 8h24v8h-40c-4.422 0-8 3.578-8 8s3.578 8 8 8h40v34.633c0 1.865.316 3.643.767 5.367h-32.767c-4.422 0-8 3.578-8 8s3.578 8 8 8h48c.636 0 1.2-.222 1.793-.361 1.168.198 2.35.361 3.574.361h165.266c11.781 0 21.367-9.586 21.367-21.367v-109.266c0-11.781-9.586-21.367-21.367-21.367zm-82.633 77.586-73.9-61.586h147.802zm-29.291-3.575c-.006.006-.015.007-.021.013l-58.688 52.167v-101.103zm10.603 11.966c.626-.555 1.04-1.24 1.449-1.922l12.114 10.094c1.484 1.234 3.305 1.851 5.125 1.851s3.641-.617 5.125-1.852l12.214-10.178 57.81 52.03h-150.111zm48.445-12.354 58.243-48.533v100.952z"/><path d="m166 78h16c4.422 0 8-3.578 8-8s-3.578-8-8-8h-16c-4.422 0-8 3.578-8 8s3.578 8 8 8z"/></svg>