<svg id="Fill_Outline" height="512" viewBox="0 0 64 64" width="512" xmlns="http://www.w3.org/2000/svg" data-name="Fill Outline"><g id="Stroke_copy" data-name="Stroke copy"><path d="m27 19h40v28h-40z" fill="#9ed8ec" transform="matrix(0 1 -1 0 80 -14)"/><path d="m47 36v-23h-14v40h28v-7h-4a10 10 0 0 1 -10-10z" fill="#6bbeda"/><path d="m42 16h14v16h-14z" fill="#4daf4d" transform="matrix(0 1 -1 0 73 -25)"/><path d="m41 17h6v14h-6z" fill="#157a15"/><circle cx="50" cy="24" fill="#ffd879" r="3"/><path d="m44 21a3 3 0 0 1 3 3v3a0 0 0 0 1 0 0h-6a0 0 0 0 1 0 0v-3a3 3 0 0 1 3-3z" fill="#ffc230" transform="matrix(0 1 -1 0 68 -20)"/><path d="m49 40h12v4h-12z" fill="#4daf4d" transform="matrix(0 1 -1 0 97 -13)"/><path d="m53 48h4v-2a9.92 9.92 0 0 1 -4-.84z" fill="#157a15"/><path d="m3 3h40v58h-40z" fill="#7ecf7e"/><path d="m11 33v-30h-8v58h40v-6h-10a22 22 0 0 1 -22-22z" fill="#4daf4d"/></g><g id="Outline_copy" fill="#04485b" data-name="Outline copy"><path d="m61 12h-14a1 1 0 0 0 0 2h13v38h-13a1 1 0 0 0 0 2h14a1 1 0 0 0 1-1v-40a1 1 0 0 0 -1-1z"/><path d="m47 32h10a1 1 0 0 0 1-1v-14a1 1 0 0 0 -1-1h-10a1 1 0 0 0 0 2h9v12h-9a1 1 0 0 0 0 2z"/><path d="m50 28a4 4 0 1 0 -4-4 4 4 0 0 0 4 4zm0-6a2 2 0 1 1 -2 2 2 2 0 0 1 2-2z"/><path d="m57 35h-4a1 1 0 0 0 -1 1v12a1 1 0 0 0 1 1h4a1 1 0 0 0 1-1v-12a1 1 0 0 0 -1-1zm-1 12h-2v-10h2z"/><path d="m47 36v9a1 1 0 0 0 2 0v-9a1 1 0 0 0 -2 0z"/><path d="m43 2h-40a1 1 0 0 0 -1 1v43a1 1 0 0 0 2 0v-42h38v56h-38v-10a1 1 0 0 0 -2 0v11a1 1 0 0 0 1 1h40a1 1 0 0 0 1-1v-58a1 1 0 0 0 -1-1z"/><path d="m33.64 17.46a1 1 0 0 0 1.35.43 1 1 0 0 0 .42-1.35 14 14 0 0 0 -23.58-1.95 0 0 0 0 1 0 0 13.89 13.89 0 0 0 0 16.7 0 0 0 0 1 0 0 13.95 13.95 0 0 0 22.34 0 0 0 0 0 1 0 0 13.92 13.92 0 0 0 2.83-8.29 14.26 14.26 0 0 0 -.18-2.15 1 1 0 1 0 -2 .3 11.76 11.76 0 0 1 .18 1.85 11.92 11.92 0 0 1 -1.89 6.44 14.89 14.89 0 0 0 -2.67-1.24 24.42 24.42 0 0 0 0-10.4 14.58 14.58 0 0 0 2.67-1.24 10.11 10.11 0 0 1 .53.9zm-16.64 5.54a21.37 21.37 0 0 1 .49-4.64 23 23 0 0 0 4.51.64v8a23 23 0 0 0 -4.51.61 21.37 21.37 0 0 1 -.49-4.61zm5-11.81v5.81a21 21 0 0 1 -4-.55c.92-2.73 2.36-4.68 4-5.26zm0 17.81v5.78c-1.64-.58-3.08-2.53-4-5.23a21 21 0 0 1 4-.55zm2 5.78v-5.78a21 21 0 0 1 4 .55c-.92 2.73-2.36 4.68-4 5.26zm0-23.62c1.64.58 3.08 2.53 4 5.23a21 21 0 0 1 -4 .61zm-6.12 1a14.79 14.79 0 0 0 -1.78 3.7 13 13 0 0 1 -2-.9 12.13 12.13 0 0 1 3.78-2.8zm-5 4.4a14.89 14.89 0 0 0 2.67 1.24 24.42 24.42 0 0 0 0 10.4 14.89 14.89 0 0 0 -2.67 1.24 11.92 11.92 0 0 1 0-12.88zm1.23 14.44a13 13 0 0 1 2-.9 14.79 14.79 0 0 0 1.78 3.7 12.13 12.13 0 0 1 -3.78-2.8zm17.78 0a12.13 12.13 0 0 1 -3.77 2.8 14.79 14.79 0 0 0 1.78-3.7 13 13 0 0 1 1.99.9zm-2.89-8a21.37 21.37 0 0 1 -.49 4.64 23 23 0 0 0 -4.51-.64v-8a23 23 0 0 0 4.51-.61 21.37 21.37 0 0 1 .49 4.61zm.9-7.14a14.38 14.38 0 0 0 -1.79-3.71 11.86 11.86 0 0 1 3.79 2.85 13.59 13.59 0 0 1 -2 .86z"/><path d="m9 51a1 1 0 0 0 2 0v-3h1a3 3 0 0 0 0-6h-2a1 1 0 0 0 -1 1zm2-7h1a1 1 0 0 1 0 2h-1z"/><path d="m19 42a1 1 0 0 0 -.94.65l-3 8a1 1 0 0 0 1.88.7l.5-1.35h3.12l.5 1.35a1 1 0 0 0 .94.65 1 1 0 0 0 .35-.06 1 1 0 0 0 .59-1.29l-3-8a1 1 0 0 0 -.94-.65zm-.81 6 .81-2.15.81 2.15z"/><path d="m28 44a1 1 0 0 1 1 1 1 1 0 0 0 2 0 3 3 0 1 0 -3 3 1 1 0 1 1 -1 1 1 1 0 0 0 -2 0 3 3 0 1 0 3-3 1 1 0 0 1 0-2z"/><path d="m36 44a1 1 0 0 1 1 1 1 1 0 0 0 2 0 3 3 0 1 0 -3 3 1 1 0 1 1 -1 1 1 1 0 0 0 -2 0 3 3 0 1 0 3-3 1 1 0 0 1 0-2z"/></g></svg>