<svg id="Fill_Outline" height="512" viewBox="0 0 64 64" width="512" xmlns="http://www.w3.org/2000/svg" data-name="Fill Outline"><g id="Stroke_copy" data-name="Stroke copy"><rect fill="#9ed8ec" height="58" rx="4" width="38" x="13" y="3"/><path d="m20 37v-34h-3a4 4 0 0 0 -4 4v50a4 4 0 0 0 4 4h30a4 4 0 0 0 4-4v-4h-15a16 16 0 0 1 -16-16z" fill="#6bbeda"/><rect fill="#4daf4d" height="12" rx="2" width="16" x="41" y="40"/><circle cx="49" cy="46" fill="#2791b4" r="2"/><path d="m44 40h11a2 2 0 0 1 2 2v1a0 0 0 0 1 0 0h-10a3 3 0 0 1 -3-3 0 0 0 0 1 0 0z" fill="#7ecf7e"/><circle cx="50" cy="46" fill="#9ed8ec" r="1"/><path d="m41 10a6 6 0 0 0 -6 6c0 3.31 2.69 12 6 12s6-8.69 6-12a6 6 0 0 0 -6-6zm0 8a2 2 0 1 1 2-2 2 2 0 0 1 -2 2z" fill="#ff9b9b"/><path d="m9.16 40.6h14a6 6 0 0 1 6 6 0 0 0 0 1 0 0h-14a6 6 0 0 1 -6-6 0 0 0 0 1 0 0z" fill="#4daf4d" transform="matrix(-.866 .5 -.5 -.866 57.55 71.77)"/><path d="m7.73 41.27h4a0 0 0 0 1 0 0v4a0 0 0 0 1 0 0 4 4 0 0 1 -4-4 0 0 0 0 1 0 0z" fill="#4daf4d" transform="matrix(-.866 .5 -.5 -.866 39.79 75.87)"/><path d="m18.66 44.2h2a4 4 0 0 1 4 4 0 0 0 0 1 0 0h-6a2 2 0 0 1 -2-2 2 2 0 0 1 2-2z" fill="#7ecf7e" transform="matrix(-.866 .5 -.5 -.866 61.65 75.87)"/><path d="m18.48 40.52a16.23 16.23 0 0 0 4 .48 14.81 14.81 0 0 0 5.82-1.09 6 6 0 0 0 -7.2-.91z" fill="#7ecf7e"/><path d="m17 12h-10a4 4 0 0 0 -4 4v2a4 4 0 0 0 4 4v5l5-5h5a4 4 0 0 0 4-4v-2a4 4 0 0 0 -4-4z" fill="#ffd879"/><path d="m10 15a3 3 0 0 1 -3-3 4 4 0 0 0 -4 4v2a4 4 0 0 0 4 4v5l5-5h5a4 4 0 0 0 4-4v-2a4.09 4.09 0 0 0 -.14-1z" fill="#ffc230"/><path d="m16 16h10a4 4 0 0 1 4 4v2a4 4 0 0 1 -4 4v5l-5-5h-5a4 4 0 0 1 -4-4v-2a4 4 0 0 1 4-4z" fill="#4daf4d"/><path d="m17 16h9a4 4 0 0 1 4 4v2a0 0 0 0 1 0 0h-7a6 6 0 0 1 -6-6 0 0 0 0 1 0 0z" fill="#7ecf7e"/><path d="m38 12.5a14.59 14.59 0 0 1 .11-1.76 6 6 0 0 0 -3.11 5.26c0 3.31 2.69 12 6 12 1.34 0 2.57-1.42 3.56-3.32-3.87-2.17-6.56-6.8-6.56-12.18z" fill="#db6060"/></g><g id="Outline_copy" fill="#04485b" data-name="Outline copy"><path d="m13 9a1 1 0 0 0 1-1v-1a3 3 0 0 1 3-3h30a3 3 0 0 1 3 3v29a1 1 0 0 0 2 0v-29a5 5 0 0 0 -5-5h-30a5 5 0 0 0 -5 5v1a1 1 0 0 0 1 1z"/><path d="m51 55a1 1 0 0 0 -1 1v1a3 3 0 0 1 -3 3h-30a3 3 0 0 1 -3-3v-4.13a1 1 0 0 0 -2 0v4.13a5 5 0 0 0 5 5h30a5 5 0 0 0 5-5v-1a1 1 0 0 0 -1-1z"/><path d="m12 29.62v9.07a1 1 0 0 0 2 0v-9.07a1 1 0 0 0 -2 0z"/><circle cx="20" cy="7" r="1"/><circle cx="24" cy="7" r="1"/><path d="m55 39h-9v-1a1 1 0 0 0 -2 0v1h-1a3 3 0 0 0 -3 3v8a3 3 0 0 0 3 3h12a3 3 0 0 0 3-3v-8a3 3 0 0 0 -3-3zm1 11a1 1 0 0 1 -1 1h-12a1 1 0 0 1 -1-1v-8a1 1 0 0 1 1-1h12a1 1 0 0 1 1 1z"/><path d="m49 43a3 3 0 1 0 3 3 3 3 0 0 0 -3-3zm0 4a1 1 0 1 1 1-1 1 1 0 0 1 -1 1z"/><path d="m41 9a7 7 0 0 0 -7 7c0 3.13 2.56 13 7 13s7-9.87 7-13a7 7 0 0 0 -7-7zm0 18c-2.2 0-5-7.46-5-11a5 5 0 0 1 10 0c0 3.54-2.8 11-5 11z"/><path d="m41 13a3 3 0 1 0 3 3 3 3 0 0 0 -3-3zm0 4a1 1 0 1 1 1-1 1 1 0 0 1 -1 1z"/><path d="m46 33a1 1 0 0 0 0-2h-10a1 1 0 0 0 0 2z"/><path d="m17.7 49.06a4.57 4.57 0 0 0 .65.24 4.79 4.79 0 0 0 1.3.17 4.93 4.93 0 0 0 2.49-.67l1.73-1a3 3 0 0 0 1.44-3.14l4.49-2.59a1 1 0 0 0 .37-1.36 7 7 0 0 0 -9.57-2.57l-7.88 4.55a5 5 0 0 0 -6.24-1 1 1 0 0 0 -.47.61 1.06 1.06 0 0 0 .1.76l2 3.46a7 7 0 0 0 6.1 3.48 6.93 6.93 0 0 0 3.49-.94zm5.66-3.61a1 1 0 0 1 -.47.61l-1.73 1a3 3 0 0 1 -2.28.3 3.8 3.8 0 0 1 -.59-.23h-.07a2.89 2.89 0 0 1 -.51-.35l4.18-2.41a1 1 0 0 1 1.37.36 1 1 0 0 1 .1.72zm-1.74-5.58a5 5 0 0 1 6.25 1l-3.54 2a3 3 0 0 0 -3.44-.32l-5.19 3a1 1 0 0 0 -.37 1.45 5.11 5.11 0 0 0 .54.75 5 5 0 0 1 -5.42-1.4l2.55-1.48zm-10.62 3.85-.3.17-1.28.74-.92-1.58a3 3 0 0 1 2.5.67z"/><path d="m30.13 48.46a1 1 0 0 0 -1.36-.37l-5.27 3a1 1 0 0 0 1 1.74l5.27-3a1 1 0 0 0 .36-1.37z"/><path d="m20.59 27 4.7 4.71a1 1 0 0 0 .71.29.84.84 0 0 0 .38-.08 1 1 0 0 0 .62-.92v-4.1a5 5 0 0 0 4-4.9v-2a5 5 0 0 0 -5-5h-10a5 5 0 0 0 -5 5v2a5 5 0 0 0 5 5zm-7.59-5v-2a3 3 0 0 1 3-3h10a3 3 0 0 1 3 3v2a3 3 0 0 1 -3 3 1 1 0 0 0 -1 1v2.59l-3.29-3.3a1 1 0 0 0 -.71-.29h-5a3 3 0 0 1 -3-3z"/><path d="m6.62 27.92a.84.84 0 0 0 .38.08 1 1 0 0 0 .71-.29l1.71-1.71a1 1 0 1 0 -1.42-1.42v-2.58a1 1 0 0 0 -1-1 3 3 0 0 1 -3-3v-2a3 3 0 0 1 3-3h9a1 1 0 0 0 0-2h-9a5 5 0 0 0 -5 5v2a5 5 0 0 0 4 4.9v4.1a1 1 0 0 0 .62.92z"/><path d="m29 57h6a1 1 0 0 0 0-2h-6a1 1 0 0 0 0 2z"/></g></svg>