<svg id="mail-link" enable-background="new 0 0 300 300" height="512" viewBox="0 0 300 300" width="512" xmlns="http://www.w3.org/2000/svg"><path d="m277.774 263.117c.056-.382.226-.723.226-1.119v-152c0-.086-.033-.163-.036-.248-.01-.32-.087-.621-.136-.936-.076-.5-.161-.99-.327-1.46-.106-.301-.253-.573-.395-.86-.219-.444-.458-.863-.756-1.26-.196-.262-.409-.498-.638-.736-.343-.357-.717-.669-1.126-.959-.17-.121-.289-.291-.47-.4l-20.116-12.069v-45.072c0-4.422-3.578-8-8-8h-80.451l-11.432-6.859c-2.531-1.516-5.703-1.516-8.234 0l-11.432 6.859h-80.451c-4.422 0-8 3.578-8 8v45.068l-20.117 12.072c-.183.109-.302.28-.473.402-.405.287-.774.596-1.115.947-.236.245-.455.489-.656.76-.288.385-.521.793-.735 1.225-.148.297-.3.58-.41.893-.162.461-.244.939-.319 1.43-.05.322-.128.63-.139.959-.002.084-.036.16-.036.244v152c0 .396.17.736.225 1.116.081.571.133 1.132.339 1.68.206.546.533.999.847 1.48.209.323.305.69.566.989.057.065.142.085.201.148.586.631 1.298 1.105 2.061 1.521.205.111.369.3.581.393.977.424 2.047.672 3.181.672h240c1.134 0 2.205-.248 3.181-.672.211-.092.374-.279.577-.39.765-.416 1.477-.893 2.065-1.524.059-.063.143-.083.2-.148.26-.297.356-.664.564-.986.314-.482.643-.938.849-1.484.205-.547.257-1.105.337-1.676zm-66.508-63.142c-3.32-2.906-8.367-2.586-11.289.758-2.906 3.32-2.57 8.375.758 11.289l47.973 41.977h-197.416l47.973-41.977c3.328-2.914 3.664-7.969.758-11.289-2.93-3.344-7.977-3.664-11.289-.758l-50.734 44.392v-116.846l106.758 92.523c3.016 2.609 7.469 2.609 10.484 0l106.758-92.523v116.846zm-149.266-145.977h176v72c0 .346.154.641.196.975l-88.196 76.439-88.196-76.439c.042-.334.196-.629.196-.975z"/><path d="m202 69.998h-24c-14.068 0-25.634 10.467-27.596 24h-.809c-1.962-13.533-13.528-24-27.596-24h-23.999c-15.438 0-28 12.562-28 28v8c0 15.438 12.562 28 28 28h24c14.068 0 25.634-10.467 27.596-24h.809c1.962 13.533 13.528 24 27.596 24h24c15.438 0 28-12.562 28-28v-8c-.001-15.437-12.563-28-28.001-28zm-80 48h-24c-6.617 0-12-5.383-12-12v-8c0-6.617 5.383-12 12-12h24c5.208 0 9.606 3.354 11.263 8h-7.263c-4.422 0-8 3.578-8 8s3.578 8 8 8h7.263c-1.657 4.647-6.055 8-11.263 8zm92-12c0 6.617-5.383 12-12 12h-24c-5.208 0-9.606-3.354-11.263-8h7.263c4.422 0 8-3.578 8-8s-3.578-8-8-8h-7.263c1.657-4.646 6.055-8 11.263-8h24c6.617 0 12 5.383 12 12z" fill="#18c2c6"/></svg>