<svg id="mail-message" enable-background="new 0 0 300 300" height="512" viewBox="0 0 300 300" width="512" xmlns="http://www.w3.org/2000/svg"><path d="m256.633 22h-165.266c-11.781 0-21.367 9.586-21.367 21.367v87.109c0 4.422 3.578 8 8 8s8-3.578 8-8v-83.388l58.709 48.923c-.006.006-.015.007-.021.013l-32.04 28.476c-3.305 2.93-3.602 7.992-.664 11.289 1.578 1.781 3.773 2.688 5.977 2.688 1.891 0 3.789-.664 5.312-2.023l32.039-28.477c.626-.555 1.04-1.24 1.449-1.922l12.114 10.094c1.484 1.234 3.305 1.851 5.125 1.851s3.641-.617 5.125-1.852l12.214-10.178 57.81 52.03h-27.149c-4.422 0-8 3.578-8 8s3.578 8 8 8h34.633c11.781 0 21.367-9.586 21.367-21.367v-109.266c0-11.781-9.586-21.367-21.367-21.367zm-82.633 77.586-73.9-61.586h147.8zm88-52.498v100.954l-58.244-52.419z" fill="#18c2c6"/><path d="m208.633 126h-165.266c-11.781 0-21.367 9.586-21.367 21.367v109.266c0 11.781 9.586 21.367 21.367 21.367h165.266c11.781 0 21.367-9.586 21.367-21.367v-109.266c0-11.781-9.586-21.367-21.367-21.367zm-82.633 77.586-73.892-61.586h147.783zm-88-52.505 58.71 48.929c-.007.006-.016.008-.023.014l-58.687 52.167zm69.312 60.896c.626-.555 1.041-1.241 1.449-1.924l12.113 10.096c1.485 1.234 3.306 1.851 5.126 1.851s3.641-.617 5.125-1.852l12.213-10.178 57.811 52.03h-150.111zm48.443-12.356 58.245-48.54v100.961z"/></svg>