<svg id="Fill_Outline" height="512" viewBox="0 0 64 64" width="512" xmlns="http://www.w3.org/2000/svg" data-name="Fill Outline"><g id="Stroke_copy" data-name="Stroke copy"><path d="m7 3h34v58h-34z" fill="#9ed8ec"/><path d="m14 37v-34h-7v58h34v-6h-9a18 18 0 0 1 -18-18z" fill="#6bbeda"/><g fill="#7ecf7e"><path d="m19 49h10v12h-10z"/><path d="m21 37h6v6h-6z"/><path d="m31 37h6v6h-6z"/><path d="m11 37h6v6h-6z"/><path d="m21 27h6v6h-6z"/><path d="m31 27h6v6h-6z"/><path d="m11 27h6v6h-6z"/><path d="m21 17h6v6h-6z"/><path d="m31 17h6v6h-6z"/><path d="m11 17h6v6h-6z"/><path d="m21 7h6v6h-6z"/><path d="m31 7h6v6h-6z"/><path d="m11 7h6v6h-6z"/></g><path d="m55.53 40.86-7.69-3.59-3.59 7.73 5.47 15 11.28-4.1zm-4.27 5.81a2 2 0 1 1 1.19-2.56 2 2 0 0 1 -1.19 2.56z" fill="#ff9b9b"/><path d="m55.48 54.36a4 4 0 0 1 -5.12-2.36l-4.11-11.31-2 4.27 5.47 15 11.28-4.06-1.14-3.14z" fill="#db6060"/><path d="m19 49.43v11.57h10v-6.27a18 18 0 0 1 -10-5.3z" fill="#4daf4d"/><path d="m11 37v6h4.05a17.81 17.81 0 0 1 -1.05-6z" fill="#4daf4d"/><path d="m11 27h3v6h-3z" fill="#4daf4d"/><path d="m11 17h3v6h-3z" fill="#4daf4d"/><path d="m11 7h3v6h-3z" fill="#4daf4d"/></g><g id="Outline_copy" fill="#04485b" data-name="Outline copy"><path d="m29 48h-10a1 1 0 0 0 -1 1v12a1 1 0 0 0 2 0v-11h8v11a1 1 0 0 0 2 0v-12a1 1 0 0 0 -1-1z"/><path d="m20 43a1 1 0 0 0 1 1h6a1 1 0 0 0 1-1v-6a1 1 0 0 0 -1-1h-6a1 1 0 0 0 -1 1zm2-5h4v4h-4z"/><path d="m37 36h-6a1 1 0 0 0 -1 1v6a1 1 0 0 0 1 1h6a1 1 0 0 0 1-1v-6a1 1 0 0 0 -1-1zm-1 6h-4v-4h4z"/><path d="m18 37a1 1 0 0 0 -1-1h-6a1 1 0 0 0 0 2h5v4h-4v-1a1 1 0 0 0 -2 0v2a1 1 0 0 0 1 1h6a1 1 0 0 0 1-1z"/><path d="m20 33a1 1 0 0 0 1 1h6a1 1 0 0 0 1-1v-6a1 1 0 0 0 -1-1h-6a1 1 0 0 0 -1 1zm2-5h4v4h-4z"/><path d="m37 28a1 1 0 0 0 0-2h-6a1 1 0 0 0 -1 1v6a1 1 0 0 0 1 1h6a1 1 0 0 0 1-1v-2a1 1 0 0 0 -2 0v1h-4v-4z"/><path d="m10 33a1 1 0 0 0 1 1h6a1 1 0 0 0 1-1v-6a1 1 0 0 0 -1-1h-6a1 1 0 0 0 -1 1zm2-5h4v4h-4z"/><path d="m21 22a1 1 0 0 0 0 2h6a1 1 0 0 0 1-1v-6a1 1 0 0 0 -1-1h-6a1 1 0 0 0 -1 1v2a1 1 0 0 0 2 0v-1h4v4z"/><path d="m37 16h-6a1 1 0 0 0 -1 1v6a1 1 0 0 0 1 1h6a1 1 0 0 0 1-1v-6a1 1 0 0 0 -1-1zm-1 6h-4v-4h4z"/><path d="m10 23a1 1 0 0 0 1 1h6a1 1 0 0 0 1-1v-6a1 1 0 0 0 -1-1h-6a1 1 0 0 0 -1 1zm2-5h4v4h-4z"/><path d="m21 14h6a1 1 0 0 0 1-1v-6a1 1 0 0 0 -1-1h-6a1 1 0 0 0 -1 1v6a1 1 0 0 0 1 1zm1-6h4v4h-4z"/><path d="m37 6h-6a1 1 0 0 0 -1 1v6a1 1 0 0 0 1 1h6a1 1 0 0 0 1-1v-6a1 1 0 0 0 -1-1zm-1 6h-4v-4h4z"/><path d="m11 14h6a1 1 0 0 0 1-1v-6a1 1 0 0 0 -1-1h-6a1 1 0 0 0 -1 1v6a1 1 0 0 0 1 1zm1-6h4v4h-4z"/><path d="m61.94 55.55-5.47-15a1 1 0 0 0 -.47-.55l-7.69-3.58a1 1 0 0 0 -.76 0 1 1 0 0 0 -.57.52l-1.28 2.54-3.7-3v-33.48a1 1 0 0 0 -1-1h-34a1 1 0 0 0 -1 1v58a1 1 0 0 0 2 0v-57h32v57a1 1 0 0 0 2 0v-21.92l2.83 2.27-1.49 3.19a1 1 0 0 0 0 .77l5.47 15a1 1 0 0 0 .94.66 1.07 1.07 0 0 0 .35-.06l11.27-4.11a1 1 0 0 0 .6-1.28zm-11.62 3.17-4.99-13.72 1.11-2.38 1.35 1.08a3 3 0 0 0 0 2.11 3 3 0 0 0 1.56 1.69 2.93 2.93 0 0 0 1.26.28 3.06 3.06 0 0 0 1-.18 3 3 0 0 0 1.79-3.84 3 3 0 0 0 -3.85-1.76 3.88 3.88 0 0 0 -.46.22l-1.78-1.42 1-2.17 6.41 3 5 13.71zm-.09-14.87a1 1 0 0 1 .34-.06 1 1 0 0 1 .94.66 1 1 0 0 1 0 .76 1 1 0 0 1 -.56.52 1 1 0 0 1 -1.29-.6 1 1 0 0 1 0-.76 1 1 0 0 1 .57-.52z"/><path d="m50.49 53.34a1 1 0 0 0 .94.65 1 1 0 0 0 .34-.06l3.76-1.37a1 1 0 1 0 -.68-1.87l-3.76 1.36a1 1 0 0 0 -.6 1.29z"/><path d="m52 27a2 2 0 0 1 -2-2 1 1 0 0 0 -2 0 4 4 0 0 0 3 3.86v2.14a1 1 0 0 0 2 0v-2.14a4 4 0 0 0 -1-7.86 2 2 0 1 1 2-2 1 1 0 0 0 2 0 4 4 0 0 0 -3-3.86v-2.14a1 1 0 0 0 -2 0v2.14a4 4 0 0 0 1 7.86 2 2 0 0 1 0 4z"/></g></svg>