<svg id="make-appointment" enable-background="new 0 0 300 300" height="512" viewBox="0 0 300 300" width="512" xmlns="http://www.w3.org/2000/svg"><path d="m239.133 50h-49.133v-8c0-4.422-3.578-8-8-8s-8 3.578-8 8v8h-48v-8c0-4.422-3.578-8-8-8s-8 3.578-8 8v8h-49.133c-12.609 0-22.867 10.258-22.867 22.867v41.133 48 75.148c0 15.907 13.461 28.852 30.008 28.852h81.992 104c4.422 0 8-3.578 8-8v-48-48-48-41.133c0-12.609-10.258-22.867-22.867-22.867zm-185.133 72h88v32h-88zm157.336 0h34.664v32h-88v-32zm-53.336 48h88v32h-88zm-97.133-104h49.133v8c0 4.422 3.578 8 8 8s8-3.578 8-8v-8h48v8c0 4.422 3.578 8 8 8s8-3.578 8-8v-8h49.133c3.789 0 6.867 3.078 6.867 6.867v33.133h-34.664-61.336-96v-33.133c0-3.789 3.078-6.867 6.867-6.867zm-6.867 171.148v-67.148h88v40 40h-73.992c-7.727 0-14.008-5.766-14.008-12.852zm192 12.852h-88v-32h88z"/><path d="m102 242c-1.562 0-3.109-.453-4.438-1.344l-24-16c-3.68-2.453-4.672-7.414-2.219-11.094 2.438-3.672 7.406-4.664 11.094-2.219l15.289 10.188 12.688-38.062c1.398-4.188 5.898-6.461 10.117-5.055 4.188 1.391 6.453 5.922 5.055 10.117l-16 48c-.781 2.367-2.633 4.227-4.992 5.039-.844.289-1.719.43-2.594.43z" fill="#18c2c6"/></svg>