<svg id="message-chat" enable-background="new 0 0 300 300" height="512" viewBox="0 0 300 300" width="512" xmlns="http://www.w3.org/2000/svg"><path d="m245.699 119.592c.184-1.62.301-3.26.301-4.928v-49.328c0-23.898-19.438-43.336-43.336-43.336h-137.328c-23.898 0-43.336 19.438-43.336 43.336v49.328c0 19.875 13.328 36.672 32 41.664v17.672c0 3.078 1.766 5.875 4.531 7.211 1.11.531 2.289.789 3.469.789 1.781 0 3.555-.594 5-1.75l27.805-22.25h23.384c-.085 1.11-.188 2.22-.188 3.336v49.328c0 19.875 13.328 36.672 32 41.664v17.672c0 3.078 1.766 5.875 4.531 7.211 1.109.531 2.288.789 3.468.789 1.781 0 3.555-.594 5-1.75l27.805-22.25h43.859c23.898 0 43.336-19.438 43.336-43.336v-49.328c0-19.854-13.42-36.772-32.301-41.744zm-153.699 22.408c-1.82 0-3.578.617-5 1.75l-17 13.602v-7.688c0-4.125-3.133-7.57-7.242-7.961-14.11-1.351-24.758-12.976-24.758-27.039v-49.328c0-15.07 12.266-27.336 27.336-27.336h137.328c15.07 0 27.336 12.266 27.336 27.336v49.328c0 15.07-12.266 27.336-27.336 27.336zm170 68.664c0 15.07-12.266 27.336-27.336 27.336h-46.664c-1.82 0-3.578.617-5 1.75l-17 13.602v-7.688c0-4.125-3.133-7.57-7.242-7.961-14.11-1.351-24.758-12.976-24.758-27.039v-49.328c0-1.127.243-2.223.378-3.336h68.286c16.616 0 31.056-9.408 38.326-23.166 12.244 2.904 21.01 13.746 21.01 26.502z"/><path d="m214 70c0-4.422-3.578-8-8-8h-40c-4.422 0-8 3.578-8 8s3.578 8 8 8h40c4.422 0 8-3.578 8-8z"/><path d="m142 94h-16c-4.422 0-8 3.578-8 8s3.578 8 8 8h16c4.422 0 8-3.578 8-8s-3.578-8-8-8z"/><path d="m102 94h-40c-4.422 0-8 3.578-8 8s3.578 8 8 8h40c4.422 0 8-3.578 8-8s-3.578-8-8-8z"/><path d="m142 62h-80c-4.422 0-8 3.578-8 8s3.578 8 8 8h80c4.422 0 8-3.578 8-8s-3.578-8-8-8z"/><g fill="#18c2c6"><circle cx="198" cy="182" r="8"/><circle cx="230" cy="182" r="8"/><circle cx="166" cy="182" r="8"/></g></svg>