<svg id="Fill_Outline" height="512" viewBox="0 0 64 64" width="512" xmlns="http://www.w3.org/2000/svg" data-name="Fill Outline"><g id="Stroke_copy" data-name="Stroke copy"><path d="m29 39h6v22h-6z" fill="#2791b4"/><path d="m51 11-4-8-.79.39a15 15 0 0 1 -14.21-.39 15 15 0 0 1 -14.21.39l-.79-.39-4 8 2 2.78a11.23 11.23 0 0 1 1.74 9.22l-.85 3.41a11.23 11.23 0 0 0 8.82 13.79 11.22 11.22 0 0 1 6.91 4.29l.38.51.38-.51a11.22 11.22 0 0 1 6.91-4.29 11.23 11.23 0 0 0 8.82-13.76l-.85-3.44a11.23 11.23 0 0 1 1.74-9.22z" fill="#9ed8ec"/><path d="m42 36a21 21 0 0 1 -18.43-31.07 14.85 14.85 0 0 1 -5.78-1.54l-.79-.39-4 8 2 2.78a11.23 11.23 0 0 1 1.74 9.22l-.85 3.41a11.23 11.23 0 0 0 8.82 13.79 11.22 11.22 0 0 1 6.91 4.29l.38.51.38-.51a11.22 11.22 0 0 1 6.91-4.29 11.19 11.19 0 0 0 7.17-4.69 20.52 20.52 0 0 1 -4.46.49z" fill="#6bbeda"/><path d="m49 13.78 2-2.78-4-8-.79.39a15 15 0 0 1 -14.21-.39 15 15 0 0 1 -14.21.39l-.79-.39-4 8 2 2.78a11.12 11.12 0 0 1 1.58 3.22h30.84a11.12 11.12 0 0 1 1.58-3.22z" fill="#ff9b9b"/><path d="m22 9h20v4h-20z" fill="#6bbeda"/><path d="m21 15a20.87 20.87 0 0 1 2.57-10.07 14.85 14.85 0 0 1 -5.78-1.54l-.79-.39-4 8 2 2.78a11.12 11.12 0 0 1 1.58 3.22h4.52c-.1-.66-.1-1.32-.1-2z" fill="#db6060"/><path d="m35 48a0 0 0 0 1 0 0v10a0 0 0 0 1 0 0 3 3 0 0 1 -3-3v-4a3 3 0 0 1 3-3z" fill="#6bbeda"/></g><g id="Outline_copy" fill="#04485b" data-name="Outline copy"><path d="m51.89 10.55-4-8a1 1 0 0 0 -1.34-.44l-.79.39a14 14 0 0 1 -13.26-.37 1 1 0 0 0 -1 0 14 14 0 0 1 -13.26.37l-.79-.39a1 1 0 0 0 -1.34.44l-4 8a1 1 0 0 0 .08 1l2 2.78a10.2 10.2 0 0 1 1.6 8.43l-.85 3.41a12.23 12.23 0 0 0 9.6 15 10.21 10.21 0 0 1 6.3 3.91l.38.51a1 1 0 0 0 1.6 0l.38-.51a10.21 10.21 0 0 1 6.3-3.91 12.23 12.23 0 0 0 9.6-15l-.85-3.41a10.15 10.15 0 0 1 -.25-1.82 1 1 0 0 0 -1.1-.94 1 1 0 0 0 -.9 1.06 12.21 12.21 0 0 0 .33 2.21l.85 3.41a10.22 10.22 0 0 1 -8 12.53 12.24 12.24 0 0 0 -7.18 4.15 12.24 12.24 0 0 0 -7.11-4.15 10.22 10.22 0 0 1 -8-12.53l.85-3.41a12.19 12.19 0 0 0 -1.94-10.07l-1.64-2.29 3.29-6.57a16 16 0 0 0 14.55-.2 16 16 0 0 0 14.55.2l3.29 6.57-1.64 2.29a11.76 11.76 0 0 0 -1.49 2.8h-26.13a1 1 0 0 0 0 2h26.84a1 1 0 0 0 1-.71 10 10 0 0 1 1.45-2.93l2-2.78a1 1 0 0 0 .02-1.03z"/><path d="m42 10a1 1 0 0 0 0-2h-20a1 1 0 0 0 -1 1v4a1 1 0 0 0 1 1h20a1 1 0 0 0 0-2h-19v-2z"/><path d="m26 23a3 3 0 0 1 3 3 1 1 0 0 0 2 0 5 5 0 0 0 -10 0v5a5 5 0 1 0 5-5 4.92 4.92 0 0 0 -3 1v-1a3 3 0 0 1 3-3zm0 5a3 3 0 1 1 -3 3 3 3 0 0 1 3-3z"/><path d="m38 23a3 3 0 0 1 3 3 1 1 0 0 0 2 0 5 5 0 0 0 -10 0v5a5 5 0 1 0 5-5 4.92 4.92 0 0 0 -3 1v-1a3 3 0 0 1 3-3zm0 5a3 3 0 1 1 -3 3 3 3 0 0 1 3-3z"/><path d="m35 46a1 1 0 0 0 -1 1v14a1 1 0 0 0 2 0v-14a1 1 0 0 0 -1-1z"/><path d="m29 46a1 1 0 0 0 -1 1v14a1 1 0 0 0 2 0v-14a1 1 0 0 0 -1-1z"/></g></svg>