<svg id="Fill_Outline" height="512" viewBox="0 0 64 64" width="512" xmlns="http://www.w3.org/2000/svg" data-name="Fill Outline"><g id="Stroke_copy" data-name="Stroke copy"><path d="m52 61h-40l2-44h36z" fill="#ffe5a7"/><path d="m38.84 55a18 18 0 0 1 -18-18.82l.89-19.18h-7.73l-2 44h40l-.27-6z" fill="#ffd879"/><path d="m21 7v14a2 2 0 0 0 2 2 2 2 0 0 0 2-2v-14h14v14a2 2 0 0 0 2 2 2 2 0 0 0 2-2v-14a4 4 0 0 0 -4-4h-14a4 4 0 0 0 -4 4z" fill="#9ed8ec"/><path d="m41 18v-11a2 2 0 0 0 -2-2h-10a2 2 0 0 1 -2-2h-2a4 4 0 0 0 -4 4v14a2 2 0 0 0 4 0v-14h14v14a2 2 0 0 0 4 0v-1a2 2 0 0 1 -2-2z" fill="#6bbeda"/><path d="m3 33h24v16h-24z" fill="#9ed8ec"/><path d="m6 36v-3h-3v16h24v-3h-11a10 10 0 0 1 -10-10z" fill="#6bbeda"/><path d="m3 37h24v4h-24z" fill="#4daf4d"/><path d="m6.05 37h-3.05v4h4.35a9.78 9.78 0 0 1 -1.3-4z" fill="#157a15"/><path d="m47.23 53.21 13.77-8.14a6 6 0 0 0 -8.22-2.07l-13.78 8.11a6 6 0 0 0 8.23 2.1z" fill="#db6060"/><path d="m37.7 46.37h4a0 0 0 0 1 0 0v4a0 0 0 0 1 0 0 4 4 0 0 1 -4-4 0 0 0 0 1 0 0z" fill="#db6060" transform="matrix(-.86 .51 -.51 -.86 98.53 69.73)"/><g fill="#ff9b9b"><path d="m51.69 52.89 3.45-2a2 2 0 0 0 .7-2.74 2 2 0 0 0 -2.74-.7l-6.89 4.06a4 4 0 0 0 5.48 1.38z"/><path d="m50.15 44.53a16.83 16.83 0 0 0 4 .43 14.78 14.78 0 0 0 5.85-1.16 6 6 0 0 0 -7.2-.83z"/></g></g><g id="Outline_copy" fill="#04485b" data-name="Outline copy"><path d="m13.41 30h.05a1 1 0 0 0 1-.95l.54-11.05h5v3a3 3 0 0 0 6 0v-13h12v8h-9a1 1 0 0 0 0 2h9v3a3 3 0 0 0 6 0v-14a5 5 0 0 0 -5-5h-14a5 5 0 0 0 -5 5v9h-6a1 1 0 0 0 -1 1l-.54 12a1 1 0 0 0 .95 1zm8.59-23a3 3 0 0 1 3-3h14a3 3 0 0 1 3 3v14a1 1 0 0 1 -2 0v-14a1 1 0 0 0 -1-1h-14a1 1 0 0 0 -1 1v14a1 1 0 0 1 -2 0z"/><path d="m47 18h2l1 21.41a1 1 0 0 0 1 1 1 1 0 0 0 1-1l-1-22.41a1 1 0 0 0 -1-1h-3a1 1 0 0 0 0 2z"/><path d="m28 49v-16a1 1 0 0 0 -1-1h-24a1 1 0 0 0 -1 1v16a1 1 0 0 0 1 1h24a1 1 0 0 0 1-1zm-24-11h22v2h-22zm22-4v2h-22v-2zm-22 14v-6h22v6z"/><circle cx="7" cy="45" r="1"/><circle cx="9" cy="45" r="1"/><path d="m23 44h-4a1 1 0 0 0 0 2h4a1 1 0 0 0 0-2z"/><path d="m61.87 44.63a7 7 0 0 0 -9.57-2.56l-9.61 5.55a5 5 0 0 0 -6.24-1 1 1 0 0 0 -.37 1.38l2 3.47a7 7 0 0 0 9.56 2.53 5.69 5.69 0 0 0 .65.24 4.86 4.86 0 0 0 1.31.17 4.93 4.93 0 0 0 2.49-.67l3.46-2a3 3 0 0 0 1.45-3.15l4.5-2.59a1 1 0 0 0 .47-.61 1.06 1.06 0 0 0 -.1-.76zm-21 4-.13.07-1.46.84-.88-1.54a3 3 0 0 1 2.5.66zm13.7 1.37-3.46 2a3 3 0 0 1 -3.45-.32l5.91-3.41a1 1 0 0 1 .76-.1 1 1 0 0 1 .24 1.83zm1.43-3.14a2.78 2.78 0 0 0 -1.16-.62 3 3 0 0 0 -2.28.3l-6.93 4a1 1 0 0 0 -.46.6 1 1 0 0 0 .1.76 4.41 4.41 0 0 0 .53.75 5 5 0 0 1 -5.41-1.4l2.51-1.45 10.39-6a5 5 0 0 1 6.25 1z"/><path d="m48.07 38.74-4.33 2.5a1 1 0 0 0 .5 1.87 1 1 0 0 0 .5-.14l4.33-2.5a1 1 0 1 0 -1-1.73z"/><path d="m58.3 52.46-13 7.5h-6l2-1.13a1 1 0 0 0 -1-1.74l-5 2.87h-22.25l.31-7a1 1 0 0 0 -.95-1 1 1 0 0 0 -1.05 1l-.36 8.04a1 1 0 0 0 .28.73 1 1 0 0 0 .72.27h40a1 1 0 0 0 0-2h-2.75l10-5.8a1 1 0 0 0 -1-1.74z"/><path d="m34.48 51.21-5.19 3a1 1 0 0 0 -.37 1.36 1 1 0 0 0 1.37.37l5.19-3a1 1 0 1 0 -1-1.73z"/><path d="m35 31a1.5 1.5 0 0 1 1.5 1.5 1 1 0 0 0 2 0 3.5 3.5 0 0 0 -2.5-3.34v-1.16a1 1 0 0 0 -2 0v1.16a3.49 3.49 0 0 0 1 6.84 1.5 1.5 0 1 1 -1.5 1.5 1 1 0 0 0 -2 0 3.5 3.5 0 0 0 2.5 3.34v1.16a1 1 0 0 0 2 0v-1.16a3.49 3.49 0 0 0 -1-6.84 1.5 1.5 0 0 1 0-3z"/></g></svg>