<svg id="mobile-message" enable-background="new 0 0 300 300" height="512" viewBox="0 0 300 300" width="512" xmlns="http://www.w3.org/2000/svg"><circle cx="110" cy="242" r="8"/><path d="m249.297 54.688c-8.18-8.18-19.055-12.688-30.625-12.688-.008 0-.016 0-.016 0h-38.361c-3.892-9.487-13.932-16-25.444-16h-89.703c-14.968 0-27.148 11.047-27.148 24.625v167.375 28.852c0 14.968 12.18 27.148 27.148 27.148h89.703c14.969 0 27.149-12.18 27.149-27.148v-28.852-40h36.664c23.898-.008 43.336-19.453 43.336-43.344v-49.32c-.008-11.578-4.516-22.469-12.703-30.648zm-195.297-4.063c0-4.672 5.102-8.625 11.148-8.625h80.188c-11.578.008-22.469 4.516-30.648 12.703-8.188 8.188-12.696 19.07-12.688 30.641v49.32c0 19.883 13.328 36.688 32 41.664l.008 17.672c0 3.078 1.766 5.883 4.539 7.211 1.102.531 2.281.789 3.461.789 1.781 0 3.555-.594 5-1.75l18.992-15.202v24.952h-112zm112 196.227c0 6.148-5 11.148-11.148 11.148h-89.704c-6.148 0-11.148-5-11.148-11.148v-20.852h112zm80-112.196c0 15.07-12.266 27.336-27.336 27.344h-46.664c-1.82 0-3.578.617-5 1.75l-17 13.609v-7.695c0-4.125-3.141-7.57-7.242-7.961-14.117-1.344-24.758-12.969-24.758-27.039v-49.32c0-7.305 2.836-14.164 8-19.328s12.031-8.016 19.336-8.016h73.32.016c7.297 0 14.156 2.844 19.312 8 5.164 5.164 8.016 12.031 8.016 19.336z"/><g fill="#18c2c6"><circle cx="182" cy="106" r="8"/><circle cx="214" cy="106" r="8"/><circle cx="150" cy="106" r="8"/></g></svg>