<svg id="Fill_Outline" height="512" viewBox="0 0 64 64" width="512" xmlns="http://www.w3.org/2000/svg" data-name="Fill Outline"><g id="Stroke_copy" data-name="Stroke copy"><path d="m3 3h58v36h-58z" fill="#7ecf7e"/><path d="m11 11v-8h-8v36h58v-8h-30a20 20 0 0 1 -20-20z" fill="#4daf4d"/><g fill="#9ed8ec"><path d="m8 39h6v22h-6z"/><path d="m50 39h6v22h-6z"/><path d="m46 14-6-5v3h-4a4 4 0 0 0 -3.86 3h-.28a4 4 0 0 0 -3.86-3h-4v-3l-6 5 6 5v-3h3a3 3 0 0 1 3 3v14h4v-14a3 3 0 0 1 3-3h3v3z"/><path d="m45 21h12v4h-12z"/><path d="m7 13h6v4h-6z"/><path d="m7 21h12v4h-12z"/></g><path d="m34 33v-2h-3c-.34 0-.67 0-1-.05v2.05z" fill="#6bbeda"/><path d="m7 17h4.92a20.27 20.27 0 0 1 -.82-4h-4.1z" fill="#6bbeda"/><path d="m7 25h9.73a20.06 20.06 0 0 1 -3-4h-6.73z" fill="#6bbeda"/><path d="m55 43h1v-4h-6v22h6v-3h-1a2 2 0 0 1 -2-2v-11a2 2 0 0 1 2-2z" fill="#6bbeda"/><path d="m13 43h1v-4h-6v22h6v-3h-1a2 2 0 0 1 -2-2v-11a2 2 0 0 1 2-2z" fill="#6bbeda"/></g><g id="Outline_copy" fill="#04485b" data-name="Outline copy"><path d="m61 2h-58a1 1 0 0 0 -1 1v22a1 1 0 0 0 2 0v-21h56v34h-56v-9a1 1 0 0 0 -2 0v10a1 1 0 0 0 1 1h4v21a1 1 0 0 0 2 0v-21h4v21a1 1 0 0 0 2 0v-21h34v21a1 1 0 0 0 2 0v-21h4v21a1 1 0 0 0 2 0v-21h4a1 1 0 0 0 1-1v-36a1 1 0 0 0 -1-1z"/><path d="m24.42 8.09a1 1 0 0 0 -1.06.14l-6 5a1 1 0 0 0 0 1.54l6 5a1 1 0 0 0 1.64-.77v-2h2a2 2 0 0 1 2 2v14a1 1 0 0 0 2 0v-14a4 4 0 0 0 -4-4h-3a1 1 0 0 0 -1 1v.86l-3.44-2.86 3.44-2.86v.86a1 1 0 0 0 1 1h4a3 3 0 0 1 2.89 2.25 1 1 0 0 0 1 .75h.28a1 1 0 0 0 1-.75 3 3 0 0 1 2.83-2.25h4a1 1 0 0 0 1-1v-.86l3.44 2.86-3.44 2.86v-.86a1 1 0 0 0 -1-1h-3a4 4 0 0 0 -4 4v14a1 1 0 0 0 2 0v-14a2 2 0 0 1 2-2h2v2a1 1 0 0 0 1.64.77l6-5a1 1 0 0 0 0-1.54l-6-5a1 1 0 0 0 -1.64.77v2h-3a5 5 0 0 0 -4 2 5 5 0 0 0 -4-2h-3v-2a1 1 0 0 0 -.58-.91z"/><path d="m57 22a1 1 0 0 0 0-2h-12a1 1 0 0 0 -1 1v4a1 1 0 0 0 1 1h12a1 1 0 0 0 0-2h-11v-2z"/><path d="m45 30h5a1 1 0 0 0 0-2h-5a1 1 0 0 0 0 2z"/><path d="m45 35h11a1 1 0 0 0 0-2h-11a1 1 0 0 0 0 2z"/><path d="m7 18h6a1 1 0 0 0 1-1v-4a1 1 0 0 0 -1-1h-6a1 1 0 0 0 -1 1v4a1 1 0 0 0 1 1zm1-4h4v2h-4z"/><path d="m6 25a1 1 0 0 0 1 1h12a1 1 0 0 0 1-1v-4a1 1 0 0 0 -1-1h-12a1 1 0 0 0 -1 1zm2-3h10v2h-10z"/><path d="m7 30h6a1 1 0 0 0 0-2h-6a1 1 0 0 0 0 2z"/><path d="m7 35h14a1 1 0 0 0 0-2h-14a1 1 0 0 0 0 2z"/></g></svg>