<svg id="mouse" enable-background="new 0 0 300 300" height="512" viewBox="0 0 300 300" width="512" xmlns="http://www.w3.org/2000/svg"><path d="m166.523 22h-16.523-16.523c-35 0-63.477 28.477-63.477 63.477v32.523 91.188c0 37.945 30.867 68.812 68.812 68.812h22.375c37.946 0 68.813-30.867 68.813-68.812v-91.188-32.523c0-35-28.477-63.477-63.477-63.477zm47.477 187.188c0 29.117-23.695 52.812-52.812 52.812h-22.375c-29.118 0-52.813-23.695-52.813-52.812v-83.188h44.672c4.422 0 8-3.578 8-8s-3.578-8-8-8h-44.672v-24.523c0-26.18 21.297-47.477 47.477-47.477h8.523v36c0 4.422 3.578 8 8 8s8-3.578 8-8v-36h8.523c26.18 0 47.477 21.297 47.477 47.477v24.523h-44.422c-4.422 0-8 3.578-8 8s3.578 8 8 8h44.422z"/><path d="m150 150c-13.234 0-24-10.766-24-24v-32c0-13.234 10.766-24 24-24s24 10.766 24 24v32c0 13.234-10.766 24-24 24zm0-64c-4.414 0-8 3.586-8 8v32c0 4.414 3.586 8 8 8s8-3.586 8-8v-32c0-4.414-3.586-8-8-8z" fill="#18c2c6"/></svg>