<svg id="Fill_Outline" height="512" viewBox="0 0 64 64" width="512" xmlns="http://www.w3.org/2000/svg" data-name="Fill Outline"><g id="Stroke_copy" data-name="Stroke copy"><path d="m48 25.53a8 8 0 0 0 -2.33-5.64v-.1a49.74 49.74 0 0 1 -1.67-12.73v-4.06h-4v10.26a8.18 8.18 0 0 1 -7.47 8.25 8 8 0 0 1 -8.53-8v-10.51h-4v4.06a49.74 49.74 0 0 1 -1.65 12.73v.1a8 8 0 0 0 1.73 12.6 52.94 52.94 0 0 1 -3.06 19 39.58 39.58 0 0 1 12.39 8.39 3.69 3.69 0 0 0 5.22 0 39.58 39.58 0 0 1 12.37-8.35 52.94 52.94 0 0 1 -3.06-19 8 8 0 0 0 4.06-7z" fill="#9ed8ec"/><path d="m41 52c-9.8 0-18.09-7.86-20.94-18.72a53 53 0 0 1 -3.06 18.25 39.58 39.58 0 0 1 12.39 8.39 3.69 3.69 0 0 0 5.22 0 39.58 39.58 0 0 1 12.39-8.39c-.06-.16-.11-.33-.17-.5a18.05 18.05 0 0 1 -5.83.97z" fill="#6bbeda"/><path d="m44.67 42.54a9.35 9.35 0 0 0 -3.67.46 9.47 9.47 0 0 1 -6 0 9.47 9.47 0 0 0 -6 0 9.47 9.47 0 0 1 -6 0 9.35 9.35 0 0 0 -3.67-.46 53.16 53.16 0 0 1 -1.43 6.21 9.52 9.52 0 0 1 5.1.25 9.47 9.47 0 0 0 6 0 9.47 9.47 0 0 1 6 0 9.47 9.47 0 0 0 6 0 9.52 9.52 0 0 1 5.1-.25 53.16 53.16 0 0 1 -1.43-6.21z" fill="#ff9b9b"/><path d="m45.5 30a18.45 18.45 0 0 1 -13.5-5.84 8.5 8.5 0 0 0 8.5 7.84 8.41 8.41 0 0 0 5.5-2c-.17 0-.33 0-.5 0z" fill="#6bbeda"/><path d="m18.57 30a18.41 18.41 0 0 0 13.43-5.84 8.48 8.48 0 0 1 -14 5.81c.23.03.4.03.57.03z" fill="#6bbeda"/><path d="m24.92 43.42a9.83 9.83 0 0 1 -1.92-.42 9.35 9.35 0 0 0 -3.67-.46 53.16 53.16 0 0 1 -1.43 6.21 9.52 9.52 0 0 1 5.1.25 9.47 9.47 0 0 0 6 0 11.31 11.31 0 0 1 1.39-.35 23.32 23.32 0 0 1 -5.47-5.23z" fill="#db6060"/></g><g id="Outline_copy" fill="#04485b" data-name="Outline copy"><path d="m44.93 33.05a9 9 0 0 0 1.65-13.66 48.82 48.82 0 0 1 -1.58-12.33v-4.06a1 1 0 0 0 -1-1h-4a1 1 0 0 0 -1 1v10.26a7.16 7.16 0 0 1 -6.53 7.26 7 7 0 0 1 -7.47-7v-10.52a1 1 0 0 0 -1-1h-4a1 1 0 0 0 -1 1v4.06a48.82 48.82 0 0 1 -1.58 12.33 9 9 0 0 0 2.14 14 1 1 0 0 0 1.37-.39 1 1 0 0 0 -.38-1.36 7 7 0 0 1 -3.55-6.11 6.92 6.92 0 0 1 2-4.93 1 1 0 0 0 .25-.45v-.11a50.74 50.74 0 0 0 1.75-12.98v-3.06h2v9.53a9 9 0 0 0 2.85 6.57 8.94 8.94 0 0 0 6.75 2.41 9.16 9.16 0 0 0 8.4-9.25v-9.26h2v3.06a50.74 50.74 0 0 0 1.68 13v.11a1 1 0 0 0 .25.45 6.92 6.92 0 0 1 2 4.93 7 7 0 0 1 -3.55 6.09 1 1 0 0 0 -.51.84 53.82 53.82 0 0 0 1.79 15.09 10.7 10.7 0 0 0 -4 .5 8.47 8.47 0 0 1 -5.36 0 10.62 10.62 0 0 0 -6.64 0 8.47 8.47 0 0 1 -5.36 0 10.65 10.65 0 0 0 -4-.5c.35-1.33.64-2.67.89-4a8.53 8.53 0 0 1 2.51.43 10.62 10.62 0 0 0 6.64 0 8.47 8.47 0 0 1 5.36 0 10.66 10.66 0 0 0 6.64 0 1 1 0 1 0 -.64-1.9 8.47 8.47 0 0 1 -5.36 0 10.62 10.62 0 0 0 -6.64 0 8.47 8.47 0 0 1 -5.36 0 10.88 10.88 0 0 0 -2.82-.52c.21-1.48.37-3 .47-4.47a1 1 0 1 0 -2-.12 52 52 0 0 1 -2.93 14.21 1 1 0 0 0 .55 1.25 38.45 38.45 0 0 1 12.07 8.17 4.68 4.68 0 0 0 6.64 0 38.45 38.45 0 0 1 12.07-8.17 1 1 0 0 0 .55-1.25 51.9 51.9 0 0 1 -3.01-18.15zm-11 26.16a2.77 2.77 0 0 1 -3.82 0 40.27 40.27 0 0 0 -11.86-8.21c.15-.45.29-.9.43-1.35a8.47 8.47 0 0 1 4 .31 10.62 10.62 0 0 0 6.64 0 8.47 8.47 0 0 1 5.36 0 10.66 10.66 0 0 0 6.64 0 8.51 8.51 0 0 1 4-.31c.14.45.27.9.42 1.35a40.27 40.27 0 0 0 -11.83 8.21z"/><path d="m40 33a1 1 0 0 0 0-2 7 7 0 0 1 -7-7 1 1 0 0 0 -2 0 7 7 0 0 1 -7 7 1 1 0 0 0 0 2 9 9 0 0 0 8-4.88 9 9 0 0 0 8 4.88z"/><path d="m31 33v5a1 1 0 0 0 2 0v-5a1 1 0 0 0 -2 0z"/></g></svg>