<svg id="old-phone" enable-background="new 0 0 300 300" height="512" viewBox="0 0 300 300" width="512" xmlns="http://www.w3.org/2000/svg"><path d="m234 150h-72c-4.422 0-8-3.578-8-8v-40c0-4.422 3.578-8 8-8h72c4.422 0 8 3.578 8 8v40c0 4.422-3.578 8-8 8zm-64-16h56v-24h-56z" fill="#18c2c6"/><path d="m258 70h-112v-24.125c0-8.75-7.125-15.875-15.875-15.875h-48.25c-8.75 0-15.875 7.125-15.875 15.875v24.125h-24c-4.422 0-8 3.578-8 8v160 24c0 4.422 3.578 8 8 8h216c4.422 0 8-3.578 8-8v-24-160c0-4.422-3.578-8-8-8zm-128-24.125v152.125l-48 .125-.125-152.125zm-80 40.125h16v112.125c0 8.75 7.125 15.875 15.875 15.875h48.25c8.75 0 15.875-7.125 15.875-15.875v-112.125h104v144h-200zm200 168h-200v-8h200z"/><path d="m170 158h-8c-4.422 0-8 3.578-8 8s3.578 8 8 8h8c4.422 0 8-3.578 8-8s-3.578-8-8-8z"/><path d="m202 158h-8c-4.422 0-8 3.578-8 8s3.578 8 8 8h8c4.422 0 8-3.578 8-8s-3.578-8-8-8z"/><path d="m234 158h-8c-4.422 0-8 3.578-8 8s3.578 8 8 8h8c4.422 0 8-3.578 8-8s-3.578-8-8-8z"/><path d="m170 182h-8c-4.422 0-8 3.578-8 8s3.578 8 8 8h8c4.422 0 8-3.578 8-8s-3.578-8-8-8z"/><path d="m202 182h-8c-4.422 0-8 3.578-8 8s3.578 8 8 8h8c4.422 0 8-3.578 8-8s-3.578-8-8-8z"/><path d="m234 182h-8c-4.422 0-8 3.578-8 8s3.578 8 8 8h8c4.422 0 8-3.578 8-8s-3.578-8-8-8z"/><path d="m170 206h-8c-4.422 0-8 3.578-8 8s3.578 8 8 8h8c4.422 0 8-3.578 8-8s-3.578-8-8-8z"/><path d="m202 206h-8c-4.422 0-8 3.578-8 8s3.578 8 8 8h8c4.422 0 8-3.578 8-8s-3.578-8-8-8z"/><path d="m234 206h-8c-4.422 0-8 3.578-8 8s3.578 8 8 8h8c4.422 0 8-3.578 8-8s-3.578-8-8-8z"/></svg>