<svg id="Fill_Outline" height="512" viewBox="0 0 64 64" width="512" xmlns="http://www.w3.org/2000/svg" data-name="Fill Outline"><g id="Stroke_copy" data-name="Stroke copy"><path d="m15 32h34a8 8 0 0 1 8 8v4a0 0 0 0 1 0 0h-50a0 0 0 0 1 0 0v-4a8 8 0 0 1 8-8z" fill="#ffd879"/><path d="m16 34v-2h-1a8 8 0 0 0 -8 8v4h50v-4h-35a6 6 0 0 1 -6-6z" fill="#ffc230"/><path d="m25 20h14a8 8 0 0 1 8 8v4a0 0 0 0 1 0 0h-30a0 0 0 0 1 0 0v-4a8 8 0 0 1 8-8z" fill="#9ed8ec"/><path d="m37 21v-1h-7v9h-2a8 8 0 0 1 -8-7.27 8 8 0 0 0 -3 6.27v4h30v-3h-2a8 8 0 0 1 -8-8z" fill="#6bbeda"/><circle cx="47" cy="44" fill="#4daf4d" r="4"/><circle cx="47" cy="44" fill="#157a15" r="2"/><circle cx="17" cy="44" fill="#4daf4d" r="4"/><circle cx="17" cy="44" fill="#157a15" r="2"/><rect fill="#6bbeda" height="4" rx="2" width="6" x="55" y="40"/><path d="m57 40h2a2 2 0 0 1 2 2 0 0 0 0 1 0 0h-2a2 2 0 0 1 -2-2 0 0 0 0 1 0 0z" fill="#9ed8ec"/><rect fill="#6bbeda" height="4" rx="2" transform="matrix(-1 0 0 -1 12 84)" width="6" x="3" y="40"/><path d="m5 40h2a2 2 0 0 1 2 2 0 0 0 0 1 0 0h-2a2 2 0 0 1 -2-2 0 0 0 0 1 0 0z" fill="#9ed8ec"/><path d="m28 16h8a1 1 0 0 1 1 1v3a0 0 0 0 1 0 0h-10a0 0 0 0 1 0 0v-3a1 1 0 0 1 1-1z" fill="#ffc230"/><path d="m29 16h7a1 1 0 0 1 1 1v1a0 0 0 0 1 0 0h-6a2 2 0 0 1 -2-2 0 0 0 0 1 0 0z" fill="#ffd879"/><path d="m30 20h4v12h-4z" fill="#ffc230"/><path d="m50 35a2 2 0 0 0 2 2h4.41a8 8 0 0 0 -3.54-4h-.87a2 2 0 0 0 -2 2z" fill="#ff9b9b"/><path d="m12 37a2 2 0 0 0 0-4h-.87a8 8 0 0 0 -3.54 4z" fill="#6bbeda"/><path d="m32 20h2a0 0 0 0 1 0 0v9a0 0 0 0 1 0 0 2 2 0 0 1 -2-2v-7a0 0 0 0 1 0 0z" fill="#ffd879"/></g><g id="Outline_copy" fill="#04485b" data-name="Outline copy"><path d="m39 43h-14a1 1 0 0 0 0 2h14a1 1 0 0 0 0-2z"/><path d="m59 39h-1.06a9 9 0 0 0 -.6-2.38 9 9 0 0 0 -8.34-5.62h-14v-7a1 1 0 0 0 -2 0v7h-2v-10h8a7 7 0 0 1 7 7 1 1 0 0 0 2 0 9 9 0 0 0 -9-9h-1v-2a2 2 0 0 0 -2-2h-8a2 2 0 0 0 -2 2v2h-1a9 9 0 0 0 -9 9v3h-1a9 9 0 0 0 -8.33 5.6 9 9 0 0 0 -.61 2.4h-1.06a3 3 0 0 0 0 6h7.1a5 5 0 1 0 0-2h-2.28a3 3 0 0 0 -1.77-3.8 8 8 0 0 1 .24-1.2h3.71a3 3 0 0 0 2.25-5 6.28 6.28 0 0 1 .75 0h34a6.28 6.28 0 0 1 .75 0 3 3 0 0 0 2.25 5h3.71a8 8 0 0 1 .29 1.2 3 3 0 0 0 -1.82 3.8h-2.28a5 5 0 1 0 0 2h7.1a3 3 0 0 0 0-6zm-42 2a3 3 0 1 1 -3 3 3 3 0 0 1 3-3zm-12 2a1 1 0 0 1 0-2h2a1 1 0 0 1 0 2zm7-9a1 1 0 0 1 0 2h-2.74a7.08 7.08 0 0 1 2.15-2zm16-17h8v2h-8zm-10 13.7a.51.51 0 0 0 .17-.07l3.46-2 .5.87a1 1 0 0 0 1.74-1l-1-1.73-1-1.73a1 1 0 1 0 -1.74 1l.5.86-2.63 1.52v-.42a7 7 0 0 1 7-7h4v10h-11zm34 5.3a1 1 0 0 1 0-2h.59a7.08 7.08 0 0 1 2.15 2zm-5 11a3 3 0 1 1 3-3 3 3 0 0 1 -3 3zm12-4h-2a1 1 0 0 1 0-2h2a1 1 0 0 1 0 2z"/><path d="m44.71 35.29a1 1 0 0 0 -1.42 0l-2.29 2.3-2.29-2.3a1 1 0 0 0 -1.42 0l-2.29 2.3-2.29-2.3a1 1 0 0 0 -1.42 0l-2.29 2.3-2.29-2.3a1 1 0 0 0 -1.42 0l-2.29 2.3-2.29-2.3a1 1 0 0 0 -1.42 1.42l3 3a1 1 0 0 0 1.42 0l2.29-2.3 2.29 2.3a1 1 0 0 0 1.42 0l2.29-2.3 2.29 2.3a1 1 0 0 0 1.42 0l2.29-2.3 2.29 2.3a1 1 0 0 0 1.42 0l3-3a1 1 0 0 0 0-1.42z"/><circle cx="47" cy="44" r="1"/><circle cx="17" cy="44" r="1"/></g></svg>