<svg id="par-avion" enable-background="new 0 0 300 300" height="512" viewBox="0 0 300 300" width="512" xmlns="http://www.w3.org/2000/svg"><g fill="#18c2c6"><circle cx="122" cy="58" r="12"/><circle cx="90" cy="58" r="12"/><circle cx="58" cy="58" r="12"/></g><path d="m245.031 30h-190.062c-18.18 0-32.969 14.789-32.969 32.969v15.031 159.031c0 18.18 14.789 32.969 32.969 32.969h190.062c18.18 0 32.969-14.789 32.969-32.969v-159.031-15.031c0-18.18-14.789-32.969-32.969-32.969zm-207.031 32.969c0-9.36 7.609-16.969 16.969-16.969h190.062c9.36 0 16.969 7.609 16.969 16.969v7.031h-224zm224 174.062c0 9.359-7.609 16.969-16.969 16.969h-190.062c-9.36 0-16.969-7.609-16.969-16.969v-151.031h224z"/><path d="m79.75 203c1.523 1.898 3.82 3 6.25 3h40v24c0 4.422 3.578 8 8 8h16c3.031 0 5.797-1.711 7.156-4.422l13.789-27.578h39.055c15.438 0 28-12.562 28-28s-12.562-28-28-28h-31.055l-21.789-43.578c-1.359-2.711-4.125-4.422-7.156-4.422h-16c-4.422 0-8 3.578-8 8v40h-72c-3.078 0-5.875 1.766-7.211 4.531-1.328 2.773-.961 6.062.961 8.469zm65.305 19h-3.055v-32h19.055zm-3.055-104h3.055l16 32h-19.055zm-8 48h40 36c6.617 0 12 5.383 12 12s-5.383 12-12 12h-31.055l2.211-4.422c1.242-2.477 1.109-5.422-.352-7.781s-4.031-3.797-6.804-3.797h-40c-4.422 0-8 3.578-8 8v8h-36.156l-19.195-24z"/></svg>