<svg id="Fill_Outline" height="512" viewBox="0 0 64 64" width="512" xmlns="http://www.w3.org/2000/svg" data-name="Fill Outline"><g id="Stroke_copy" data-name="Stroke copy"><path d="m32 3a10 10 0 0 1 10 10 0 0 0 0 1 0 0h-20a0 0 0 0 1 0 0 10 10 0 0 1 10-10z" fill="#9ed8ec"/><path d="m16 13h32a2 2 0 0 1 2 2v2a0 0 0 0 1 0 0h-36a0 0 0 0 1 0 0v-2a2 2 0 0 1 2-2z" fill="#9ed8ec"/><path d="m19 33h26a8 8 0 0 1 8 8v20a0 0 0 0 1 0 0h-42a0 0 0 0 1 0 0v-20a8 8 0 0 1 8-8z" fill="#7ecf7e"/><path d="m25 42v-9h-6a8 8 0 0 0 -8 8v20h42v-5h-14a14 14 0 0 1 -14-14z" fill="#4daf4d"/><path d="m41 61h4v-15z" fill="#4daf4d"/><path d="m11 49h8v12h-8z" fill="#ffc230"/><path d="m11 52h1a4 4 0 0 1 4 4v5a0 0 0 0 1 0 0h-5a0 0 0 0 1 0 0v-9a0 0 0 0 1 0 0z" fill="#ffd879"/><path d="m21 31a2 2 0 0 1 2 2v14a4 4 0 0 1 -4 4 0 0 0 0 1 0 0v-18a2 2 0 0 1 2-2z" fill="#db6060"/><path d="m45 49h8v12h-8z" fill="#ffd879" transform="matrix(-1 0 0 -1 98 110)"/><path d="m48 52h5a0 0 0 0 1 0 0v5a4 4 0 0 1 -4 4h-1a0 0 0 0 1 0 0v-9a0 0 0 0 1 0 0z" fill="#ffe5a7" transform="matrix(-1 0 0 -1 101 113)"/><path d="m41 31a4 4 0 0 1 4 4v14a2 2 0 0 1 -2 2 2 2 0 0 1 -2-2v-18a0 0 0 0 1 0 0z" fill="#db6060" transform="matrix(-1 0 0 -1 86 82)"/><rect fill="#6bbeda" height="8" rx="2" width="12" x="26" y="45"/><path d="m28 45h8a2 2 0 0 1 2 2v3a0 0 0 0 1 0 0h-6a4 4 0 0 1 -4-4v-1a0 0 0 0 1 0 0z" fill="#9ed8ec"/><circle cx="32" cy="49" fill="#2791b4" r="2"/><path d="m43 31a2 2 0 0 1 2 2v14a0 0 0 0 1 0 0 2 2 0 0 1 -2-2v-14a0 0 0 0 1 0 0z" fill="#ff9b9b"/><path d="m21 31a2 2 0 0 1 2 2v14a0 0 0 0 1 0 0 2 2 0 0 1 -2-2v-14a0 0 0 0 1 0 0z" fill="#ff9b9b"/><path d="m37 26h-10v7l5 6 5-6z" fill="#ffc230"/><path d="m22 17h20a0 0 0 0 1 0 0v4a10 10 0 0 1 -10 10 10 10 0 0 1 -10-10v-4a0 0 0 0 1 0 0z" fill="#ffe5a7"/><path d="m36 30a10 10 0 0 1 -10-10h16v-3h-20v4a10 10 0 0 0 14.38 9z" fill="#ffd879"/><g fill="#6bbeda"><path d="m20 15a2 2 0 0 1 -2-2h-2a2 2 0 0 0 -2 2v2h36v-2z"/><path d="m41 12a11 11 0 0 1 -10.78-8.83 10 10 0 0 0 -8.22 9.83h20a9.24 9.24 0 0 0 -.06-1c-.31 0-.62 0-.94 0z"/></g></g><g id="Outline_copy" fill="#04485b" data-name="Outline copy"><circle cx="28" cy="21" r="1"/><circle cx="36" cy="21" r="1"/><path d="m45.83 32a3 3 0 0 0 -5.65 0h-2.18v-1.79a11 11 0 0 0 5-9.21v-3h7a1 1 0 0 0 1-1v-2a3 3 0 0 0 -3-3h-5a11 11 0 0 0 -21.9 0h-5.1a3 3 0 0 0 -3 3v2a1 1 0 0 0 1 1h27v3a9 9 0 0 1 -18 0 1 1 0 0 0 -2 0 11 11 0 0 0 5 9.21v1.79h-2.18a3 3 0 0 0 -5.65 0 9 9 0 0 0 -8.17 9v20a1 1 0 0 0 2 0v-11h6v11a1 1 0 0 0 2 0v-9.1a5 5 0 0 0 4-4.9v-13h.15l1.85 10.82a3 3 0 0 0 -1 2.18v4a3 3 0 0 0 3 3h8a3 3 0 0 0 3-3v-4a3 3 0 0 0 -1-2.18l1.85-10.82h.15v13a5 5 0 0 0 4 4.9v9.1a1 1 0 0 0 2 0v-11h6v11a1 1 0 0 0 2 0v-20a9 9 0 0 0 -8.17-9zm-30.83-17a1 1 0 0 1 1-1h19a1 1 0 0 0 0-2h-11.94a9 9 0 0 1 17.88 0h-1.94a1 1 0 0 0 0 2h9a1 1 0 0 1 1 1v1h-34zm17 17a11.07 11.07 0 0 0 4-.76v1.4l-4 4.8-4-4.8v-1.4a11.07 11.07 0 0 0 4 .76zm-20 16v-7a7 7 0 0 1 6-6.92v13.92zm10-1a3 3 0 0 1 -2 2.83v-16.83a1 1 0 0 1 2 0zm15 4a1 1 0 0 1 -1 1h-8a1 1 0 0 1 -1-1v-4a1 1 0 0 1 1-1h8a1 1 0 0 1 1 1zm-.85-7h-.15-5v-1a1 1 0 0 0 -2 0v1h-1-.15l-1.67-10h.35l4.7 5.64a1 1 0 0 0 1.54 0l4.7-5.64h.35zm9.85 4v-3a1 1 0 0 0 -2 0v4.83a3 3 0 0 1 -2-2.83v-14a1 1 0 0 1 2 0v8a1 1 0 0 0 2 0v-6.92a7 7 0 0 1 6 6.92v7z"/><path d="m35 49a3 3 0 1 0 -3 3 3 3 0 0 0 3-3zm-3 1a1 1 0 1 1 1-1 1 1 0 0 1 -1 1z"/></g></svg>