<svg id="phonebook" enable-background="new 0 0 300 300" height="512" viewBox="0 0 300 300" width="512" xmlns="http://www.w3.org/2000/svg"><path d="m237.992 30h-32-19.805-108.179c-11.031 0-20.008 8.977-20.008 20.008v11.992h-16v16h16v16h-16v16h16v16h-16v16h16v16h-16v16h16v16h-16v16h16v16h-16v16h16v11.992c0 11.031 8.977 20.008 20.008 20.008h105.719 22.266 32c11.031 0 20.008-8.977 20.008-20.008v-199.984c-.001-11.031-8.978-20.008-20.009-20.008zm-54.265 224h-105.719c-2.211 0-4.008-1.797-4.008-4.008v-11.992h16v-16h-16v-16h16v-16h-16v-16h16v-16h-16v-16h16v-16h-16v-16h16v-16h-16v-16h16v-16h-16v-11.992c0-2.211 1.797-4.008 4.008-4.008h108.18 19.805c2.211 0 4.008 1.797 4.008 4.008v199.984c0 2.211-1.797 4.008-4.008 4.008zm58.273-4.008c0 2.211-1.797 4.008-4.008 4.008h-12.397c.265-1.295.405-2.635.405-4.008v-199.984c0-1.373-.141-2.713-.405-4.008h12.397c2.211 0 4.008 1.797 4.008 4.008z"/><path d="m178 238c-38.602 0-70-39.477-70-88s31.398-88 70-88c4.422 0 8 3.578 8 8v40c0 4.422-3.578 8-8 8h-16v64h16c4.422 0 8 3.578 8 8v40c0 4.422-3.578 8-8 8zm-8-159.211c-26 5.164-46 35.133-46 71.211s20 66.047 46 71.211v-23.211h-16c-4.422 0-8-3.578-8-8v-80c0-4.422 3.578-8 8-8h16z" fill="#18c2c6"/></svg>