<svg id="phone-specker" enable-background="new 0 0 300 300" height="512" viewBox="0 0 300 300" width="512" xmlns="http://www.w3.org/2000/svg"><path d="m130 278c-32.812 0-62.734-17.297-82.078-47.445-2.383-3.719-1.305-8.664 2.414-11.055 3.711-2.398 8.664-1.305 11.055 2.414 14.727 22.961 36.5 37.094 60.609 39.664v-47.578h-15.031c-13.766 0-24.969-11.203-24.969-24.969v-78.062c0-13.766 11.203-24.969 24.969-24.969h15.031v-47.586c-46.133 4.82-80 51.18-80 111.586 0 17.406 2.703 33.781 8.039 48.664 1.492 4.156-.672 8.734-4.828 10.227-4.195 1.477-8.75-.672-10.234-4.828-5.954-16.625-8.977-34.813-8.977-54.063 0-72.969 44.711-128 104-128 4.422 0 8 3.578 8 8v64c0 4.422-3.578 8-8 8h-23.031c-4.945 0-8.969 4.023-8.969 8.969v78.062c0 4.945 4.023 8.969 8.969 8.969h23.031c4.422 0 8 3.578 8 8v64c0 4.422-3.578 8-8 8z"/><path d="m274 146c0-18.482-14.049-33.576-32-35.596v-16.404c0-4.422-3.578-8-8-8h-24c-4.422 0-8 3.578-8 8v2.353l-66.68 23.71c-3.188 1.133-5.32 4.156-5.32 7.539v36.797c0 3.383 2.133 6.406 5.32 7.539l15.487 5.507c.021.044.015.091.036.134l20 40c1.406 2.805 4.227 4.422 7.164 4.422 1.203 0 2.422-.273 3.57-.844 3.953-1.977 5.555-6.781 3.578-10.734l-12.627-25.254 29.472 10.478v2.353c0 4.422 3.578 8 8 8h24c4.422 0 8-3.578 8-8v-16.404c17.951-2.02 32-17.114 32-35.596zm-128 12.75v-25.5l56-19.914v65.328zm80 31.25h-8v-88h8zm16-24.404v-39.191c9.12 1.857 16 9.935 16 19.596s-6.88 17.737-16 19.595z" fill="#18c2c6"/></svg>