<svg id="postal" enable-background="new 0 0 300 300" height="512" viewBox="0 0 300 300" width="512" xmlns="http://www.w3.org/2000/svg"><path d="m206 38h-112c-35.289 0-64 28.711-64 64v64c0 4.422 3.578 8 8 8h96v80c0 4.422 3.578 8 8 8s8-3.578 8-8v-80h16v80c0 4.422 3.578 8 8 8s8-3.578 8-8v-80h80c4.422 0 8-3.578 8-8v-64c0-35.289-28.711-64-64-64zm-160 64c0-26.469 21.531-48 48-48s48 21.531 48 48v56h-96zm208 56h-80-16v-56c0-19.121-8.473-36.262-21.81-48h69.81c26.469 0 48 21.531 48 48z"/><path d="m126 110h-64c-4.422 0-8-3.578-8-8s3.578-8 8-8h64c4.422 0 8 3.578 8 8s-3.578 8-8 8z" fill="#18c2c6"/></svg>