<svg id="retro-phone" enable-background="new 0 0 300 300" height="512" viewBox="0 0 300 300" width="512" xmlns="http://www.w3.org/2000/svg"><g fill="#18c2c6"><path d="m114 178h-8c-4.422 0-8-3.578-8-8s3.578-8 8-8h8c4.422 0 8 3.578 8 8s-3.578 8-8 8z"/><path d="m154 178h-8c-4.422 0-8-3.578-8-8s3.578-8 8-8h8c4.422 0 8 3.578 8 8s-3.578 8-8 8z"/><path d="m194 178h-8c-4.422 0-8-3.578-8-8s3.578-8 8-8h8c4.422 0 8 3.578 8 8s-3.578 8-8 8z"/><path d="m106 202h-8c-4.422 0-8-3.578-8-8s3.578-8 8-8h8c4.422 0 8 3.578 8 8s-3.578 8-8 8z"/><path d="m154 202h-8c-4.422 0-8-3.578-8-8s3.578-8 8-8h8c4.422 0 8 3.578 8 8s-3.578 8-8 8z"/><path d="m202 202h-8c-4.422 0-8-3.578-8-8s3.578-8 8-8h8c4.422 0 8 3.578 8 8s-3.578 8-8 8z"/></g><path d="m58 122h46c4.422 0 8-3.578 8-8v-16h76v16c0 4.422 3.578 8 8 8h46c4.422 0 8-3.578 8-8 0-44.109-44.859-80-100-80s-100 35.891-100 80c0 4.422 3.578 8 8 8zm92-72c42.758 0 78.164 24.477 83.344 56h-29.344v-16c0-4.422-3.578-8-8-8h-92c-4.422 0-8 3.578-8 8v16h-29.344c5.18-31.523 40.586-56 83.344-56z"/><path d="m257.918 217.592c-.026-.527-.179-1.029-.313-1.553-.138-.531-.251-1.053-.49-1.535-.062-.125-.055-.264-.123-.387l-40-72c-1.406-2.539-4.086-4.117-6.992-4.117h-32v-8c0-4.422-3.578-8-8-8s-8 3.578-8 8v8h-24v-8c0-4.422-3.578-8-8-8s-8 3.578-8 8v8h-32c-2.906 0-5.586 1.578-6.992 4.117l-40 72c-.069.123-.062.262-.124.387-.237.482-.351 1.002-.488 1.533-.135.523-.288 1.025-.314 1.555-.008.142-.082.263-.082.408v22.547c0 14.031 11.422 25.453 25.453 25.453h165.094c14.031 0 25.453-11.422 25.453-25.453v-22.547c0-.145-.074-.266-.082-.408zm-163.207-63.592h110.578l31.116 56h-172.81zm147.289 86.547c0 5.211-4.242 9.453-9.453 9.453h-165.094c-5.211 0-9.453-4.242-9.453-9.453v-14.547h184z"/></svg>