<svg id="touch" enable-background="new 0 0 300 300" height="512" viewBox="0 0 300 300" width="512" xmlns="http://www.w3.org/2000/svg"><circle cx="93.188" cy="241.332" fill="#18c2c6" r="8"/><path d="m276.469 195.473-19.141-19.141-.234-8.078c-.617-20.469-8.922-39.703-23.383-54.164l-6.234-6.234c-9.016-9.008-22.93-10.734-33.695-4.273l-28.594 16.176v-69.802c0-13.578-12.18-24.625-27.148-24.625h-89.704c-14.969 0-27.148 11.047-27.148 24.625v167.375 28.852c0 14.969 12.18 27.148 27.148 27.148h89.703c14.418 0 26.135-11.332 26.986-25.541 12.654 6.08 24.363 14.307 34.592 24.533 1.562 1.562 3.609 2.344 5.656 2.344s4.094-.781 5.656-2.344c3.125-3.125 3.125-8.188 0-11.312-30.492-30.484-72.602-45.305-115.406-40.781l-3.633.391c-.694-1.131-1.111-2.287-1.335-3.441-.003-.135-.068-.248-.077-.381-.174-1.174-.135-2.348.193-3.49 1.375-4.781 6.938-8.719 14.867-10.531l24.273-5.547c2.836-.648 5.102-2.789 5.906-5.586s.031-5.812-2.031-7.867l-52.266-52.266c-3.039-3.039-3.703-7.805-1.516-10.844 1.438-2 3.539-3.203 5.914-3.391 2.352-.227 4.648.648 6.312 2.312l33.945 33.945 16.969 16.969c1.562 1.562 3.609 2.344 5.656 2.344s4.094-.781 5.656-2.344c3.125-3.125 3.125-8.188 0-11.312l-9.532-9.532 14.629-8.277c.207.269.306.587.551.833l5.656 5.664c1.562 1.562 3.617 2.344 5.664 2.344s4.094-.781 5.656-2.336c3.125-3.125 3.125-8.188.008-11.32l-3.258-3.264 14.48-8.193c.039.041.05.097.09.137l5.656 5.656c1.562 1.562 3.609 2.344 5.656 2.344s4.094-.781 5.656-2.344c3.125-3.125 3.125-8.188 0-11.312l-2.539-2.539c4.47-2.193 9.858-1.461 13.421 2.117l6.234 6.234c11.578 11.57 18.219 26.961 18.703 43.328l.328 11.25c.062 2.039.898 3.977 2.344 5.422l21.391 21.383c3.125 3.125 8.188 3.125 11.312 0s3.132-8.189.007-11.314zm-179.25 40.664c17.816-1.889 35.44.141 51.969 5.467v4.58c0 6.148-5 11.148-11.148 11.148h-89.704c-6.148 0-11.148-5-11.148-11.148v-20.852h39.18c1.42 3.333 3.557 6.502 6.414 9.359 1.711 1.711 4.102 2.562 6.508 2.297zm-12.688-134.813c-7.023.57-13.445 4.211-17.609 9.992-6.758 9.391-5.391 22.93 3.188 31.508l42.031 42.031-10.164 2.328c-13.898 3.172-23.617 11.078-26.68 21.695-.043.15-.056.303-.097.453h-38.012v-159.374c0-4.672 5.102-8.625 11.148-8.625h89.703c6.047 0 11.148 3.953 11.148 8.625v78.852l-16.102 9.109-29.641-29.641c-4.983-4.984-11.842-7.445-18.913-6.953z"/></svg>