<svg id="tweet" enable-background="new 0 0 300 300" height="512" viewBox="0 0 300 300" width="512" xmlns="http://www.w3.org/2000/svg"><path d="m260.684 140.715c10.769-12.588 17.316-28.889 17.316-46.715 0-39.703-32.297-72-72-72s-72 32.297-72 72c0 14.248 4.336 28.211 12.228 40h-99.603c-13.578 0-24.625 12.18-24.625 27.148v89.703c0 14.969 11.047 27.149 24.625 27.149h167.375 28.852c14.968 0 27.148-12.18 27.148-27.148v-89.703c0-8-3.507-15.372-9.316-20.434zm-54.684-102.715c30.875 0 56 25.125 56 56s-25.125 56-56 56c-11.328 0-22.242-3.375-31.578-9.766-1.344-.922-2.922-1.398-4.516-1.398-1.008 0-2.016.188-2.969.57l-5.859 2.344 2.039-3.398c1.727-2.883 1.477-6.539-.641-9.156-8.164-10.071-12.476-22.243-12.476-35.196 0-30.875 25.125-56 56-56zm-168 212.852v-89.703c0-6.047 3.953-11.149 8.625-11.149h90.845l-2.329 3.883c-1.766 2.945-1.461 6.688.766 9.305 1.555 1.82 3.797 2.812 6.094 2.812 1 0 2.008-.188 2.969-.57l24.086-9.641c11.155 6.695 23.842 10.211 36.944 10.211v96h-159.375c-4.672 0-8.625-5.102-8.625-11.148zm216 0c0 6.148-5 11.148-11.148 11.148h-20.852v-97.854c9.833-2.243 18.879-6.512 26.731-12.332 3.205 2.021 5.269 5.459 5.269 9.334z"/><circle cx="238" cy="206" r="8"/><circle cx="206" cy="94" r="8"/><circle cx="238" cy="94" r="8"/><circle cx="174" cy="94" r="8"/><path d="m169.715 183.872-9.872 3.291 3.291-9.872-6.924 3.963c-3.302-4.397-8.543-7.254-14.465-7.254-9.996 0-18.099 8.103-18.099 18.099v11.517s-19.744 3.291-49.36-23.035c0 0 3.291 19.744 13.163 26.325 0 0-6.581 3.291-13.163 0 0 0 6.581 13.163 19.744 16.453 0 0-3.291 6.581-9.872 6.581 0 0 6.581 9.872 19.744 9.872 0 0-6.581 9.872-29.616 6.581 0 0 36.516 16.857 65.813-6.581 10.908-8.727 16.031-21.793 18.245-29.608 1.022-3.607 1.499-7.327 1.499-11.076v-2.917z" fill="#18c2c6"/></svg>