<svg id="www" enable-background="new 0 0 300 300" height="512" viewBox="0 0 300 300" width="512" xmlns="http://www.w3.org/2000/svg"><g fill="#18c2c6"><path d="m94 190c-2.648 0-5.164-1.32-6.656-3.562l-9.344-14.016-9.344 14.016c-1.695 2.539-4.656 3.898-7.719 3.492-3.031-.406-5.562-2.5-6.523-5.398l-8-24c-1.398-4.195.867-8.727 5.055-10.117 4.227-1.406 8.719.867 10.117 5.055l2.828 8.484 6.93-10.391c2.969-4.453 10.344-4.453 13.312 0l6.93 10.391 2.828-8.484c1.398-4.188 5.891-6.461 10.117-5.055 4.188 1.391 6.453 5.922 5.055 10.117l-8 24c-.961 2.898-3.492 4.992-6.523 5.398-.36.047-.711.07-1.063.07z"/><path d="m166 190c-2.648 0-5.164-1.32-6.656-3.562l-9.344-14.016-9.344 14.016c-1.695 2.539-4.656 3.898-7.719 3.492-3.031-.406-5.562-2.5-6.523-5.398l-8-24c-1.398-4.195.867-8.727 5.055-10.117 4.234-1.406 8.719.867 10.117 5.055l2.828 8.484 6.93-10.391c2.969-4.453 10.344-4.453 13.312 0l6.93 10.391 2.828-8.484c1.398-4.188 5.883-6.461 10.117-5.055 4.188 1.391 6.453 5.922 5.055 10.117l-8 24c-.961 2.898-3.492 4.992-6.523 5.398-.36.047-.711.07-1.063.07z"/><path d="m238 190c-2.648 0-5.164-1.32-6.656-3.562l-9.344-14.016-9.344 14.016c-1.695 2.539-4.656 3.898-7.719 3.492-3.031-.406-5.562-2.5-6.523-5.398l-8-24c-1.398-4.195.867-8.727 5.055-10.117 4.227-1.406 8.719.867 10.117 5.055l2.828 8.484 6.93-10.391c2.969-4.453 10.344-4.453 13.312 0l6.93 10.391 2.828-8.484c1.398-4.188 5.891-6.461 10.117-5.055 4.188 1.391 6.453 5.922 5.055 10.117l-8 24c-.961 2.898-3.492 4.992-6.523 5.398-.36.047-.711.07-1.063.07z"/></g><path d="m262 30h-224c-4.422 0-8 3.578-8 8v224c0 4.422 3.578 8 8 8h224c4.422 0 8-3.578 8-8v-224c0-4.422-3.578-8-8-8zm-8 16v32h-208v-32zm-208 208v-160h208v160z"/><path d="m54 54h16v16h-16z"/><path d="m78 54h16v16h-16z"/><path d="m102 54h16v16h-16z"/><path d="m126 230h48v16h-48z"/></svg>