<svg id="Fill_Outline" height="512" viewBox="0 0 64 64" width="512" xmlns="http://www.w3.org/2000/svg" data-name="Fill Outline"><g id="Stroke_copy" data-name="Stroke copy"><path d="m58 52a3 3 0 0 0 -1.08.21 5 5 0 0 0 -9.18-1.8 4 4 0 0 0 -1.74-.41 4 4 0 1 0 2.82 6.83 4.94 4.94 0 0 0 6.65-.24 3 3 0 1 0 2.53-4.59z" fill="#9ed8ec"/><path d="m27 9a4 4 0 0 0 -2 .57 5.44 5.44 0 0 0 0-.57 6 6 0 0 0 -10.62-3.83 5.67 5.67 0 0 0 -1.38-.17 6 6 0 0 0 -6 6v.19a2.83 2.83 0 0 0 -1-.19 3 3 0 1 0 2.74 4.22 6 6 0 0 0 8.88-.39 4 4 0 0 0 .5.09 4 4 0 0 0 7 1.58 3.93 3.93 0 0 0 1.88.5 4 4 0 0 0 0-8z" fill="#9ed8ec"/><path d="m30 14a3.93 3.93 0 0 1 -1.9-.5 4 4 0 0 1 -7-1.58 4 4 0 0 1 -.5-.09 6 6 0 0 1 -8.88.39 3 3 0 0 1 -5.72-1.22 3 3 0 1 0 2.74 4.22 6 6 0 0 0 8.88-.39 4 4 0 0 0 .5.09 4 4 0 0 0 7 1.58 3.93 3.93 0 0 0 1.88.5 4 4 0 0 0 3.89-3.11 3.74 3.74 0 0 1 -.89.11z" fill="#6bbeda"/><path d="m58.47 53.59a4.94 4.94 0 0 1 -6.65.24 4 4 0 0 1 -6.82-2.83 3.74 3.74 0 0 1 .11-.89 4 4 0 1 0 3.71 6.72 4.94 4.94 0 0 0 6.65-.24 3 3 0 0 0 5.53-1.59 3 3 0 0 1 -2.53-1.41z" fill="#6bbeda"/><path d="m60.64 18-33.7 28.24c-5.94 4.97-14.18 4.88-18.44-.24l33.71-28.24c5.92-5 14.17-4.88 18.43.2z" fill="#9ed8ec"/><path d="m25.9 41.89a8 8 0 0 1 -11.27-1l-6.13 5.11c4.26 5.08 12.51 5.17 18.44.2l33.7-28.2a10.42 10.42 0 0 0 -3.19-2.55z" fill="#6bbeda"/><path d="m23 31.29h16a4 4 0 0 1 4 4 0 0 0 0 1 0 0h-16a4 4 0 0 1 -4-4 0 0 0 0 1 0 0z" fill="#db6060" transform="matrix(.766 -.643 .643 .766 -13.67 29.02)"/><path d="m37.79 29.73h9.5a0 0 0 0 1 0 0v5a0 0 0 0 1 0 0h-9.5a2.5 2.5 0 0 1 -2.5-2.5 2.5 2.5 0 0 1 2.5-2.5z" fill="#c13d3d" transform="matrix(.766 -.643 .643 .766 -11.06 34.08)"/><path d="m14.63 40.9-6.13 5.1-5.14-6.08a6.44 6.44 0 0 1 6.73-1z" fill="#9ed8ec"/><path d="m49.77 20.55 6.67-5.55a12.35 12.35 0 0 0 -5.23-.83l-4 3.37a2 2 0 1 0 2.57 3.06z" fill="#2791b4"/><path d="m30 35.86 10.3-8.65a4 4 0 0 0 -3.92.69l-9.19 7.71a2 2 0 0 0 2.81.25z" fill="#ff9b9b"/><path d="m41.59 30.54h6a0 0 0 0 1 0 0v3a0 0 0 0 1 0 0h-9a0 0 0 0 1 0 0 3 3 0 0 1 3-3z" fill="#db6060" transform="matrix(.766 -.643 .643 .766 -10.51 35.19)"/><path d="m43.16 26.87h2v2h-2z" fill="#2791b4" transform="matrix(.766 -.643 .643 .766 -7.58 34.91)"/><path d="m44.77 28.29h2v3h-2z" fill="#9ed8ec" transform="matrix(.766 -.643 .643 .766 -8.44 36.39)"/><path d="m6.82 40.93-1.72-2a6.33 6.33 0 0 0 -1.74 1l5.14 6.07 5.36-4.49a5 5 0 0 1 -7.04-.58z" fill="#6bbeda"/></g><g id="Outline_copy" fill="#04485b" data-name="Outline copy"><path d="m35.31 40.52a1 1 0 0 0 -1.31-1.52l-7.74 6.49c-5.15 4.33-12.26 4.51-16.26.64l5.32-4.46 27.53-23.14a14.88 14.88 0 0 1 4.76-2.7l-1.06.89a3 3 0 0 0 -.36 4.28 3 3 0 0 0 2 1.06h.27a3 3 0 0 0 1.92-.7l6.21-5.21a9.4 9.4 0 0 1 2.57 1.76l-10.32 8.64a1 1 0 0 0 1.29 1.53l11.16-9.36a1 1 0 0 0 .35-.68 1 1 0 0 0 -.23-.73 11.5 11.5 0 0 0 -4.54-3.26l-.2-.06c-.32-.12-.63-.23-1-.33l-.44-.11c-.28-.07-.57-.14-.86-.19l-.54-.09-.83-.11h-.53-1c-.1 0-.2 0-.31 0a16.31 16.31 0 0 0 -9.6 3.84l-27.1 22.74-4-1.72a7.43 7.43 0 0 0 -7.78 1.13 1 1 0 0 0 -.35.68 1 1 0 0 0 .23.73l5.14 6.13a12.23 12.23 0 0 0 9.51 4.21 16.18 16.18 0 0 0 10.37-3.9zm19.09-25.15-5.27 4.42a1 1 0 0 1 -.73.23 1 1 0 0 1 -.56-1.77l3.75-3.14a10.35 10.35 0 0 1 1.37 0h.13a11.52 11.52 0 0 1 1.31.26zm-44.71 24.48 3.06 1.33-.69.57-3.44 2.89-3.8-4.53a5.46 5.46 0 0 1 4.87-.26z"/><path d="m48.49 30.38a1 1 0 0 0 -.23-.73l-3.21-3.83a1 1 0 0 0 -1.41-.12l-1.64 1.35a5 5 0 0 0 -6.32.08l-12.23 10.29a1 1 0 0 0 -.12 1.4 5 5 0 0 0 3.39 1.77h.45a5 5 0 0 0 3.2-1.17l4.87-4.08a3.42 3.42 0 0 0 .69 1.37 3.47 3.47 0 0 0 2.38 1.29h.31a3.42 3.42 0 0 0 2.24-.82l7.28-6.1a1 1 0 0 0 .35-.7zm-19.4 7.53a3 3 0 0 1 -3.46.28l11.37-9.53a3.07 3.07 0 0 1 2.18-.66 2.93 2.93 0 0 1 1.27.41zm10.49-2.28a1.52 1.52 0 0 1 -1.1.35 1.55 1.55 0 0 1 -1-.53 1.52 1.52 0 0 1 .19-2.12l3.62-3 2.89-2.43 1.93 2.3z"/><path d="m29.19 51.14-10.83 9.09a1 1 0 0 0 -.13 1.41 1 1 0 0 0 .77.36 1 1 0 0 0 .64-.23l10.84-9.09a1 1 0 0 0 -1.29-1.54z"/><path d="m9.4 54.33-7 5.9a1 1 0 0 0 -.13 1.41 1 1 0 0 0 .73.36 1 1 0 0 0 .64-.23l7-5.91a1 1 0 1 0 -1.24-1.53z"/><path d="m45.57 36.51-9.21 7.72a1 1 0 0 0 -.13 1.41 1 1 0 0 0 .77.36 1 1 0 0 0 .64-.23l9.21-7.77a1 1 0 0 0 .15-1.37 1 1 0 0 0 -1.43-.12z"/><path d="m38.32 49.23-6 5a1 1 0 0 0 -.13 1.41 1 1 0 0 0 .81.36 1 1 0 0 0 .64-.23l6-5a1 1 0 0 0 -1.28-1.54z"/><path d="m17.23 29.14-4.87 4.09a1 1 0 0 0 -.13 1.41 1 1 0 0 0 .77.36 1 1 0 0 0 .64-.23l4.88-4.09a1 1 0 0 0 -1.29-1.54z"/><path d="m2.23 54.64a1 1 0 0 0 .77.36 1 1 0 0 0 .64-.23l4.36-3.64a1 1 0 0 0 .12-1.41 1 1 0 0 0 -1.41-.12l-4.35 3.63a1 1 0 0 0 -.13 1.41z"/><path d="m3.64 32.77 4.36-3.64a1 1 0 0 0 .12-1.41 1 1 0 0 0 -1.41-.12l-4.35 3.63a1 1 0 0 0 -.13 1.41 1 1 0 0 0 .77.36 1 1 0 0 0 .64-.23z"/><path d="m57.65 51a6 6 0 0 0 -10.27-1.8 5.06 5.06 0 0 0 -1.38-.2 5 5 0 1 0 3.53 8.54 1 1 0 0 0 -1.41-1.42 3 3 0 0 1 -2.12.88 3 3 0 1 1 1.3-5.69 1 1 0 0 0 1.29-.38 4 4 0 0 1 7.34 1.44 1.05 1.05 0 0 0 .49.71 1 1 0 0 0 .86.06 2 2 0 1 1 -1 2.92 1 1 0 0 0 -.72-.46 1 1 0 0 0 -.82.27 4 4 0 0 1 -2.74 1.13 1 1 0 0 0 0 2 6 6 0 0 0 3.34-1 4 4 0 0 0 2.66 1 4 4 0 1 0 -.35-8z"/><path d="m6 18a4 4 0 0 0 2.94-1.3 6.89 6.89 0 0 0 4.06 1.3 7 7 0 0 0 4.57-1.7 5 5 0 0 0 4.43 2.7 1 1 0 0 0 0-2 3 3 0 0 1 -2.91-2.31 1 1 0 0 0 -.83-.76l-.41-.07a1 1 0 0 0 -1 .33 5 5 0 0 1 -7.4.33 1 1 0 0 0 -1.63.29 2 2 0 1 1 -1.82-2.81 1.89 1.89 0 0 1 .67.13 1 1 0 0 0 .93-.13 1 1 0 0 0 .4-.84v-.16a5 5 0 0 1 6.15-4.86 1 1 0 0 0 1-.33 5 5 0 0 1 8.85 3.19v.47a1 1 0 0 0 1.5 1 3 3 0 1 1 1.5 5.53 2.94 2.94 0 0 1 -1.42-.38 1 1 0 0 0 -1 1.76 4.91 4.91 0 0 0 2.42.62 5 5 0 0 0 0-10 4.79 4.79 0 0 0 -1.06.12 7 7 0 0 0 -11.94-4.04 7 7 0 0 0 -7.93 5.92 4 4 0 1 0 -.07 8z"/></g></svg>