<svg id="globe" enable-background="new 0 0 300 300" height="512" viewBox="0 0 300 300" width="512" xmlns="http://www.w3.org/2000/svg"><path d="m270 150c0-63.232-49.186-115.068-111.292-119.559-.548-.05-1.08-.146-1.625-.082-2.356-.138-4.692-.359-7.083-.359-4.422 0-8 3.578-8 8s3.578 8 8 8c1.614 0 3.185.169 4.781.242 11.68 10.37 21.245 23.433 28.437 38.223-10.644 3.59-21.855 5.527-33.218 5.527-4.422 0-8 3.578-8 8s3.578 8 8 8c13.492 0 26.812-2.332 39.41-6.714 4.728 13.421 7.562 27.823 8.324 42.722h-47.734c-4.422 0-8 3.578-8 8s3.578 8 8 8h47.733c-.831 16.233-4.13 31.885-9.642 46.303-12.21-4.09-25.063-6.303-38.091-6.303-4.422 0-8 3.578-8 8s3.578 8 8 8c10.762 0 21.376 1.771 31.512 4.996-6.98 13.376-15.965 25.203-26.73 34.762-1.597.073-3.168.242-4.782.242-4.422 0-8 3.578-8 8s3.578 8 8 8c2.525 0 4.995-.225 7.481-.379.18.012.346.113.526.113.385 0 .757-.143 1.139-.197 61.902-4.703 110.854-56.453 110.854-119.537zm-89.259-99.355c12.127 3.761 23.253 9.755 33.042 17.39-4.988 3.878-10.3 7.263-15.869 10.151-4.771-9.942-10.518-19.17-17.173-27.541zm23.353 42.333c7.669-3.872 14.975-8.492 21.692-13.971 15.726 16.777 25.946 38.708 27.809 62.993h-39.867c-.797-17.085-4.089-33.624-9.634-49.022zm9.634 65.022h39.867c-1.949 25.414-12.981 48.32-29.964 65.365-6.49-5.055-13.453-9.395-20.783-12.989 6.295-16.331 10.024-34.044 10.88-52.376zm-17.396 66.996c5.159 2.566 10.105 5.554 14.791 8.961-9.139 6.672-19.336 11.974-30.382 15.398 5.937-7.469 11.143-15.62 15.591-24.359z" fill="#18c2c6"/><path d="m150 254c-5.467 0-10.795-.551-16.037-1.367l15.701-52.336c.469-1.578.445-3.266-.078-4.828l-8-24c-1.086-3.266-4.141-5.469-7.586-5.469h-38.109l-16-8 1.688-.844c2.211-1.102 3.781-3.164 4.266-5.586l7.398-37.008 29.555-22.164c3.234-2.422 4.148-6.867 2.148-10.367l-15.8-27.646c12.55-5.383 26.355-8.385 40.854-8.385 4.422 0 8-3.578 8-8s-3.578-8-8-8c-20.163 0-39.148 5.051-55.846 13.873-.062.033-.132.029-.193.064-.029.017-.044.047-.073.064-33.23 17.662-57.109 50.49-62.57 89.193-.001.008-.003.017-.004.025-.775 5.5-1.314 11.072-1.314 16.781 0 56.305 39.024 103.541 91.413 116.416.021.006.035.023.056.029.046.014.093.008.139.021 9.121 2.225 18.596 3.534 28.392 3.534 4.422 0 8-3.578 8-8s-3.578-8-8-8zm-59.578-72.844c1.109.555 2.336.844 3.578.844h34.234l5.375 16.125-15.272 50.908c-7.248-2.322-14.109-5.475-20.572-9.249l-3.843-26.917c-.25-1.711-1.039-3.297-2.266-4.523l-22.664-22.664-6.097-18.287zm4.586-119.263 12.539 21.943-26.344 19.766c-1.578 1.18-2.664 2.898-3.047 4.828l-7.234 36.164-12.5 6.25c-.313.157-.563.393-.849.585l-3.987-11.96c-.312-.945-.805-1.82-1.438-2.594l-4.416-5.299c5.279-29.349 22.883-54.402 47.276-69.683zm-37.972 134.455 21.425 21.426 1.231 8.637c-9.264-8.533-16.963-18.692-22.656-30.063z"/></svg>