<svg id="tablet-call" enable-background="new 0 0 300 300" height="512" viewBox="0 0 300 300" width="512" xmlns="http://www.w3.org/2000/svg"><path d="m206 104.148c4.422 0 8-3.578 8-8v-47c0-14.968-12.18-27.148-27.148-27.148h-137.704c-14.968 0-27.148 12.18-27.148 27.148v172.852 28.852c0 14.968 12.18 27.148 27.148 27.148h137.703c14.969 0 27.149-12.18 27.149-27.148v-28.852-48c0-4.422-3.578-8-8-8s-8 3.578-8 8v40h-160v-164.852c0-6.148 5-11.148 11.148-11.148h137.703c6.149 0 11.149 5 11.149 11.148v47c0 4.422 3.578 8 8 8zm-8 125.852v20.852c0 6.148-5 11.148-11.148 11.148h-137.704c-6.148 0-11.148-5-11.148-11.148v-20.852z"/><circle cx="118" cy="246" r="8"/><path d="m102.289 86.141-28.281-28.289c-3-3-8.312-3-11.312 0-27.289 27.297-21.578 77.422 12.727 111.727 19.711 19.711 44.633 29.977 67.453 29.977 16.906 0 32.656-5.633 44.273-17.25 1.5-1.5 2.344-3.531 2.344-5.656s-.844-4.156-2.344-5.656l-28.289-28.281c-3.125-3.125-8.188-3.125-11.312 0l-11.312 11.312-45.258-45.258 11.312-11.312c3.124-3.127 3.124-8.189-.001-11.314zm28.289 84.851c3.125 3.125 8.188 3.125 11.312 0l11.312-11.312 16.414 16.414c-22.031 14.711-57.375 7.688-82.883-17.828-25.508-25.508-32.547-60.844-17.828-82.883l16.415 16.414-11.312 11.312c-3.125 3.125-3.125 8.188 0 11.312z"/><path d="m230 174c-1.18 0-2.359-.258-3.469-.789-2.765-1.336-4.531-4.133-4.531-7.211v-8h-40c-4.422 0-8-3.578-8-8v-32c0-4.422 3.578-8 8-8h40v-8c0-3.078 1.766-5.875 4.531-7.211 2.758-1.336 6.062-.969 8.469.961l40 32c1.898 1.523 3 3.82 3 6.25s-1.102 4.727-3 6.25l-40 32c-1.445 1.156-3.219 1.75-5 1.75zm-40-32h40c4.211 0 7.656 3.25 7.977 7.375l19.218-15.375-19.219-15.375c-.32 4.125-3.765 7.375-7.976 7.375h-40z" fill="#18c2c6"/></svg>